<svg width="70" height="50" viewBox="0 0 70 50" fill="none" xmlns="http://www.w3.org/2000/svg">
<g filter="url(#filter0_d_85_242)">
<path d="M4 21C4.46612 49 65.5285 49 65.9946 21C65.5285 -7 4.46612 -7 4 21Z" fill="#A88C40"/>
<path d="M22.7083 16.7461C23.0859 16.7461 23.2747 16.9349 23.2747 17.3125V21.0039C23.2747 21.3815 23.0859 21.5703 22.7083 21.5703C22.3567 21.5703 22.1809 21.4271 22.1809 21.1406V20.0664C22.1809 19.7669 22.0051 19.6172 21.6536 19.6172H18.8997C18.7564 19.6172 18.6392 19.6237 18.5481 19.6367C18.457 19.6497 18.3528 19.6823 18.2356 19.7344C18.1314 19.7734 18.0533 19.8516 18.0012 19.9688C17.9491 20.0859 17.9231 20.2357 17.9231 20.418V25.0078C17.9231 25.151 17.9296 25.2682 17.9426 25.3594C17.9687 25.4375 18.0273 25.5221 18.1184 25.6133C18.2226 25.6914 18.3658 25.7435 18.5481 25.7695C19.134 25.8607 19.759 25.9062 20.4231 25.9062C20.8658 25.9062 21.4127 25.8672 22.0637 25.7891C22.7148 25.7109 23.1249 25.6068 23.2942 25.4766C23.4114 25.3854 23.6458 25.0273 23.9973 24.4023C24.3489 23.7643 24.5767 23.4128 24.6809 23.3477C24.759 23.3086 24.8241 23.2891 24.8762 23.2891C24.9674 23.2891 25.0455 23.3281 25.1106 23.4062C25.1887 23.4844 25.2278 23.5951 25.2278 23.7383V23.7578C25.2278 23.875 25.026 24.8255 24.6223 26.6094C24.5963 26.7656 24.5377 26.8698 24.4465 26.9219C24.3684 26.974 24.2252 27 24.0168 27H17.1418C16.5429 27 15.983 27.0391 15.4622 27.1172C14.9543 27.1953 14.6874 27.2344 14.6614 27.2344C14.5051 27.2344 14.3814 27.1562 14.2903 27C14.2122 26.8568 14.1731 26.7396 14.1731 26.6484C14.1731 26.5052 14.2252 26.401 14.3293 26.3359C14.4335 26.2708 14.6939 26.1602 15.1106 26.0039C15.345 25.9128 15.5403 25.8411 15.6965 25.7891C15.996 25.6849 16.1458 25.4245 16.1458 25.0078V14.5781C16.1458 14.4349 16.1132 14.3438 16.0481 14.3047C15.983 14.2656 15.8333 14.2266 15.5989 14.1875C15.4817 14.1745 15.3385 14.1615 15.1692 14.1484C14.9999 14.1354 14.8697 14.1224 14.7786 14.1094C14.7004 14.0964 14.6158 14.0768 14.5247 14.0508C14.4335 14.0117 14.3684 13.9596 14.3293 13.8945C14.2903 13.8294 14.2708 13.7383 14.2708 13.6211C14.2708 13.3216 14.401 13.1719 14.6614 13.1719H23.8606C24.0819 13.1719 24.2252 13.2826 24.2903 13.5039C24.3424 13.7513 24.414 14.0964 24.5051 14.5391C24.6093 14.9818 24.6939 15.3594 24.759 15.6719C24.8372 15.9714 24.8762 16.1341 24.8762 16.1602C24.8762 16.3555 24.7395 16.4531 24.4661 16.4531C24.2577 16.4531 24.0689 16.3359 23.8997 16.1016C23.3137 15.0729 22.9817 14.513 22.9036 14.4219C22.7864 14.3047 22.5976 14.2461 22.3372 14.2461H18.5676C18.3072 14.2461 18.1379 14.3112 18.0598 14.4414C17.9947 14.5716 17.9622 14.7604 17.9622 15.0078V18.0156C17.9622 18.3151 18.0924 18.4648 18.3528 18.4648H21.4192C21.5624 18.4648 21.6796 18.4583 21.7708 18.4453C21.8619 18.4193 21.953 18.3542 22.0442 18.25C22.1353 18.1458 22.1809 17.9961 22.1809 17.8008V17.1758C22.1809 16.8893 22.3567 16.7461 22.7083 16.7461Z" fill="#E5D7C4"/>
<path d="M26.0286 18.6992C26.0546 18.6992 26.1392 18.7057 26.2825 18.7188C26.4257 18.7188 26.621 18.7253 26.8684 18.7383C27.1158 18.7513 27.3827 18.7578 27.6692 18.7578C27.9556 18.7578 28.2226 18.7513 28.47 18.7383C28.7304 18.7253 28.9322 18.7188 29.0754 18.7188C29.2187 18.7057 29.3033 18.6992 29.3293 18.6992C29.4856 18.6992 29.5637 18.7904 29.5637 18.9727V19.0117C29.5637 19.0378 29.5637 19.0768 29.5637 19.1289C29.5767 19.168 29.5833 19.194 29.5833 19.207C29.5833 19.2982 29.5507 19.3568 29.4856 19.3828C29.4335 19.4089 29.2903 19.4349 29.0559 19.4609C28.9778 19.474 28.9127 19.4805 28.8606 19.4805C28.6523 19.5065 28.5481 19.5977 28.5481 19.7539C28.5481 19.819 28.6392 19.9818 28.8215 20.2422C29.134 20.6458 29.4335 21.043 29.72 21.4336C29.8892 21.6419 29.9869 21.7461 30.0129 21.7461C30.039 21.7461 30.0715 21.7266 30.1106 21.6875C31.0481 20.4375 31.5168 19.7799 31.5168 19.7148C31.5168 19.5716 31.3541 19.4935 31.0286 19.4805C30.703 19.4674 30.5403 19.3763 30.5403 19.207C30.5403 18.8685 30.6249 18.6992 30.7942 18.6992C30.8202 18.6992 30.8918 18.7057 31.009 18.7188C31.1392 18.7188 31.3085 18.7253 31.5168 18.7383C31.7382 18.7513 31.9726 18.7578 32.22 18.7578H32.2786C32.539 18.7578 32.7799 18.7513 33.0012 18.7383C33.2226 18.7253 33.3918 18.7188 33.509 18.7188C33.6392 18.7057 33.7174 18.6992 33.7434 18.6992C33.9127 18.6992 33.9973 18.7969 33.9973 18.9922C33.9973 19.1224 33.9778 19.2201 33.9387 19.2852C33.8997 19.3372 33.8476 19.3763 33.7825 19.4023C33.7174 19.4154 33.5872 19.4349 33.3918 19.4609C33.3267 19.474 33.2812 19.4805 33.2551 19.4805C32.9817 19.5195 32.7864 19.5781 32.6692 19.6562C32.552 19.7344 32.4023 19.8841 32.22 20.1055C31.0872 21.6029 30.5208 22.3581 30.5208 22.3711C30.5208 22.4102 31.4387 23.5951 33.2747 25.9258C33.3137 25.9779 33.3463 26.0234 33.3723 26.0625C33.4114 26.1016 33.4439 26.1406 33.47 26.1797C33.509 26.2057 33.5351 26.2253 33.5481 26.2383C33.5741 26.2513 33.6067 26.2643 33.6458 26.2773C33.6978 26.2904 33.7304 26.3034 33.7434 26.3164C33.7694 26.3164 33.815 26.3229 33.8801 26.3359C33.9452 26.349 33.9908 26.3555 34.0168 26.3555C34.1471 26.3815 34.2122 26.4661 34.2122 26.6094C34.2122 26.9219 34.1145 27.0781 33.9192 27.0781C33.8931 27.0781 33.8085 27.0716 33.6653 27.0586C33.5351 27.0456 33.3463 27.0326 33.0989 27.0195C32.8515 27.0065 32.5846 27 32.2981 27C32.0116 27 31.7447 27.0065 31.4973 27.0195C31.2499 27.0326 31.0546 27.0456 30.9114 27.0586C30.7812 27.0716 30.703 27.0781 30.677 27.0781C30.5208 27.0781 30.4426 26.9674 30.4426 26.7461C30.4426 26.6029 30.4687 26.5052 30.5208 26.4531C30.5859 26.388 30.7291 26.3424 30.9504 26.3164C31.1718 26.2904 31.3346 26.2643 31.4387 26.2383C31.595 26.1862 31.6731 26.1016 31.6731 25.9844C31.6731 25.9583 31.6471 25.8932 31.595 25.7891C30.371 24.2656 29.7525 23.4974 29.7395 23.4844C29.7265 23.4844 29.72 23.4844 29.72 23.4844L29.6809 23.4648C29.6288 23.4648 29.401 23.7383 28.9973 24.2852C28.6718 24.7409 28.3788 25.138 28.1184 25.4766C27.9361 25.7109 27.845 25.8802 27.845 25.9844C27.845 26.1797 28.0273 26.2969 28.3918 26.3359C28.7564 26.362 28.9648 26.4076 29.0168 26.4727C29.0429 26.5117 29.0559 26.5833 29.0559 26.6875C29.0559 26.9479 28.9713 27.0781 28.802 27.0781C28.776 27.0781 28.6978 27.0716 28.5676 27.0586C28.4504 27.0456 28.2812 27.0326 28.0598 27.0195C27.8515 27.0065 27.6171 27 27.3567 27C27.1093 27 26.8749 27.0065 26.6536 27.0195C26.4322 27.0326 26.2564 27.0456 26.1262 27.0586C26.009 27.0846 25.9374 27.0977 25.9114 27.0977C25.7812 27.0977 25.7161 26.9609 25.7161 26.6875C25.7161 26.4792 25.8528 26.349 26.1262 26.2969C26.4127 26.2448 26.5819 26.1992 26.634 26.1602C26.6861 26.1211 26.7512 26.0495 26.8293 25.9453C28.3658 23.9141 29.1405 22.8724 29.1536 22.8203C29.1536 22.7812 29.1275 22.7357 29.0754 22.6836C27.539 20.7695 26.7317 19.7734 26.6536 19.6953C26.5234 19.5781 26.3476 19.5065 26.1262 19.4805C25.8788 19.4544 25.7551 19.3047 25.7551 19.0312C25.7551 18.8099 25.8463 18.6992 26.0286 18.6992Z" fill="#E5D7C4"/>
<path d="M38.5676 27.3516C37.4218 27.3516 36.4908 26.9479 35.7747 26.1406C35.0715 25.3333 34.72 24.3047 34.72 23.0547C34.72 21.6875 35.1171 20.5807 35.9114 19.7344C36.7056 18.875 37.7408 18.4453 39.0168 18.4453C39.72 18.4453 40.3189 18.5951 40.8137 18.8945C41.3085 19.194 41.5559 19.5391 41.5559 19.9297C41.5559 20.151 41.4778 20.3333 41.3215 20.4766C41.1653 20.6068 40.9765 20.6719 40.7551 20.6719C40.4687 20.6719 40.0911 20.4766 39.6223 20.0859C39.1666 19.6823 38.7369 19.4805 38.3333 19.4805C37.7213 19.4805 37.1874 19.7865 36.7317 20.3984C36.276 21.0104 36.0481 21.7331 36.0481 22.5664C36.0481 23.5169 36.3476 24.3438 36.9465 25.0469C37.5585 25.737 38.3137 26.082 39.2122 26.082C39.5637 26.082 39.8827 26.0299 40.1692 25.9258C40.4687 25.8086 40.69 25.6849 40.8333 25.5547C40.9895 25.4115 41.1392 25.2878 41.2825 25.1836C41.4387 25.0664 41.5624 25.0078 41.6536 25.0078C41.7447 25.0078 41.8228 25.0404 41.8879 25.1055C41.953 25.1706 41.9856 25.2487 41.9856 25.3398C41.9856 25.444 41.9465 25.5482 41.8684 25.6523C41.5168 26.1341 41.0546 26.5378 40.4817 26.8633C39.9088 27.1888 39.2708 27.3516 38.5676 27.3516Z" fill="#E5D7C4"/>
<path d="M42.4543 22.8789C42.4543 21.5247 42.8124 20.4375 43.5286 19.6172C44.2447 18.7969 45.1171 18.3867 46.1458 18.3867C46.8098 18.3867 47.4478 18.569 48.0598 18.9336C48.6718 19.2982 49.1796 19.7539 49.5833 20.3008C49.6874 20.431 49.7395 20.5742 49.7395 20.7305V20.7695C49.7395 20.8867 49.707 20.9909 49.6418 21.082C49.5767 21.1732 49.4726 21.2578 49.3293 21.3359C49.1861 21.401 49.0624 21.4531 48.9583 21.4922C48.8541 21.5312 48.6978 21.5833 48.4895 21.6484C48.2942 21.7135 48.1705 21.7526 48.1184 21.7656C45.3971 22.7031 44.0038 23.1914 43.9387 23.2305C43.8866 23.2565 43.8606 23.2956 43.8606 23.3477C43.8606 23.4258 43.8801 23.556 43.9192 23.7383C43.9583 23.9206 44.0429 24.1615 44.1731 24.4609C44.3163 24.7604 44.4856 25.0404 44.6809 25.3008C44.8892 25.5482 45.1822 25.7695 45.5598 25.9648C45.9374 26.1471 46.3606 26.2383 46.8293 26.2383C47.7408 26.2383 48.5351 25.9128 49.2122 25.2617C49.3945 25.0794 49.5442 24.9883 49.6614 24.9883C49.8827 24.9883 49.9934 25.0859 49.9934 25.2812C49.9934 25.3594 49.9413 25.4635 49.8372 25.5938C49.4205 26.1406 48.8997 26.5768 48.2747 26.9023C47.6497 27.2148 46.9921 27.3711 46.302 27.3711C45.8593 27.3711 45.4231 27.293 44.9934 27.1367C44.5767 26.9805 44.1666 26.7396 43.7629 26.4141C43.3723 26.0885 43.0533 25.6198 42.8059 25.0078C42.5715 24.3958 42.4543 23.6862 42.4543 22.8789ZM47.8059 20.8086C47.8059 20.6393 47.578 20.3789 47.1223 20.0273C46.6666 19.6628 46.1913 19.4805 45.6965 19.4805C45.1106 19.4805 44.6418 19.7344 44.2903 20.2422C43.9517 20.75 43.7825 21.4466 43.7825 22.332C43.7825 22.4362 43.815 22.4883 43.8801 22.4883C43.9062 22.4883 44.5247 22.2539 45.7356 21.7852C46.9596 21.3034 47.5911 21.056 47.6301 21.043C47.7473 20.9779 47.8059 20.8997 47.8059 20.8086Z" fill="#E5D7C4"/>
<path d="M54.72 26.7266C54.72 26.987 54.6418 27.1172 54.4856 27.1172C54.4726 27.1172 54.427 27.1107 54.3489 27.0977C54.2838 27.0977 54.1926 27.0911 54.0754 27.0781C53.9583 27.0651 53.828 27.0521 53.6848 27.0391C53.5416 27.026 53.3723 27.013 53.177 27C52.9817 27 52.7929 27 52.6106 27C52.4283 27 52.246 27 52.0637 27C51.8814 27.013 51.7187 27.0195 51.5754 27.0195C51.4322 27.0326 51.302 27.0456 51.1848 27.0586C51.0806 27.0716 50.996 27.0781 50.9309 27.0781C50.8658 27.0911 50.8267 27.0977 50.8137 27.0977C50.6184 27.0977 50.5208 26.9805 50.5208 26.7461V26.6875C50.5208 26.5182 50.5598 26.4141 50.6379 26.375C50.7291 26.3229 50.9635 26.2773 51.3411 26.2383C51.5754 26.2122 51.7252 26.1406 51.7903 26.0234C51.8684 25.8932 51.9075 25.7109 51.9075 25.4766V15.3008C51.9075 15.2617 51.901 15.2292 51.8879 15.2031C51.8879 15.1641 51.8814 15.1315 51.8684 15.1055C51.8554 15.0794 51.8424 15.0599 51.8293 15.0469C51.8293 15.0208 51.8098 15.0013 51.7708 14.9883C51.7447 14.9622 51.7187 14.9427 51.6926 14.9297C51.6796 14.9167 51.6405 14.8971 51.5754 14.8711C51.5234 14.832 51.4843 14.806 51.4583 14.793C51.328 14.7148 51.1848 14.6367 51.0286 14.5586C50.8853 14.4674 50.7812 14.4023 50.7161 14.3633C50.664 14.3242 50.6054 14.2852 50.5403 14.2461C50.4752 14.194 50.4296 14.1549 50.4036 14.1289C50.3905 14.0898 50.384 14.0508 50.384 14.0117V13.9922C50.384 13.9271 50.6314 13.7643 51.1262 13.5039C51.7382 13.2044 52.3111 12.9115 52.845 12.625C52.9231 12.5729 53.0077 12.5469 53.0989 12.5469C53.2812 12.5469 53.3723 12.6706 53.3723 12.918V25.5742C53.3723 25.6523 53.3723 25.7174 53.3723 25.7695C53.3853 25.8216 53.3984 25.8737 53.4114 25.9258C53.4244 25.9648 53.4374 25.9974 53.4504 26.0234C53.4635 26.0495 53.4895 26.0755 53.5286 26.1016C53.5806 26.1276 53.6132 26.1471 53.6262 26.1602C53.6523 26.1732 53.6978 26.1927 53.7629 26.2188C53.8411 26.2318 53.8931 26.2448 53.9192 26.2578C53.9583 26.2578 54.0299 26.2643 54.134 26.2773C54.2512 26.2904 54.3359 26.3034 54.3879 26.3164C54.6093 26.3555 54.72 26.4922 54.72 26.7266Z" fill="#E5D7C4"/>
</g>
<defs>
<filter id="filter0_d_85_242" x="0" y="0" width="69.9946" height="50" filterUnits="userSpaceOnUse" color-interpolation-filters="sRGB">
<feFlood flood-opacity="0" result="BackgroundImageFix"/>
<feColorMatrix in="SourceAlpha" type="matrix" values="0 0 0 0 0 0 0 0 0 0 0 0 0 0 0 0 0 0 127 0" result="hardAlpha"/>
<feOffset dy="4"/>
<feGaussianBlur stdDeviation="2"/>
<feComposite in2="hardAlpha" operator="out"/>
<feColorMatrix type="matrix" values="0 0 0 0 0 0 0 0 0 0 0 0 0 0 0 0 0 0 0.25 0"/>
<feBlend mode="normal" in2="BackgroundImageFix" result="effect1_dropShadow_85_242"/>
<feBlend mode="normal" in="SourceGraphic" in2="effect1_dropShadow_85_242" result="shape"/>
</filter>
</defs>
</svg>
