<svg width="130" height="50" viewBox="0 0 130 50" fill="none" xmlns="http://www.w3.org/2000/svg">
<g filter="url(#filter0_d_85_235)">
<path d="M4 21C4.91721 49 125.072 49 125.989 21C125.072 -6.99999 4.91721 -7.00001 4 21Z" fill="#A88C40"/>
<path d="M24.9986 17.332C24.9986 17.3711 24.9921 17.4753 24.9791 17.6445C24.9661 17.8008 24.9531 18.0221 24.94 18.3086C24.927 18.582 24.9205 18.8815 24.9205 19.207C24.9205 19.5456 24.927 19.8581 24.94 20.1445C24.9531 20.418 24.9661 20.6393 24.9791 20.8086C24.9921 20.9648 24.9986 21.056 24.9986 21.082C24.9986 21.4336 24.8163 21.6094 24.4518 21.6094C24.3997 21.6094 24.3541 21.6094 24.315 21.6094C24.276 21.5963 24.2369 21.5768 24.1978 21.5508C24.1718 21.5247 24.1458 21.4987 24.1197 21.4726C24.0937 21.4466 24.0741 21.4075 24.0611 21.3555C24.0481 21.3034 24.0351 21.2513 24.0221 21.1992C24.009 21.1471 23.996 21.0755 23.983 20.9844C23.97 20.8932 23.957 20.8151 23.9439 20.75C23.9439 20.6719 23.9374 20.5677 23.9244 20.4375C23.9114 20.3073 23.8984 20.1901 23.8853 20.0859C23.8723 19.8906 23.7551 19.793 23.5338 19.793H20.2721C20.1419 19.793 20.0377 19.8255 19.9596 19.8906C19.8945 19.9557 19.8554 20.0208 19.8424 20.0859C19.8424 20.151 19.8424 20.2422 19.8424 20.3594V25.3203C19.8424 25.4766 19.8489 25.5937 19.8619 25.6719C19.8879 25.75 19.9596 25.8346 20.0768 25.9258C20.207 26.0039 20.4023 26.0495 20.6627 26.0625C20.7929 26.0625 20.9296 26.0625 21.0728 26.0625C21.2161 26.0625 21.3268 26.0625 21.4049 26.0625C21.496 26.0625 21.5937 26.069 21.6978 26.082C21.802 26.082 21.8801 26.0885 21.9322 26.1016C21.9973 26.1016 22.0559 26.1081 22.108 26.1211C22.1731 26.1211 22.2187 26.1341 22.2447 26.1601C22.2838 26.1862 22.3163 26.2122 22.3424 26.2383C22.3684 26.2643 22.3879 26.3034 22.401 26.3555C22.414 26.3945 22.4205 26.4466 22.4205 26.5117V26.707C22.4205 26.9805 22.3033 27.1172 22.0689 27.1172L21.6978 27.0781C21.4374 27.0651 21.0924 27.0456 20.6627 27.0195C20.233 27.0065 19.8033 27 19.3736 27C19.1002 27 18.8202 27 18.5338 27C18.2603 27.013 18.0195 27.026 17.8111 27.0391C17.6028 27.0521 17.414 27.0651 17.2447 27.0781C17.0754 27.0911 16.9387 27.0976 16.8346 27.0976C16.7434 27.1107 16.6913 27.1172 16.6783 27.1172C16.3658 27.1172 16.2096 26.9674 16.2096 26.668C16.2096 26.5898 16.2161 26.5247 16.2291 26.4726C16.2421 26.4075 16.2616 26.3555 16.2877 26.3164C16.3268 26.2773 16.3593 26.2513 16.3853 26.2383C16.4114 26.2122 16.4635 26.1927 16.5416 26.1797C16.6327 26.1667 16.7044 26.1601 16.7564 26.1601C16.8085 26.1471 16.8997 26.1406 17.0299 26.1406C17.1601 26.1276 17.2708 26.1146 17.3619 26.1016C17.6093 26.0755 17.7656 26.0169 17.8307 25.9258C17.9088 25.8216 17.9478 25.6719 17.9478 25.4766V14.8711C17.9478 14.793 17.9413 14.7279 17.9283 14.6758C17.9283 14.6237 17.9153 14.5781 17.8893 14.5391C17.8762 14.5 17.8567 14.4674 17.8307 14.4414C17.8176 14.4154 17.7851 14.3958 17.733 14.3828C17.6809 14.3568 17.6353 14.3372 17.5963 14.3242C17.5702 14.3112 17.5116 14.3047 17.4205 14.3047C17.3424 14.2917 17.2773 14.2851 17.2252 14.2851C17.1731 14.2851 17.082 14.2851 16.9518 14.2851C16.8346 14.2721 16.7369 14.2656 16.6588 14.2656C16.3463 14.2656 16.19 14.1224 16.19 13.8359C16.19 13.4323 16.3137 13.2305 16.5611 13.2305C16.6002 13.2305 16.6913 13.2435 16.8346 13.2695C16.9778 13.2825 17.1731 13.2956 17.4205 13.3086C17.6809 13.3216 17.9544 13.3281 18.2408 13.3281C18.4622 13.3281 18.9635 13.3216 19.7447 13.3086C20.526 13.2825 21.1054 13.2695 21.483 13.2695H25.3697C25.7343 13.2695 25.9557 13.4323 26.0338 13.7578C26.0598 13.888 26.1119 14.1354 26.19 14.5C26.2812 14.8646 26.3528 15.1836 26.4049 15.457C26.47 15.7174 26.5025 15.8672 26.5025 15.9062C26.5025 16.0364 26.4635 16.1471 26.3853 16.2383C26.3072 16.3164 26.2096 16.3555 26.0924 16.3555C25.871 16.3555 25.552 15.9713 25.1353 15.2031C25.0051 14.9948 24.9075 14.8255 24.8424 14.6953C24.7382 14.526 24.6406 14.4154 24.5494 14.3633C24.4583 14.3112 24.3215 14.2851 24.1393 14.2851H20.4478C20.2786 14.2851 20.1484 14.3242 20.0572 14.4023C19.9661 14.4805 19.914 14.5651 19.901 14.6562C19.8879 14.7344 19.8814 14.8516 19.8814 15.0078V18.3476C19.8814 18.543 19.9791 18.6406 20.1744 18.6406H23.5143C23.5663 18.6406 23.6054 18.6406 23.6314 18.6406C23.6705 18.6276 23.7031 18.6146 23.7291 18.6016C23.7682 18.5885 23.7942 18.5755 23.8072 18.5625C23.8202 18.5495 23.8333 18.5234 23.8463 18.4844C23.8723 18.4453 23.8919 18.4128 23.9049 18.3867C23.9179 18.3476 23.9309 18.2956 23.9439 18.2305C23.957 18.1523 23.9635 18.0872 23.9635 18.0351C23.9765 17.97 23.9895 17.8854 24.0025 17.7812C24.0286 17.6641 24.0481 17.5599 24.0611 17.4687C24.1132 17.1042 24.2695 16.9219 24.5299 16.9219C24.6601 16.9219 24.7708 16.9609 24.8619 17.0391C24.9531 17.1172 24.9986 17.2148 24.9986 17.332Z" fill="#E5D7C4"/>
<path d="M28.6705 24.5781C28.6705 23.901 28.6705 23.2695 28.6705 22.6836C28.6705 22.0976 28.6705 21.6419 28.6705 21.3164C28.6835 20.9779 28.69 20.776 28.69 20.7109C28.69 20.5677 28.6379 20.47 28.5338 20.418C28.4426 20.3529 28.0455 20.1771 27.3424 19.8906C27.1731 19.8255 27.0885 19.7409 27.0885 19.6367C27.0885 19.5976 27.095 19.5586 27.108 19.5195C27.134 19.4805 27.1666 19.4479 27.2057 19.4219C27.2577 19.3958 27.3033 19.3763 27.3424 19.3633C27.3814 19.3372 27.4335 19.3112 27.4986 19.2851C27.5637 19.2591 27.6093 19.2396 27.6353 19.2266C29.0937 18.5234 29.8294 18.1719 29.8424 18.1719H29.8619C30.0442 18.1719 30.1353 18.2825 30.1353 18.5039L30.1158 19.1484C30.0898 19.5781 30.0637 20.1575 30.0377 20.8867C30.0247 21.6029 30.0182 22.319 30.0182 23.0351V23.6992C30.0182 24.9362 30.0377 25.6654 30.0768 25.8867C30.1158 26.1081 30.246 26.2318 30.4674 26.2578C30.858 26.3099 31.1054 26.3555 31.2096 26.3945C31.3137 26.4336 31.3658 26.5312 31.3658 26.6875C31.3658 26.9739 31.2877 27.1172 31.1314 27.1172C31.1184 27.1172 31.0794 27.1107 31.0143 27.0976C30.9491 27.0976 30.858 27.0911 30.7408 27.0781C30.6236 27.0651 30.4934 27.0521 30.3502 27.0391C30.207 27.026 30.0377 27.013 29.8424 27C29.6601 27 29.4778 27 29.2955 27C29.1132 27 28.9244 27 28.7291 27C28.5338 27.013 28.3645 27.026 28.2213 27.0391C28.0911 27.0521 27.9674 27.0651 27.8502 27.0781C27.733 27.0911 27.6419 27.0976 27.5768 27.0976C27.5116 27.1107 27.4726 27.1172 27.4596 27.1172C27.2512 27.1172 27.1471 27.0065 27.1471 26.7851C27.1471 26.5638 27.1861 26.4336 27.2643 26.3945C27.3554 26.3555 27.6484 26.3034 28.1432 26.2383C28.3775 26.1992 28.5208 26.1276 28.5728 26.0234C28.6379 25.9062 28.6705 25.737 28.6705 25.5156V24.5781ZM28.8658 14.6367C28.8658 14.3763 28.9635 14.1549 29.1588 13.9726C29.3541 13.7904 29.582 13.6992 29.8424 13.6992C30.1028 13.6992 30.3241 13.7904 30.5064 13.9726C30.7018 14.1549 30.7994 14.3698 30.7994 14.6172C30.7994 14.8906 30.7018 15.1185 30.5064 15.3008C30.3241 15.4831 30.0963 15.5742 29.8228 15.5742C29.5494 15.5742 29.3215 15.4896 29.1393 15.3203C28.957 15.138 28.8658 14.9101 28.8658 14.6367Z" fill="#E5D7C4"/>
<path d="M34.4518 19.4609C34.4518 19.513 34.4713 19.5391 34.5103 19.5391H34.5299C34.5429 19.5391 34.5885 19.5 34.6666 19.4219C34.7577 19.3437 34.8814 19.2461 35.0377 19.1289C35.1939 19.0117 35.3762 18.8945 35.5846 18.7773C35.7929 18.6601 36.0468 18.5625 36.3463 18.4844C36.6458 18.3932 36.9583 18.3476 37.2838 18.3476H37.3228C37.5963 18.3476 37.8632 18.3867 38.1236 18.4648C38.3971 18.5299 38.6835 18.6601 38.983 18.8555C39.2955 19.0378 39.5559 19.3307 39.7643 19.7344C39.9726 20.138 40.1028 20.6328 40.1549 21.2187C40.1809 21.4401 40.1939 21.7786 40.1939 22.2344C40.1939 22.2864 40.1939 22.4167 40.1939 22.625C40.1939 22.8203 40.1874 23.1784 40.1744 23.6992C40.1744 24.22 40.1744 24.8841 40.1744 25.6914V25.7305C40.1744 25.7956 40.1809 25.8607 40.1939 25.9258C40.207 25.9779 40.2135 26.0234 40.2135 26.0625C40.2265 26.0885 40.2525 26.1211 40.2916 26.1601C40.3307 26.1862 40.3567 26.2057 40.3697 26.2187C40.3958 26.2318 40.4413 26.2513 40.5064 26.2773C40.5846 26.2904 40.6366 26.2969 40.6627 26.2969C40.7018 26.2969 40.7734 26.3034 40.8775 26.3164C40.9947 26.3294 41.0794 26.3424 41.1314 26.3555C41.3268 26.3815 41.4244 26.5052 41.4244 26.7266C41.4244 26.987 41.3202 27.1172 41.1119 27.1172C41.0728 27.1172 40.9817 27.1042 40.8385 27.0781C40.6952 27.0651 40.4934 27.0456 40.233 27.0195C39.9856 27.0065 39.7187 27 39.4322 27C39.263 27 39.0937 27 38.9244 27C38.7551 27.013 38.6054 27.026 38.4752 27.0391C38.358 27.0521 38.2473 27.0651 38.1432 27.0781C38.039 27.0911 37.9544 27.1042 37.8893 27.1172H37.7916C37.6093 27.1172 37.5182 26.987 37.5182 26.7266C37.5182 26.5833 37.5572 26.4922 37.6353 26.4531C37.7135 26.4141 37.9218 26.3685 38.2603 26.3164C38.3775 26.2904 38.4752 26.2708 38.5533 26.2578C38.6835 26.2318 38.7682 26.1927 38.8072 26.1406C38.8593 26.0755 38.8853 25.9583 38.8853 25.7891V22.6836C38.8853 21.707 38.7942 20.9844 38.6119 20.5156C38.4166 20.0729 38.1236 19.7669 37.733 19.5976C37.3424 19.4154 36.9713 19.3242 36.6197 19.3242C36.1119 19.3242 35.6562 19.4805 35.2525 19.793C34.8489 20.1055 34.621 20.3789 34.5689 20.6133C34.5429 20.7174 34.5299 20.8086 34.5299 20.8867V25.6719C34.5299 26.0104 34.6796 26.1992 34.9791 26.2383C35.565 26.3294 35.884 26.401 35.9361 26.4531C36.0143 26.5182 36.0533 26.6289 36.0533 26.7851C36.0533 27.0195 35.9687 27.1367 35.7994 27.1367C35.7864 27.1367 35.7408 27.1302 35.6627 27.1172C35.5976 27.1172 35.5064 27.1107 35.3893 27.0976C35.2721 27.0846 35.1419 27.0651 34.9986 27.0391C34.8554 27.026 34.6861 27.013 34.4908 27C34.3085 27 34.1262 27 33.9439 27C33.7616 27 33.5794 27 33.3971 27C33.2148 27.013 33.052 27.026 32.9088 27.0391C32.7786 27.0521 32.6614 27.0651 32.5572 27.0781C32.4531 27.0911 32.3684 27.0976 32.3033 27.0976C32.2382 27.1107 32.1991 27.1172 32.1861 27.1172C31.9648 27.1172 31.8541 27 31.8541 26.7656C31.8541 26.5833 31.8932 26.4726 31.9713 26.4336C32.0624 26.3815 32.2838 26.3294 32.6353 26.2773C32.8697 26.2383 33.0129 26.1667 33.065 26.0625C33.1301 25.9583 33.1627 25.8021 33.1627 25.5937V20.8281C33.1627 20.5937 33.1301 20.4375 33.065 20.3594C32.9999 20.2682 32.733 20.0469 32.2643 19.6953C32.1861 19.6172 32.1471 19.5521 32.1471 19.5V19.4805C32.1471 19.4154 32.1926 19.3568 32.2838 19.3047C32.3749 19.2396 32.6549 19.0833 33.1236 18.8359C33.4882 18.6406 33.7942 18.4779 34.0416 18.3476C34.1197 18.2956 34.1848 18.2695 34.2369 18.2695C34.3932 18.2695 34.4713 18.3672 34.4713 18.5625V19.3437C34.4713 19.3568 34.4648 19.3828 34.4518 19.4219V19.4609Z" fill="#E5D7C4"/>
<path d="M42.1861 20.1055C42.1861 19.7148 42.4986 19.3242 43.1236 18.9336C43.7616 18.5299 44.4713 18.3281 45.2525 18.3281C45.4999 18.3281 45.7538 18.3542 46.0143 18.4062C46.2747 18.4583 46.5676 18.5495 46.8932 18.6797C47.2317 18.8099 47.5116 19.0378 47.733 19.3633C47.9674 19.6758 48.1106 20.0599 48.1627 20.5156C48.1887 20.8281 48.2018 21.069 48.2018 21.2383V25.1836C48.2018 25.418 48.2473 25.6068 48.3385 25.75C48.4296 25.8932 48.5208 25.9844 48.6119 26.0234C48.7031 26.0495 48.7942 26.0625 48.8853 26.0625C49.0676 26.0625 49.2109 26.0104 49.315 25.9062C49.4192 25.7891 49.4973 25.6784 49.5494 25.5742C49.6145 25.457 49.6861 25.3984 49.7643 25.3984C49.8814 25.3984 49.94 25.4831 49.94 25.6523C49.94 25.9648 49.7968 26.3099 49.5103 26.6875C49.2239 27.0521 48.8528 27.2344 48.3971 27.2344C48.2278 27.2344 48.065 27.2083 47.9088 27.1562C47.7525 27.1042 47.6223 27.0391 47.5182 26.9609C47.414 26.8698 47.3163 26.7851 47.2252 26.707C47.1471 26.6289 47.082 26.5573 47.0299 26.4922L46.9713 26.4141C46.9583 26.4141 46.9518 26.4141 46.9518 26.4141C46.9518 26.401 46.9452 26.3945 46.9322 26.3945C46.9062 26.3945 46.8866 26.4075 46.8736 26.4336C46.8606 26.4596 46.815 26.5117 46.7369 26.5898C46.6588 26.668 46.5481 26.7526 46.4049 26.8437C45.8189 27.2083 45.2005 27.3906 44.5494 27.3906C43.8723 27.3906 43.3189 27.1758 42.8893 26.7461C42.4726 26.3164 42.2643 25.7891 42.2643 25.1641V25.1445C42.2643 24.3893 42.5442 23.7969 43.1041 23.3672C43.2994 23.2109 43.5533 23.0742 43.8658 22.957C44.1783 22.8268 44.4843 22.7292 44.7838 22.6641C45.0963 22.5989 45.3893 22.5469 45.6627 22.5078C45.9361 22.4557 46.164 22.4232 46.3463 22.4101L46.6197 22.3906C46.7239 22.3646 46.776 22.2734 46.776 22.1172V21.3945C46.776 20.7044 46.6197 20.1706 46.3072 19.793C45.9817 19.4414 45.5911 19.2656 45.1353 19.2656C44.4322 19.2656 43.8593 19.7083 43.4166 20.5937C43.2994 20.75 43.1562 20.8281 42.9869 20.8281C42.7786 20.8281 42.5898 20.763 42.4205 20.6328C42.2643 20.5026 42.1861 20.3268 42.1861 20.1055ZM45.0182 26.2969C45.3176 26.2969 45.5976 26.2318 45.858 26.1016C46.1314 25.9713 46.3202 25.8542 46.4244 25.75C46.5286 25.6458 46.6132 25.5547 46.6783 25.4766C46.7564 25.3724 46.7955 25.2226 46.7955 25.0273V23.7187C46.7955 23.4713 46.7825 23.3151 46.7564 23.25C46.7434 23.1719 46.6913 23.1328 46.6002 23.1328C46.2747 23.1328 45.8645 23.1849 45.3697 23.2891C44.888 23.3932 44.5038 23.582 44.2174 23.8555C43.9049 24.1159 43.7486 24.4805 43.7486 24.9492C43.7486 25.444 43.8853 25.8086 44.1588 26.043C44.3411 26.2122 44.6275 26.2969 45.0182 26.2969Z" fill="#E5D7C4"/>
<path d="M54.608 26.7266C54.608 26.987 54.5299 27.1172 54.3736 27.1172C54.3606 27.1172 54.315 27.1107 54.2369 27.0976C54.1718 27.0976 54.0807 27.0911 53.9635 27.0781C53.8463 27.0651 53.7161 27.0521 53.5728 27.0391C53.4296 27.026 53.2603 27.013 53.065 27C52.8697 27 52.6809 27 52.4986 27C52.3163 27 52.134 27 51.9518 27C51.7695 27.013 51.6067 27.0195 51.4635 27.0195C51.3202 27.0325 51.19 27.0456 51.0728 27.0586C50.9687 27.0716 50.884 27.0781 50.8189 27.0781C50.7538 27.0911 50.7148 27.0976 50.7018 27.0976C50.5064 27.0976 50.4088 26.9805 50.4088 26.7461V26.6875C50.4088 26.5182 50.4478 26.4141 50.526 26.375C50.6171 26.3229 50.8515 26.2773 51.2291 26.2383C51.4635 26.2122 51.6132 26.1406 51.6783 26.0234C51.7564 25.8932 51.7955 25.7109 51.7955 25.4766V15.3008C51.7955 15.2617 51.789 15.2292 51.776 15.2031C51.776 15.1641 51.7695 15.1315 51.7564 15.1055C51.7434 15.0794 51.7304 15.0599 51.7174 15.0469C51.7174 15.0208 51.6978 15.0013 51.6588 14.9883C51.6327 14.9622 51.6067 14.9427 51.5807 14.9297C51.5676 14.9167 51.5286 14.8971 51.4635 14.8711C51.4114 14.832 51.3723 14.806 51.3463 14.793C51.2161 14.7148 51.0728 14.6367 50.9166 14.5586C50.7734 14.4674 50.6692 14.4023 50.6041 14.3633C50.552 14.3242 50.4934 14.2851 50.4283 14.2461C50.3632 14.194 50.3176 14.1549 50.2916 14.1289C50.2786 14.0898 50.2721 14.0508 50.2721 14.0117V13.9922C50.2721 13.9271 50.5195 13.7643 51.0143 13.5039C51.6262 13.2044 52.1991 12.9114 52.733 12.625C52.8111 12.5729 52.8958 12.5469 52.9869 12.5469C53.1692 12.5469 53.2603 12.6706 53.2603 12.918V25.5742C53.2603 25.6523 53.2603 25.7174 53.2603 25.7695C53.2734 25.8216 53.2864 25.8737 53.2994 25.9258C53.3124 25.9648 53.3255 25.9974 53.3385 26.0234C53.3515 26.0495 53.3775 26.0755 53.4166 26.1016C53.4687 26.1276 53.5012 26.1471 53.5143 26.1601C53.5403 26.1732 53.5859 26.1927 53.651 26.2187C53.7291 26.2318 53.7812 26.2448 53.8072 26.2578C53.8463 26.2578 53.9179 26.2643 54.0221 26.2773C54.1393 26.2904 54.2239 26.3034 54.276 26.3164C54.4973 26.3555 54.608 26.4922 54.608 26.7266Z" fill="#E5D7C4"/>
<path d="M64.0025 27.3516C62.8567 27.3516 61.9257 26.9479 61.2096 26.1406C60.5064 25.3333 60.1549 24.3047 60.1549 23.0547C60.1549 21.6875 60.552 20.5807 61.3463 19.7344C62.1406 18.875 63.1757 18.4453 64.4518 18.4453C65.1549 18.4453 65.7538 18.595 66.2486 18.8945C66.7434 19.194 66.9908 19.5391 66.9908 19.9297C66.9908 20.151 66.9127 20.3333 66.7564 20.4766C66.6002 20.6068 66.4114 20.6719 66.19 20.6719C65.9036 20.6719 65.526 20.4766 65.0572 20.0859C64.6015 19.6823 64.1718 19.4805 63.7682 19.4805C63.1562 19.4805 62.6223 19.7864 62.1666 20.3984C61.7109 21.0104 61.483 21.7331 61.483 22.5664C61.483 23.5169 61.7825 24.3437 62.3814 25.0469C62.9934 25.737 63.7486 26.082 64.6471 26.082C64.9986 26.082 65.3176 26.0299 65.6041 25.9258C65.9036 25.8086 66.1249 25.6849 66.2682 25.5547C66.4244 25.4114 66.5741 25.2878 66.7174 25.1836C66.8736 25.0664 66.9973 25.0078 67.0885 25.0078C67.1796 25.0078 67.2577 25.0404 67.3228 25.1055C67.388 25.1706 67.4205 25.2487 67.4205 25.3398C67.4205 25.444 67.3814 25.5482 67.3033 25.6523C66.9518 26.1341 66.4895 26.5378 65.9166 26.8633C65.3437 27.1888 64.7057 27.3516 64.0025 27.3516Z" fill="#E5D7C4"/>
<path d="M74.6275 26.3359C74.6145 26.3359 74.5559 26.375 74.4518 26.4531C74.3606 26.5182 74.2304 26.6029 74.0611 26.707C73.9049 26.7982 73.7226 26.8958 73.5143 27C73.3059 27.0911 73.052 27.1693 72.7525 27.2344C72.4531 27.3125 72.1471 27.3516 71.8346 27.3516C71.0143 27.3516 70.3307 27.0976 69.7838 26.5898C69.2369 26.082 68.9049 25.3724 68.7877 24.4609C68.7486 24.0703 68.7291 23.6601 68.7291 23.2305C68.7291 22.9831 68.7291 22.4101 68.7291 21.5117C68.7421 20.6003 68.7486 20.1055 68.7486 20.0273C68.7486 19.7799 68.5663 19.5911 68.2018 19.4609C68.1367 19.4349 68.0325 19.4023 67.8893 19.3633C67.759 19.3242 67.6744 19.2851 67.6353 19.2461C67.5963 19.207 67.5768 19.1354 67.5768 19.0312V18.9726C67.5768 18.8034 67.6484 18.7122 67.7916 18.6992C69.1197 18.6211 69.8163 18.582 69.8814 18.582C70.0117 18.582 70.0768 18.6601 70.0768 18.8164V22.918C70.0768 23.7904 70.2004 24.4805 70.4478 24.9883C70.6301 25.3398 70.9036 25.6523 71.2682 25.9258C71.6458 26.1862 72.0754 26.3164 72.5572 26.3164C73.2083 26.3164 73.7747 26.0755 74.2564 25.5937C74.2825 25.5547 74.315 25.5156 74.3541 25.4766C74.4062 25.4245 74.4387 25.3919 74.4518 25.3789C74.4648 25.3529 74.4843 25.3268 74.5103 25.3008C74.5364 25.2747 74.5494 25.2552 74.5494 25.2422C74.5624 25.2161 74.5754 25.1901 74.5885 25.1641C74.6015 25.138 74.608 25.1185 74.608 25.1055C74.608 25.0794 74.608 25.0469 74.608 25.0078V20.0859C74.608 19.7995 74.4778 19.6172 74.2174 19.5391C74.1523 19.513 73.8398 19.4544 73.2799 19.3633C73.0846 19.3242 72.9869 19.2135 72.9869 19.0312C72.9869 18.8359 73.0781 18.7253 73.2603 18.6992C73.69 18.6862 74.0742 18.6732 74.4127 18.6601C74.7643 18.6471 75.0051 18.6406 75.1353 18.6406C75.2786 18.6276 75.3958 18.6211 75.4869 18.6211C75.5911 18.6211 75.6692 18.6211 75.7213 18.6211C75.9166 18.6211 76.0143 18.7513 76.0143 19.0117V25.2812C76.0143 25.3203 76.0143 25.3529 76.0143 25.3789C76.0273 25.3919 76.0403 25.4114 76.0533 25.4375C76.0794 25.4505 76.1054 25.4635 76.1314 25.4766C76.1575 25.4896 76.1965 25.5091 76.2486 25.5351C76.3007 25.5612 76.3593 25.5872 76.4244 25.6133C76.4895 25.6393 76.5742 25.6784 76.6783 25.7305C76.7825 25.7825 76.8932 25.8346 77.0103 25.8867C77.1275 25.9388 77.1861 26.0169 77.1861 26.1211C77.1861 26.2643 77.1536 26.362 77.0885 26.4141C77.0364 26.4661 76.9518 26.5052 76.8346 26.5312C76.7174 26.5443 76.5025 26.6094 76.19 26.7266C75.8775 26.8307 75.539 26.987 75.1744 27.1953C75.0963 27.2474 75.0247 27.2734 74.9596 27.2734C74.7773 27.2734 74.6861 27.1432 74.6861 26.8828V26.4141C74.6861 26.362 74.6666 26.3359 74.6275 26.3359Z" fill="#E5D7C4"/>
<path d="M78.3385 19.6953C78.065 19.6953 77.9283 19.6107 77.9283 19.4414C77.9283 19.3633 78.0195 19.2461 78.2018 19.0898C78.3971 18.9206 78.6705 18.6471 79.0221 18.2695C79.3736 17.8789 79.7057 17.4232 80.0182 16.9023C80.1614 16.6549 80.2916 16.5312 80.4088 16.5312C80.5911 16.5312 80.6822 16.6419 80.6822 16.8633C80.6822 16.9544 80.6757 17.1888 80.6627 17.5664C80.6627 17.944 80.6627 18.1784 80.6627 18.2695C80.6627 18.5299 80.7929 18.6601 81.0533 18.6601H82.8502C82.8762 18.6601 82.9088 18.6667 82.9478 18.6797C82.9869 18.6797 83.0129 18.6797 83.026 18.6797C83.3645 18.6797 83.5338 18.8034 83.5338 19.0508C83.5338 19.2982 83.4752 19.4935 83.358 19.6367C83.2929 19.7018 83.1757 19.7344 83.0064 19.7344H80.6627C80.5325 19.7344 80.4674 19.7995 80.4674 19.9297C80.4674 21.0104 80.4609 21.9088 80.4478 22.625C80.4478 23.3411 80.4413 23.8229 80.4283 24.0703C80.4283 24.3177 80.4283 24.4935 80.4283 24.5976C80.4283 25.5872 80.7734 26.082 81.4635 26.082C81.7369 26.082 82.0234 25.9844 82.3228 25.7891C82.6223 25.5807 82.8827 25.3789 83.1041 25.1836C83.3385 24.9753 83.5143 24.8711 83.6314 24.8711C83.7356 24.8711 83.8202 24.9101 83.8853 24.9883C83.9635 25.0664 84.0025 25.151 84.0025 25.2422C84.0025 25.3203 83.957 25.431 83.8658 25.5742C82.8111 26.7721 81.8801 27.3711 81.0728 27.3711C80.5911 27.3711 80.1484 27.1823 79.7447 26.8047C79.3541 26.4141 79.1262 25.7956 79.0611 24.9492C79.0481 24.806 79.0416 24.5911 79.0416 24.3047C79.0416 23.9792 79.0546 23.1914 79.0807 21.9414C79.1067 20.6784 79.1197 19.9883 79.1197 19.8711C79.1197 19.7539 79.0742 19.6953 78.983 19.6953H78.3385Z" fill="#E5D7C4"/>
<path d="M98.69 17.0391C98.69 16.1797 98.2864 15.4635 97.4791 14.8906C96.6848 14.3177 95.6041 14.0312 94.2369 14.0312C93.7161 14.0312 93.384 14.0508 93.2408 14.0898C93.0976 14.1289 93.026 14.2135 93.026 14.3437V20.0469C93.026 20.151 93.0585 20.2161 93.1236 20.2422C93.2018 20.2682 93.4101 20.2812 93.7486 20.2812C95.22 20.2812 96.4114 19.9818 97.3228 19.3828C98.2343 18.7838 98.69 18.0026 98.69 17.0391ZM90.565 13.3476C91.2291 13.3476 92.0754 13.3151 93.1041 13.25C94.1327 13.1719 94.8684 13.1328 95.3111 13.1328C97.0169 13.1328 98.3189 13.5364 99.2174 14.3437C99.9856 15.0469 100.37 15.9128 100.37 16.9414V16.9609C100.357 17.6771 100.161 18.3151 99.7838 18.875C99.4062 19.4219 98.9244 19.8516 98.3385 20.1641C97.3749 20.7109 95.8775 20.9844 93.8463 20.9844H93.2408C93.0715 20.9844 92.9869 21.0885 92.9869 21.2969V25.3594C92.9869 25.5937 93.026 25.7695 93.1041 25.8867C93.1952 25.9909 93.3645 26.0495 93.6119 26.0625C94.7968 26.1146 95.4283 26.1536 95.5064 26.1797C95.6887 26.2318 95.7799 26.3815 95.7799 26.6289V26.6484C95.7799 26.9609 95.6497 27.1172 95.3893 27.1172L94.9986 27.0781C94.7382 27.0651 94.3867 27.0456 93.9439 27.0195C93.5012 27.0065 93.065 27 92.6353 27C92.1926 27 91.7499 27.0065 91.3072 27.0195C90.8645 27.0456 90.5129 27.0651 90.2525 27.0781L89.8619 27.1172C89.5885 27.1172 89.4518 26.9609 89.4518 26.6484C89.4518 26.5963 89.4518 26.5508 89.4518 26.5117C89.4648 26.4596 89.4713 26.4206 89.4713 26.3945C89.4843 26.3555 89.5038 26.3229 89.5299 26.2969C89.5559 26.2708 89.5754 26.2513 89.5885 26.2383C89.6145 26.2122 89.6471 26.1927 89.6861 26.1797C89.7382 26.1667 89.7773 26.1601 89.8033 26.1601C89.8424 26.1471 89.8945 26.1406 89.9596 26.1406C90.0377 26.1276 90.1028 26.1211 90.1549 26.1211C90.22 26.1081 90.3046 26.1016 90.4088 26.1016C90.5129 26.0885 90.6106 26.0755 90.7018 26.0625C90.9231 26.0364 91.0663 25.9844 91.1314 25.9062C91.2096 25.8151 91.2486 25.6849 91.2486 25.5156V14.8125C91.2486 14.7083 91.2421 14.6302 91.2291 14.5781C91.2291 14.513 91.19 14.4544 91.1119 14.4023C91.0468 14.3372 90.9492 14.3047 90.8189 14.3047H90.0963C90.0051 14.3047 89.9335 14.2982 89.8814 14.2851C89.8294 14.2721 89.7708 14.2266 89.7057 14.1484C89.6536 14.0573 89.6275 13.9336 89.6275 13.7773C89.6275 13.4909 89.7708 13.3476 90.0572 13.3476H90.565Z" fill="#E5D7C4"/>
<path d="M103.495 19.4609C103.508 19.4609 103.651 19.3698 103.924 19.1875C104.198 18.9922 104.504 18.7838 104.842 18.5625C105.181 18.3411 105.428 18.2044 105.585 18.1523C105.741 18.1003 105.936 18.0742 106.171 18.0742C106.535 18.0742 106.887 18.1588 107.225 18.3281C107.564 18.4844 107.733 18.6927 107.733 18.9531V18.9726C107.733 19.0508 107.707 19.1289 107.655 19.207C107.603 19.2851 107.557 19.3437 107.518 19.3828C107.479 19.4219 107.414 19.4805 107.323 19.5586L107.186 19.6758C107.173 19.6758 107.101 19.7279 106.971 19.832C106.854 19.9232 106.75 19.9883 106.659 20.0273C106.568 20.0664 106.47 20.0859 106.366 20.0859C106.21 20.0859 106.027 20.0013 105.819 19.832C105.624 19.6628 105.409 19.5781 105.174 19.5781C104.888 19.5781 104.582 19.6823 104.256 19.8906C103.931 20.0989 103.723 20.2682 103.631 20.3984C103.579 20.4766 103.553 20.6003 103.553 20.7695V25.6328C103.553 26.0104 103.716 26.2122 104.042 26.2383C104.172 26.2513 104.348 26.2643 104.569 26.2773C104.973 26.3034 105.226 26.3424 105.331 26.3945C105.448 26.4336 105.506 26.5443 105.506 26.7266C105.506 26.987 105.415 27.1172 105.233 27.1172C105.22 27.1172 105.174 27.1107 105.096 27.0976C105.031 27.0976 104.934 27.0911 104.803 27.0781C104.673 27.0651 104.53 27.0521 104.374 27.0391C104.217 27.026 104.029 27.013 103.807 27C103.599 27 103.397 27 103.202 27C102.993 27 102.785 27 102.577 27C102.368 27.013 102.18 27.026 102.01 27.0391C101.854 27.0521 101.711 27.0651 101.581 27.0781C101.463 27.0911 101.366 27.0976 101.288 27.0976C101.223 27.1107 101.184 27.1172 101.171 27.1172C100.949 27.1172 100.838 27.0065 100.838 26.7851C100.838 26.668 100.865 26.5833 100.917 26.5312C100.969 26.4661 101.021 26.4271 101.073 26.4141C101.125 26.388 101.223 26.3685 101.366 26.3555C101.522 26.3294 101.646 26.3034 101.737 26.2773C101.984 26.2253 102.108 26.069 102.108 25.8086V20.4961C102.108 20.418 102.101 20.3594 102.088 20.3203C102.075 20.2682 102.036 20.2161 101.971 20.1641C101.919 20.0989 101.861 20.0469 101.796 20.0078C101.743 19.9687 101.633 19.8906 101.463 19.7734C101.294 19.6562 101.138 19.5456 100.995 19.4414C100.956 19.4023 100.93 19.3568 100.917 19.3047C100.917 19.2526 101.184 19.1029 101.717 18.8555C102.199 18.6211 102.635 18.4062 103.026 18.2109C103.039 18.2109 103.059 18.2044 103.085 18.1914C103.137 18.1654 103.176 18.1523 103.202 18.1523C103.358 18.1523 103.436 18.2891 103.436 18.5625V19.3633C103.436 19.4284 103.456 19.4609 103.495 19.4609Z" fill="#E5D7C4"/>
<path d="M108.182 22.918C108.182 21.5768 108.605 20.4831 109.452 19.6367C110.311 18.7904 111.327 18.3672 112.499 18.3672C113.697 18.3672 114.693 18.7969 115.487 19.6562C116.281 20.5026 116.678 21.5898 116.678 22.918C116.678 24.2851 116.262 25.3724 115.428 26.1797C114.608 26.9739 113.605 27.3711 112.421 27.3711C111.171 27.3711 110.148 26.9414 109.354 26.082C108.573 25.2226 108.182 24.168 108.182 22.918ZM110.487 25.3984C110.995 26.0625 111.659 26.3945 112.479 26.3945C113.299 26.3945 113.976 26.0625 114.51 25.3984C115.044 24.7213 115.311 23.9206 115.311 22.9961C115.311 21.9544 115.012 21.082 114.413 20.3789C113.827 19.6628 113.143 19.3047 112.362 19.3047C111.711 19.3047 111.105 19.5911 110.546 20.1641C109.999 20.737 109.725 21.6224 109.725 22.8203C109.725 23.862 109.979 24.7213 110.487 25.3984Z" fill="#E5D7C4"/>
</g>
<defs>
<filter id="filter0_d_85_235" x="0" y="0" width="129.989" height="50" filterUnits="userSpaceOnUse" color-interpolation-filters="sRGB">
<feFlood flood-opacity="0" result="BackgroundImageFix"/>
<feColorMatrix in="SourceAlpha" type="matrix" values="0 0 0 0 0 0 0 0 0 0 0 0 0 0 0 0 0 0 127 0" result="hardAlpha"/>
<feOffset dy="4"/>
<feGaussianBlur stdDeviation="2"/>
<feComposite in2="hardAlpha" operator="out"/>
<feColorMatrix type="matrix" values="0 0 0 0 0 0 0 0 0 0 0 0 0 0 0 0 0 0 0.25 0"/>
<feBlend mode="normal" in2="BackgroundImageFix" result="effect1_dropShadow_85_235"/>
<feBlend mode="normal" in="SourceGraphic" in2="effect1_dropShadow_85_235" result="shape"/>
</filter>
</defs>
</svg>
