<svg width="132" height="50" viewBox="0 0 132 50" fill="none" xmlns="http://www.w3.org/2000/svg">
<g filter="url(#filter0_d_85_245)">
<path d="M3.99999 21C4.93224 49 127.057 49 127.989 21C127.057 -6.99999 4.93224 -7.00001 3.99999 21Z" fill="#A88C40"/>
<path d="M18.9009 29C18.6535 29 18.4061 29 18.1587 29C17.9113 29 17.6574 29 17.397 29C17.1366 29.013 16.9087 29.026 16.7134 29.0391C16.5311 29.0521 16.3618 29.0651 16.2056 29.0781C16.0623 29.0911 15.9451 29.0976 15.854 29.0976C15.7629 29.1107 15.7108 29.1172 15.6978 29.1172C15.4243 29.1172 15.2876 28.9349 15.2876 28.5703C15.2876 28.3229 15.5806 28.1862 16.1665 28.1601C16.3618 28.1471 16.5246 28.1341 16.6548 28.1211C16.8761 28.1081 17.0194 28.0495 17.0845 27.9453C17.1496 27.8281 17.1821 27.6719 17.1821 27.4766V16.8906C17.1821 16.7864 17.1691 16.7018 17.1431 16.6367C17.117 16.5586 17.0845 16.5 17.0454 16.4609C17.0194 16.4088 16.9608 16.3698 16.8696 16.3437C16.7915 16.3177 16.7329 16.3047 16.6938 16.3047C16.6548 16.2917 16.5636 16.2786 16.4204 16.2656C16.2902 16.2396 16.1991 16.2266 16.147 16.2266C16.1079 16.2135 16.0168 16.207 15.8735 16.207C15.7303 16.194 15.6261 16.181 15.561 16.168C15.4959 16.1419 15.4308 16.1029 15.3657 16.0508C15.3006 15.9857 15.2681 15.901 15.2681 15.7969C15.2681 15.6927 15.3071 15.582 15.3853 15.4648C15.4634 15.3346 15.5806 15.2695 15.7368 15.2695C15.7759 15.2695 15.8931 15.276 16.0884 15.2891C16.2967 15.2891 16.5767 15.2956 16.9282 15.3086C17.2798 15.3086 17.6639 15.3086 18.0806 15.3086H18.1392C18.5688 15.3086 18.9595 15.3086 19.311 15.3086C19.6756 15.2956 19.9621 15.2891 20.1704 15.2891C20.3787 15.276 20.5024 15.2695 20.5415 15.2695C20.7498 15.2695 20.8735 15.4062 20.9126 15.6797C20.9126 15.7057 20.9126 15.7383 20.9126 15.7773C20.9256 15.8164 20.9321 15.8424 20.9321 15.8555C20.9321 16.0117 20.8605 16.1159 20.7173 16.168C20.5871 16.207 20.2941 16.2396 19.8384 16.2656C19.6561 16.2656 19.5129 16.2721 19.4087 16.2851C19.1092 16.2982 18.9595 16.4935 18.9595 16.8711V20.1719C18.9595 20.3672 19.0441 20.4648 19.2134 20.4648H25.9712C26.2056 20.4648 26.3228 20.3411 26.3228 20.0937V17.1445C26.3228 16.6758 26.1795 16.3893 25.8931 16.2851C25.7759 16.2331 25.5806 16.207 25.3071 16.207C25.0467 16.194 24.8384 16.1614 24.6821 16.1094C24.5389 16.0573 24.4673 15.9336 24.4673 15.7383C24.4673 15.4258 24.63 15.2695 24.9556 15.2695C24.9946 15.2695 25.0988 15.276 25.2681 15.2891C25.4504 15.2891 25.6912 15.2956 25.9907 15.3086C26.3032 15.3086 26.6418 15.3086 27.0063 15.3086C27.2668 15.3086 27.5337 15.3086 27.8071 15.3086C28.0806 15.2956 28.3215 15.2825 28.5298 15.2695C28.7381 15.2565 28.9204 15.25 29.0767 15.25C29.2459 15.237 29.3761 15.2305 29.4673 15.2305C29.5715 15.2174 29.63 15.2109 29.6431 15.2109C29.8905 15.2109 30.0142 15.3476 30.0142 15.6211C30.0142 15.6992 30.0077 15.7708 29.9946 15.8359C29.9816 15.888 29.9491 15.9401 29.897 15.9922C29.8579 16.0312 29.8123 16.0638 29.7603 16.0898C29.7212 16.1159 29.6561 16.1419 29.5649 16.168C29.4738 16.181 29.3892 16.194 29.311 16.207C29.2459 16.207 29.1418 16.22 28.9985 16.2461C28.8553 16.2591 28.7316 16.2721 28.6274 16.2851C28.2759 16.3242 28.1001 16.513 28.1001 16.8516V27.457C28.1001 27.8607 28.2824 28.0755 28.647 28.1016C28.7251 28.1016 28.8228 28.1081 28.9399 28.1211C29.0702 28.1211 29.1678 28.1276 29.2329 28.1406C29.298 28.1406 29.3696 28.1471 29.4478 28.1601C29.5389 28.1732 29.604 28.1927 29.6431 28.2187C29.6952 28.2318 29.7407 28.2578 29.7798 28.2969C29.8188 28.3229 29.8449 28.362 29.8579 28.4141C29.884 28.4661 29.897 28.5312 29.897 28.6094C29.897 28.9479 29.7603 29.1172 29.4868 29.1172C29.4738 29.1172 29.4217 29.1107 29.3306 29.0976C29.2394 29.0976 29.1157 29.0911 28.9595 29.0781C28.8162 29.0651 28.647 29.0521 28.4517 29.0391C28.2563 29.026 28.035 29.013 27.7876 29C27.5402 29 27.2928 29 27.0454 29C26.798 29 26.5506 29 26.3032 29C26.0558 29.013 25.8345 29.026 25.6392 29.0391C25.4569 29.0521 25.2941 29.0651 25.1509 29.0781C25.0077 29.0911 24.8905 29.0976 24.7993 29.0976C24.7082 29.1107 24.6561 29.1172 24.6431 29.1172C24.4217 29.1172 24.311 28.987 24.311 28.7266C24.311 28.6484 24.311 28.5898 24.311 28.5508C24.3241 28.4987 24.3371 28.4531 24.3501 28.4141C24.3761 28.362 24.3957 28.3294 24.4087 28.3164C24.4217 28.2904 24.4543 28.2708 24.5063 28.2578C24.5584 28.2318 24.604 28.2122 24.6431 28.1992C24.6821 28.1862 24.7407 28.1797 24.8188 28.1797C24.91 28.1667 24.9881 28.1601 25.0532 28.1601C25.1313 28.1471 25.2355 28.1406 25.3657 28.1406C25.509 28.1276 25.6327 28.1146 25.7368 28.1016C25.9972 28.0885 26.16 28.0234 26.2251 27.9062C26.3032 27.7891 26.3423 27.6003 26.3423 27.3398V21.9297C26.3423 21.7734 26.2511 21.6953 26.0688 21.6953H19.2524C19.0571 21.6953 18.9595 21.8125 18.9595 22.0469V27.457C18.9595 27.5742 18.966 27.6654 18.979 27.7305C19.005 27.7956 19.0897 27.8737 19.2329 27.9648C19.3892 28.043 19.617 28.095 19.9165 28.1211C19.9425 28.1211 20.0272 28.1276 20.1704 28.1406C20.3267 28.1536 20.4438 28.1667 20.522 28.1797C20.6001 28.1927 20.6782 28.2318 20.7563 28.2969C20.8475 28.362 20.8931 28.4466 20.8931 28.5508C20.8931 28.9284 20.7889 29.1172 20.5806 29.1172C20.5675 29.1172 20.5155 29.1107 20.4243 29.0976C20.3462 29.0976 20.229 29.0911 20.0728 29.0781C19.9165 29.0651 19.7407 29.0521 19.5454 29.0391C19.3631 29.026 19.1483 29.013 18.9009 29Z" fill="#E5D7C4"/>
<path d="M40.1118 29.1172L39.7212 29.0781C39.4738 29.0651 39.1287 29.0456 38.686 29.0195C38.2563 29.0065 37.8267 29 37.397 29C37.1235 29 36.8436 29 36.5571 29C36.2837 29.013 36.0363 29.026 35.8149 29.0391C35.6066 29.0521 35.4178 29.0651 35.2485 29.0781C35.0793 29.0911 34.9425 29.0976 34.8384 29.0976C34.7342 29.1107 34.6756 29.1172 34.6626 29.1172C34.4022 29.1172 34.272 28.9479 34.272 28.6094C34.272 28.401 34.3241 28.2708 34.4282 28.2187C34.5454 28.1667 34.8058 28.1276 35.2095 28.1016C35.4308 28.0885 35.6066 28.0755 35.7368 28.0625C36.0103 28.0364 36.186 27.9648 36.2642 27.8476C36.3553 27.7305 36.4009 27.5547 36.4009 27.3203V17.1836C36.4009 17.0534 36.3944 16.9557 36.3813 16.8906C36.3683 16.8255 36.3162 16.7539 36.2251 16.6758C36.147 16.5976 36.0298 16.5586 35.8735 16.5586H32.8853C32.6379 16.5586 32.4686 16.5911 32.3774 16.6562C32.2863 16.7083 32.2017 16.8125 32.1235 16.9687C31.5767 18.0495 31.2837 18.6159 31.2446 18.668C31.1535 18.7721 31.0428 18.8242 30.9126 18.8242C30.7824 18.8242 30.6717 18.7786 30.5806 18.6875C30.5024 18.5833 30.4634 18.4596 30.4634 18.3164V18.2969C30.4634 18.2448 30.6587 17.3268 31.0493 15.543C31.0884 15.3346 31.2251 15.2305 31.4595 15.2305H43.1196C43.341 15.2305 43.4777 15.3867 43.5298 15.6992C43.8553 17.3919 44.0181 18.2448 44.0181 18.2578C44.0181 18.375 43.979 18.4792 43.9009 18.5703C43.8228 18.6614 43.7316 18.707 43.6274 18.707C43.4712 18.707 43.3215 18.5768 43.1782 18.3164C43.1001 18.1862 43.0155 18.043 42.9243 17.8867C42.8332 17.7174 42.7616 17.5937 42.7095 17.5156C42.6704 17.4245 42.6183 17.3268 42.5532 17.2226C42.5011 17.1055 42.4556 17.0273 42.4165 16.9883C42.3774 16.9362 42.3384 16.8841 42.2993 16.832C42.2603 16.7669 42.2212 16.7279 42.1821 16.7148C42.1561 16.6888 42.1235 16.6628 42.0845 16.6367C42.0454 16.6107 41.9998 16.5976 41.9478 16.5976C41.9087 16.5846 41.8631 16.5781 41.811 16.5781C41.772 16.5651 41.7199 16.5586 41.6548 16.5586H38.7056C38.5754 16.5586 38.4712 16.5911 38.3931 16.6562C38.328 16.7213 38.2889 16.7864 38.2759 16.8516C38.2759 16.9036 38.2759 16.9883 38.2759 17.1055V27.5742C38.2759 27.7825 38.3345 27.9128 38.4517 27.9648C38.5819 28.0169 38.9139 28.0625 39.4478 28.1016C39.7212 28.1276 39.936 28.1471 40.0923 28.1601C40.2355 28.1732 40.3267 28.2187 40.3657 28.2969C40.4178 28.375 40.4438 28.5182 40.4438 28.7266C40.4438 28.987 40.3332 29.1172 40.1118 29.1172Z" fill="#E5D7C4"/>
<path d="M58.4712 29.1172C58.2238 29.1172 58.1001 28.9609 58.1001 28.6484C58.1001 28.4531 58.1717 28.3294 58.3149 28.2773C58.4582 28.2122 58.686 28.1667 58.9985 28.1406C59.2069 28.1276 59.3696 28.1081 59.4868 28.082C59.617 28.056 59.7407 28.0104 59.8579 27.9453C59.9881 27.8802 60.0793 27.7825 60.1313 27.6523C60.1965 27.5091 60.229 27.3333 60.229 27.125V22.7891C60.229 20.7708 60.2095 19.7031 60.1704 19.5859C60.1574 19.5078 60.1118 19.4687 60.0337 19.4687C59.9425 19.4687 59.8514 19.5469 59.7603 19.7031C59.2524 20.5234 58.5819 21.6888 57.7485 23.1992C56.9282 24.6966 56.2121 26.0182 55.6001 27.1641C54.9881 28.3099 54.6366 28.9414 54.5454 29.0586C54.4152 29.2148 54.2655 29.293 54.0962 29.293C53.8618 29.293 53.6274 29.0521 53.3931 28.5703C52.742 27.2292 51.9933 25.8164 51.147 24.332C50.3136 22.8476 49.63 21.6758 49.0962 20.8164C48.5623 19.957 48.2629 19.5078 48.1978 19.4687C48.1847 19.4557 48.1652 19.4492 48.1392 19.4492C48.0871 19.4492 48.061 19.4818 48.061 19.5469C47.9829 20.9531 47.9438 22.3398 47.9438 23.707C47.9438 24.8398 47.9699 26.0312 48.022 27.2812C48.048 27.6588 48.1001 27.8802 48.1782 27.9453C48.3084 28.0364 48.5233 28.082 48.8228 28.082C49.1353 28.082 49.3957 28.1211 49.604 28.1992C49.8254 28.2643 49.936 28.4206 49.936 28.668C49.936 28.9674 49.8188 29.1172 49.5845 29.1172C49.5715 29.1172 49.5194 29.1107 49.4282 29.0976C49.3371 29.0976 49.2134 29.0911 49.0571 29.0781C48.9139 29.0651 48.7511 29.0521 48.5688 29.0391C48.3866 29.026 48.1652 29.013 47.9048 29C47.6574 29 47.4165 29 47.1821 29C46.9478 29 46.7004 29 46.4399 29C46.1925 29.013 45.9777 29.026 45.7954 29.0391C45.6131 29.0521 45.4438 29.0651 45.2876 29.0781C45.1444 29.0911 45.0272 29.0976 44.936 29.0976C44.8449 29.1107 44.7928 29.1172 44.7798 29.1172C44.5324 29.1172 44.4087 28.9739 44.4087 28.6875C44.4087 28.5963 44.4152 28.5247 44.4282 28.4726C44.4543 28.4075 44.4868 28.3555 44.5259 28.3164C44.578 28.2643 44.6235 28.2318 44.6626 28.2187C44.7147 28.1927 44.7928 28.1732 44.897 28.1601C45.0011 28.1341 45.0858 28.1146 45.1509 28.1016C45.229 28.0885 45.3462 28.0755 45.5024 28.0625C45.6587 28.0495 45.7889 28.0364 45.8931 28.0234C45.9972 28.0104 46.0884 27.9909 46.1665 27.9648C46.2446 27.9258 46.3032 27.8932 46.3423 27.8672C46.3813 27.8281 46.4139 27.7695 46.4399 27.6914C46.466 27.6003 46.479 27.5351 46.479 27.4961C46.492 27.444 46.505 27.3594 46.5181 27.2422C46.5311 27.112 46.5376 27.0208 46.5376 26.9687C46.8761 22.8672 47.0454 19.8854 47.0454 18.0234C47.0454 17.8672 46.9673 17.6979 46.811 17.5156C46.798 17.5026 46.7134 17.4049 46.5571 17.2226C46.4009 17.0273 46.2707 16.8841 46.1665 16.793C46.0623 16.6888 45.8931 16.5846 45.6587 16.4805C45.4243 16.3633 45.1704 16.3047 44.897 16.3047C44.6366 16.2656 44.5063 16.1419 44.5063 15.9336C44.5063 15.8034 44.5259 15.7057 44.5649 15.6406C44.617 15.5625 44.6626 15.5234 44.7017 15.5234C44.7407 15.5104 44.7928 15.5039 44.8579 15.5039H47.729C47.9634 15.5039 48.1326 15.5885 48.2368 15.7578L52.0259 22.0859L54.3501 25.7969C54.4282 25.9531 54.5454 26.0312 54.7017 26.0312C54.8188 26.0312 54.91 25.9596 54.9751 25.8164L60.4048 15.6797C60.4699 15.5625 60.5871 15.5039 60.7563 15.5039H63.6665C63.7316 15.5039 63.7772 15.5104 63.8032 15.5234C63.8423 15.5234 63.8748 15.5625 63.9009 15.6406C63.9399 15.7057 63.9595 15.8034 63.9595 15.9336C63.9595 16.0378 63.9399 16.1224 63.9009 16.1875C63.8748 16.2526 63.8097 16.3047 63.7056 16.3437C63.6144 16.3828 63.5168 16.4154 63.4126 16.4414C63.3084 16.4544 63.1587 16.487 62.9634 16.5391C62.7681 16.5781 62.5793 16.6237 62.397 16.6758C62.0715 16.7539 61.9087 16.9492 61.9087 17.2617C61.9347 19.4753 61.9543 21.3437 61.9673 22.8672C61.9933 24.3906 62.0063 25.3997 62.0063 25.8945C62.0194 26.3763 62.0259 26.7409 62.0259 26.9883V27.125C62.0259 27.3463 62.0324 27.5091 62.0454 27.6133C62.0584 27.7044 62.117 27.8021 62.2212 27.9062C62.3254 28.0104 62.4881 28.0755 62.7095 28.1016C62.8006 28.1146 62.9113 28.1276 63.0415 28.1406C63.1847 28.1406 63.2889 28.1471 63.354 28.1601C63.4191 28.1601 63.4972 28.1667 63.5884 28.1797C63.6795 28.1927 63.7381 28.2122 63.7642 28.2383C63.8032 28.2643 63.8423 28.2969 63.8813 28.3359C63.9334 28.375 63.966 28.4271 63.979 28.4922C63.992 28.5443 63.9985 28.6094 63.9985 28.6875C63.9985 28.8177 63.9595 28.9219 63.8813 29C63.8032 29.0781 63.7056 29.1172 63.5884 29.1172L63.2173 29.0781C62.9699 29.0651 62.6379 29.0456 62.2212 29.0195C61.8175 29.0065 61.4139 29 61.0103 29C60.7498 29 60.4894 29 60.229 29C59.9686 29.013 59.7407 29.026 59.5454 29.0391C59.3501 29.0521 59.1678 29.0651 58.9985 29.0781C58.8423 29.0911 58.7186 29.0976 58.6274 29.0976C58.5363 29.1107 58.4842 29.1172 58.4712 29.1172Z" fill="#E5D7C4"/>
<path d="M67.0259 15.5039C67.4556 15.5039 67.8527 15.5039 68.2173 15.5039C68.5819 15.4909 68.8683 15.4779 69.0767 15.4648C69.285 15.4518 69.4087 15.4453 69.4478 15.4453C69.591 15.4453 69.6821 15.4909 69.7212 15.582C69.7603 15.6601 69.7798 15.7904 69.7798 15.9726C69.7798 16.2851 69.63 16.4414 69.3306 16.4414C69.2004 16.4414 69.0571 16.4479 68.9009 16.4609C68.7577 16.4609 68.647 16.4609 68.5688 16.4609C68.4907 16.4609 68.3996 16.4609 68.2954 16.4609C68.2043 16.4609 68.1327 16.4674 68.0806 16.4805C68.0285 16.4805 67.9764 16.4935 67.9243 16.5195C67.8722 16.5325 67.8332 16.5521 67.8071 16.5781C67.7811 16.6042 67.755 16.6432 67.729 16.6953C67.716 16.7344 67.703 16.7799 67.6899 16.832C67.6899 16.8841 67.6899 16.9492 67.6899 17.0273V27.1641C67.6899 27.5937 67.8657 27.8086 68.2173 27.8086H72.104C72.5988 27.8086 72.9634 27.6263 73.1978 27.2617C73.2629 27.1575 73.4061 26.8581 73.6274 26.3633C73.8618 25.8685 73.9985 25.6016 74.0376 25.5625C74.1157 25.4583 74.2134 25.4062 74.3306 25.4062C74.3957 25.4062 74.4673 25.4193 74.5454 25.4453C74.6235 25.4583 74.7082 25.5039 74.7993 25.582C74.8905 25.6471 74.936 25.7383 74.936 25.8555C74.936 25.9596 74.8058 26.9036 74.5454 28.6875C74.5324 28.7786 74.5129 28.8503 74.4868 28.9023C74.4738 28.9544 74.4217 29 74.3306 29.0391C74.2524 29.0911 74.1418 29.1172 73.9985 29.1172C73.9595 29.1172 73.7837 29.1107 73.4712 29.0976C73.1587 29.0976 72.742 29.0911 72.2212 29.0781C71.7004 29.0651 71.1144 29.0521 70.4634 29.0391C69.8123 29.026 69.0571 29.013 68.1978 29C67.3384 29 66.492 29 65.6587 29H64.604C64.3826 29 64.272 28.8958 64.272 28.6875C64.272 28.5182 64.3241 28.4075 64.4282 28.3555C64.5454 28.2904 64.8058 28.2187 65.2095 28.1406C65.2876 28.1276 65.3462 28.1146 65.3853 28.1016C65.6847 28.0234 65.8345 27.8086 65.8345 27.457V16.8906C65.8345 16.8125 65.828 16.7539 65.8149 16.7148C65.8149 16.6628 65.8019 16.6172 65.7759 16.5781C65.7629 16.5391 65.7368 16.513 65.6978 16.5C65.6717 16.4739 65.6392 16.4609 65.6001 16.4609C65.561 16.4479 65.509 16.4414 65.4438 16.4414C65.3918 16.4284 65.3267 16.4219 65.2485 16.4219C65.1834 16.4219 65.1053 16.4219 65.0142 16.4219C64.923 16.4219 64.8254 16.4219 64.7212 16.4219C64.3826 16.3958 64.2134 16.2331 64.2134 15.9336C64.2134 15.6081 64.3436 15.4453 64.604 15.4453C64.6561 15.4453 64.7733 15.4518 64.9556 15.4648C65.1379 15.4648 65.3983 15.4713 65.7368 15.4844C66.0884 15.4974 66.466 15.5039 66.8696 15.5039H67.0259Z" fill="#E5D7C4"/>
<path d="M75.9712 32.7305C75.5675 32.7305 75.3657 32.6393 75.3657 32.457C75.3657 32.4049 77.8787 27.444 82.9048 17.5742C82.9699 17.457 83.0741 17.3984 83.2173 17.3984C83.3345 17.3984 83.4647 17.431 83.6079 17.4961C83.7511 17.5482 83.8228 17.6393 83.8228 17.7695C83.8228 17.8086 82.6834 19.9896 80.4048 24.3125C78.673 27.763 77.3644 30.3802 76.479 32.1641C76.3228 32.4766 76.2381 32.6393 76.2251 32.6523C76.16 32.7044 76.0754 32.7305 75.9712 32.7305Z" fill="#E5D7C4"/>
<path d="M86.2446 21.9297C86.2446 23.7656 86.7915 25.3151 87.8853 26.5781C88.979 27.8281 90.3071 28.4531 91.8696 28.4531C93.0415 28.4531 94.1092 28.095 95.0728 27.3789C96.0493 26.6628 96.7199 25.7122 97.0845 24.5273C97.1496 24.345 97.2472 24.2539 97.3774 24.2539C97.5988 24.2539 97.7095 24.332 97.7095 24.4883C97.41 26.5586 97.2407 27.6393 97.2017 27.7305C97.1366 27.9518 96.9868 28.0625 96.7524 28.0625H96.186C96.0298 28.0625 95.9126 28.0755 95.8345 28.1016C95.7694 28.1276 95.6717 28.1862 95.5415 28.2773C95.4243 28.3685 95.3267 28.4336 95.2485 28.4726C94.0767 29.1497 92.8397 29.4883 91.5376 29.4883C90.6131 29.4883 89.7082 29.306 88.8228 28.9414C87.9373 28.5768 87.1561 28.069 86.479 27.418C85.8019 26.7539 85.2681 25.9726 84.8774 25.0742C84.4998 24.1758 84.311 23.2513 84.311 22.3008C84.311 21.3242 84.5129 20.3802 84.9165 19.4687C85.3202 18.5573 85.8605 17.776 86.5376 17.125C87.9699 15.7578 89.6691 15.0742 91.6353 15.0742H91.6548C92.3709 15.0742 93.0285 15.1654 93.6274 15.3476C94.2394 15.5169 94.7082 15.6927 95.0337 15.875C95.3722 16.0573 95.5545 16.1484 95.5806 16.1484C95.6847 16.1484 95.7759 16.0378 95.854 15.8164C95.9321 15.595 96.0363 15.4648 96.1665 15.4258C96.1925 15.4258 96.2316 15.4258 96.2837 15.4258C96.3358 15.4128 96.3683 15.4062 96.3813 15.4062C96.5246 15.4062 96.6092 15.4844 96.6353 15.6406L96.772 16.6562C96.8631 17.3463 96.9543 18.043 97.0454 18.7461C97.1366 19.4492 97.1821 19.8268 97.1821 19.8789C97.1821 20.1003 97.0454 20.2109 96.772 20.2109C96.5246 20.2109 96.3813 20.1719 96.3423 20.0937C96.3032 20.0026 96.2577 19.7292 96.2056 19.2734C96.1405 18.7786 95.9647 18.3424 95.6782 17.9648C95.2225 17.3919 94.6431 16.9232 93.9399 16.5586C93.2368 16.181 92.4556 15.9922 91.5962 15.9922C90.1509 15.9922 88.8944 16.5391 87.8267 17.6328C86.772 18.7266 86.2446 20.1588 86.2446 21.9297Z" fill="#E5D7C4"/>
<path d="M98.5688 18.6875C98.5688 17.776 98.9074 16.9883 99.5845 16.3242C100.262 15.6471 101.114 15.3086 102.143 15.3086C102.625 15.3086 103.055 15.3802 103.432 15.5234C103.823 15.6536 104.122 15.7838 104.331 15.9141C104.552 16.0443 104.682 16.1094 104.721 16.1094C104.799 16.1094 104.91 15.9792 105.053 15.7187C105.209 15.4453 105.379 15.3086 105.561 15.3086C105.652 15.3086 105.73 15.3476 105.795 15.4258C105.861 15.4909 105.893 15.5755 105.893 15.6797C105.893 15.7057 105.887 15.7904 105.874 15.9336C105.861 16.0768 105.841 16.2786 105.815 16.5391C105.802 16.7864 105.795 17.0534 105.795 17.3398C105.795 17.6263 105.802 17.8932 105.815 18.1406C105.841 18.388 105.861 18.5833 105.874 18.7266C105.887 18.8568 105.893 18.9349 105.893 18.9609C105.893 19.1562 105.776 19.2539 105.542 19.2539H105.522C105.34 19.2539 105.203 19.1888 105.112 19.0586C105.021 18.9154 104.897 18.681 104.741 18.3555C104.597 18.0299 104.396 17.7174 104.135 17.418C103.471 16.6758 102.742 16.3047 101.948 16.3047C101.401 16.3047 100.939 16.487 100.561 16.8516C100.183 17.2161 99.9946 17.6588 99.9946 18.1797C99.9946 18.8958 100.34 19.5013 101.03 19.9961C101.433 20.2956 102.091 20.556 103.002 20.7773C103.914 20.9987 104.519 21.1745 104.819 21.3047C105.574 21.6302 106.18 22.1185 106.635 22.7695C107.104 23.4075 107.338 24.1628 107.338 25.0351C107.338 26.2331 106.915 27.2487 106.069 28.082C105.222 28.9154 104.187 29.332 102.963 29.332C101.765 29.332 100.75 28.9674 99.9165 28.2383C99.7082 28.056 99.5063 27.9648 99.311 27.9648C99.2459 27.9648 99.1548 27.9779 99.0376 28.0039C98.9204 28.0169 98.8358 28.0234 98.7837 28.0234C98.5493 28.0234 98.4321 27.9193 98.4321 27.7109C98.4321 27.6719 98.4517 27.5417 98.4907 27.3203C98.5428 27.0989 98.6079 26.7344 98.686 26.2266C98.7642 25.7187 98.8293 25.1328 98.8813 24.4687C98.9074 24.1823 99.0571 24.0391 99.3306 24.0391C99.5389 24.0391 99.6626 24.0976 99.7017 24.2148C99.7537 24.332 99.8123 24.6575 99.8774 25.1914C99.8905 25.3607 99.9035 25.5234 99.9165 25.6797C99.9295 25.8359 99.936 25.9466 99.936 26.0117C99.9491 26.0768 99.9556 26.1354 99.9556 26.1875C99.9556 26.2396 99.9686 26.2917 99.9946 26.3437C100.021 26.3828 100.04 26.4154 100.053 26.4414C100.066 26.4674 100.112 26.5325 100.19 26.6367C100.268 26.7279 100.34 26.8125 100.405 26.8906C101.069 27.776 101.928 28.2187 102.983 28.2187C103.777 28.2187 104.461 27.9518 105.034 27.418C105.607 26.8841 105.893 26.2266 105.893 25.4453C105.893 24.5469 105.502 23.8112 104.721 23.2383C104.278 22.9128 103.608 22.6458 102.709 22.4375C101.811 22.2161 101.225 22.0469 100.952 21.9297C100.17 21.6172 99.578 21.1745 99.1743 20.6016C98.7707 20.0156 98.5688 19.3776 98.5688 18.6875Z" fill="#E5D7C4"/>
<path d="M108.393 18.6875C108.393 17.776 108.732 16.9883 109.409 16.3242C110.086 15.6471 110.939 15.3086 111.967 15.3086C112.449 15.3086 112.879 15.3802 113.256 15.5234C113.647 15.6536 113.946 15.7838 114.155 15.9141C114.376 16.0443 114.506 16.1094 114.545 16.1094C114.624 16.1094 114.734 15.9792 114.877 15.7187C115.034 15.4453 115.203 15.3086 115.385 15.3086C115.476 15.3086 115.555 15.3476 115.62 15.4258C115.685 15.4909 115.717 15.5755 115.717 15.6797C115.717 15.7057 115.711 15.7904 115.698 15.9336C115.685 16.0768 115.665 16.2786 115.639 16.5391C115.626 16.7864 115.62 17.0534 115.62 17.3398C115.62 17.6263 115.626 17.8932 115.639 18.1406C115.665 18.388 115.685 18.5833 115.698 18.7266C115.711 18.8568 115.717 18.9349 115.717 18.9609C115.717 19.1562 115.6 19.2539 115.366 19.2539H115.346C115.164 19.2539 115.027 19.1888 114.936 19.0586C114.845 18.9154 114.721 18.681 114.565 18.3555C114.422 18.0299 114.22 17.7174 113.959 17.418C113.295 16.6758 112.566 16.3047 111.772 16.3047C111.225 16.3047 110.763 16.487 110.385 16.8516C110.008 17.2161 109.819 17.6588 109.819 18.1797C109.819 18.8958 110.164 19.5013 110.854 19.9961C111.258 20.2956 111.915 20.556 112.827 20.7773C113.738 20.9987 114.344 21.1745 114.643 21.3047C115.398 21.6302 116.004 22.1185 116.459 22.7695C116.928 23.4075 117.163 24.1628 117.163 25.0351C117.163 26.2331 116.739 27.2487 115.893 28.082C115.047 28.9154 114.012 29.332 112.788 29.332C111.59 29.332 110.574 28.9674 109.741 28.2383C109.532 28.056 109.331 27.9648 109.135 27.9648C109.07 27.9648 108.979 27.9779 108.862 28.0039C108.745 28.0169 108.66 28.0234 108.608 28.0234C108.374 28.0234 108.256 27.9193 108.256 27.7109C108.256 27.6719 108.276 27.5417 108.315 27.3203C108.367 27.0989 108.432 26.7344 108.51 26.2266C108.588 25.7187 108.653 25.1328 108.706 24.4687C108.732 24.1823 108.881 24.0391 109.155 24.0391C109.363 24.0391 109.487 24.0976 109.526 24.2148C109.578 24.332 109.637 24.6575 109.702 25.1914C109.715 25.3607 109.728 25.5234 109.741 25.6797C109.754 25.8359 109.76 25.9466 109.76 26.0117C109.773 26.0768 109.78 26.1354 109.78 26.1875C109.78 26.2396 109.793 26.2917 109.819 26.3437C109.845 26.3828 109.864 26.4154 109.877 26.4414C109.89 26.4674 109.936 26.5325 110.014 26.6367C110.092 26.7279 110.164 26.8125 110.229 26.8906C110.893 27.776 111.752 28.2187 112.807 28.2187C113.601 28.2187 114.285 27.9518 114.858 27.418C115.431 26.8841 115.717 26.2266 115.717 25.4453C115.717 24.5469 115.327 23.8112 114.545 23.2383C114.103 22.9128 113.432 22.6458 112.534 22.4375C111.635 22.2161 111.049 22.0469 110.776 21.9297C109.995 21.6172 109.402 21.1745 108.999 20.6016C108.595 20.0156 108.393 19.3776 108.393 18.6875Z" fill="#E5D7C4"/>
</g>
<defs>
<filter id="filter0_d_85_245" x="0" y="0" width="131.989" height="50" filterUnits="userSpaceOnUse" color-interpolation-filters="sRGB">
<feFlood flood-opacity="0" result="BackgroundImageFix"/>
<feColorMatrix in="SourceAlpha" type="matrix" values="0 0 0 0 0 0 0 0 0 0 0 0 0 0 0 0 0 0 127 0" result="hardAlpha"/>
<feOffset dy="4"/>
<feGaussianBlur stdDeviation="2"/>
<feComposite in2="hardAlpha" operator="out"/>
<feColorMatrix type="matrix" values="0 0 0 0 0 0 0 0 0 0 0 0 0 0 0 0 0 0 0.25 0"/>
<feBlend mode="normal" in2="BackgroundImageFix" result="effect1_dropShadow_85_245"/>
<feBlend mode="normal" in="SourceGraphic" in2="effect1_dropShadow_85_245" result="shape"/>
</filter>
</defs>
</svg>
