<svg width="26" height="26" viewBox="0 0 26 26" fill="none" xmlns="http://www.w3.org/2000/svg">
<path d="M7.42844 12.9374C7.42844 12.9584 7.42852 12.9792 7.4287 13M7.4287 13C7.49026 20.4286 18.5095 20.4286 18.5711 13M7.4287 13C7.42852 13.0208 7.42844 13.0417 7.42844 13.0626M7.4287 13C7.49026 5.57144 18.5095 5.57144 18.5711 13M18.5711 13C18.5712 12.9792 18.5713 12.9584 18.5713 12.9374M18.5711 13C18.5712 13.0208 18.5713 13.0417 18.5713 13.0626M19.4285 6.13806L19.4285 6.14287M19.4285 6.14287C19.4332 6.7143 20.2809 6.7143 20.2856 6.14287M19.4285 6.14287L19.4285 6.14769M19.4285 6.14287C19.4332 5.57144 20.2809 5.57144 20.2856 6.14287M20.2856 6.14287L20.2856 6.13806M20.2856 6.14287L20.2856 6.14769M23.7143 2.28569C25.4286 4.00002 25.4285 22.0001 23.7143 23.7143C22.0001 25.4286 3.99992 25.4285 2.28569 23.7143C0.571457 22.0002 0.571429 3.99987 2.28565 2.28569C3.99987 0.571509 22 0.571363 23.7143 2.28569Z" stroke="#312F29" stroke-width="2"/>
</svg>
