<svg width="98" height="50" viewBox="0 0 98 50" fill="none" xmlns="http://www.w3.org/2000/svg">
<g filter="url(#filter0_d_85_233)">
<path d="M4 21C4.67663 49 93.3156 49 93.9922 21C93.3156 -7 4.67663 -7 4 21Z" fill="#A88C40"/>
<path d="M17.0235 13.5039C17.4531 13.5039 17.8503 13.5039 18.2149 13.5039C18.5794 13.4909 18.8659 13.4779 19.0742 13.4648C19.2826 13.4518 19.4063 13.4453 19.4453 13.4453C19.5886 13.4453 19.6797 13.4909 19.7188 13.582C19.7578 13.6602 19.7774 13.7904 19.7774 13.9727C19.7774 14.2852 19.6276 14.4414 19.3281 14.4414C19.1979 14.4414 19.0547 14.4479 18.8985 14.4609C18.7552 14.4609 18.6445 14.4609 18.5664 14.4609C18.4883 14.4609 18.3972 14.4609 18.293 14.4609C18.2018 14.4609 18.1302 14.4674 18.0781 14.4805C18.0261 14.4805 17.974 14.4935 17.9219 14.5195C17.8698 14.5326 17.8307 14.5521 17.8047 14.5781C17.7787 14.6042 17.7526 14.6432 17.7266 14.6953C17.7136 14.7344 17.7005 14.7799 17.6875 14.832C17.6875 14.8841 17.6875 14.9492 17.6875 15.0273V25.1641C17.6875 25.5938 17.8633 25.8086 18.2149 25.8086H22.1016C22.5964 25.8086 22.961 25.6263 23.1953 25.2617C23.2604 25.1576 23.4037 24.8581 23.625 24.3633C23.8594 23.8685 23.9961 23.6016 24.0352 23.5625C24.1133 23.4583 24.211 23.4062 24.3281 23.4062C24.3932 23.4062 24.4649 23.4193 24.543 23.4453C24.6211 23.4583 24.7057 23.5039 24.7969 23.582C24.888 23.6471 24.9336 23.7383 24.9336 23.8555C24.9336 23.9596 24.8034 24.9036 24.543 26.6875C24.53 26.7786 24.5104 26.8503 24.4844 26.9023C24.4714 26.9544 24.4193 27 24.3281 27.0391C24.25 27.0911 24.1393 27.1172 23.9961 27.1172C23.957 27.1172 23.7813 27.1107 23.4688 27.0977C23.1563 27.0977 22.7396 27.0911 22.2188 27.0781C21.6979 27.0651 21.112 27.0521 20.461 27.0391C19.8099 27.026 19.0547 27.013 18.1953 27C17.336 27 16.4896 27 15.6563 27H14.6016C14.3802 27 14.2695 26.8958 14.2695 26.6875C14.2695 26.5182 14.3216 26.4076 14.4258 26.3555C14.543 26.2904 14.8034 26.2188 15.207 26.1406C15.2852 26.1276 15.3438 26.1146 15.3828 26.1016C15.6823 26.0234 15.832 25.8086 15.832 25.457V14.8906C15.832 14.8125 15.8255 14.7539 15.8125 14.7148C15.8125 14.6628 15.7995 14.6172 15.7735 14.5781C15.7604 14.5391 15.7344 14.513 15.6953 14.5C15.6693 14.474 15.6367 14.4609 15.5977 14.4609C15.5586 14.4479 15.5065 14.4414 15.4414 14.4414C15.3893 14.4284 15.3242 14.4219 15.2461 14.4219C15.181 14.4219 15.1029 14.4219 15.0117 14.4219C14.9206 14.4219 14.8229 14.4219 14.7188 14.4219C14.3802 14.3958 14.211 14.2331 14.211 13.9336C14.211 13.6081 14.3412 13.4453 14.6016 13.4453C14.6537 13.4453 14.7708 13.4518 14.9531 13.4648C15.1354 13.4648 15.3958 13.4714 15.7344 13.4844C16.086 13.4974 16.4636 13.5039 16.8672 13.5039H17.0235Z" fill="#E5D7C4"/>
<path d="M25.6758 22.918C25.6758 21.5768 26.099 20.4831 26.9453 19.6367C27.8047 18.7904 28.8203 18.3672 29.9922 18.3672C31.1901 18.3672 32.1862 18.7969 32.9805 19.6562C33.7748 20.5026 34.1719 21.5898 34.1719 22.918C34.1719 24.2852 33.7552 25.3724 32.9219 26.1797C32.1016 26.974 31.099 27.3711 29.9141 27.3711C28.6641 27.3711 27.6419 26.9414 26.8477 26.082C26.0664 25.2227 25.6758 24.168 25.6758 22.918ZM27.9805 25.3984C28.4883 26.0625 29.1524 26.3945 29.9727 26.3945C30.793 26.3945 31.4701 26.0625 32.0039 25.3984C32.5378 24.7214 32.8047 23.9206 32.8047 22.9961C32.8047 21.9544 32.5052 21.082 31.9063 20.3789C31.3203 19.6628 30.6367 19.3047 29.8555 19.3047C29.2044 19.3047 28.599 19.5911 28.0391 20.1641C27.4922 20.737 27.2188 21.6224 27.2188 22.8203C27.2188 23.862 27.4727 24.7214 27.9805 25.3984Z" fill="#E5D7C4"/>
<path d="M38.3125 19.0117C37.8047 19.0117 37.388 19.2201 37.0625 19.6367C36.737 20.0404 36.5742 20.5677 36.5742 21.2188C36.5742 21.987 36.7695 22.651 37.1602 23.2109C37.5508 23.7708 38.0456 24.0508 38.6445 24.0508C39.1784 24.0508 39.6081 23.8424 39.9336 23.4258C40.2591 22.9961 40.4219 22.4688 40.4219 21.8438C40.4219 21.1016 40.2201 20.444 39.8164 19.8711C39.4258 19.2982 38.9245 19.0117 38.3125 19.0117ZM36.2422 28.7578C36.2422 29.3438 36.5482 29.819 37.1602 30.1836C37.7852 30.5482 38.5664 30.7305 39.5039 30.7305C40.4284 30.7305 41.0794 30.5807 41.457 30.2812C41.8477 29.9948 42.043 29.6628 42.043 29.2852C42.043 28.7383 41.7761 28.3411 41.2422 28.0938C40.9688 27.9505 40.6498 27.8529 40.2852 27.8008C39.9206 27.7617 39.4063 27.7292 38.7422 27.7031C38.0912 27.6901 37.5182 27.6576 37.0235 27.6055H36.9649C36.8737 27.6055 36.7565 27.6771 36.6133 27.8203C36.3659 28.0677 36.2422 28.3802 36.2422 28.7578ZM35.0313 21.4531C35.0313 20.6068 35.3373 19.8776 35.9492 19.2656C36.5742 18.6536 37.3425 18.3477 38.2539 18.3477C38.8138 18.3477 39.3542 18.4648 39.875 18.6992C40.4089 18.9336 40.7083 19.0508 40.7735 19.0508C41.1901 19.0508 41.5417 18.8424 41.8281 18.4258C42.0235 18.1133 42.2123 17.957 42.3945 17.957C42.5768 17.957 42.7461 18.0482 42.9024 18.2305C43.0716 18.3997 43.1563 18.582 43.1563 18.7773C43.1563 19.0117 43.0521 19.2135 42.8438 19.3828C42.6485 19.5521 42.4141 19.6953 42.1406 19.8125C41.8802 19.9167 41.7435 19.9753 41.7305 19.9883C41.6654 20.0534 41.6328 20.1055 41.6328 20.1445C41.6328 20.1706 41.6524 20.2357 41.6914 20.3398C41.7305 20.444 41.7695 20.5938 41.8086 20.7891C41.8477 20.9714 41.8672 21.1732 41.8672 21.3945C41.8672 22.319 41.5417 23.1133 40.8906 23.7773C40.2526 24.4284 39.4714 24.7539 38.5469 24.7539C38.2865 24.7539 38.0391 24.7279 37.8047 24.6758C37.5703 24.6107 37.4271 24.5781 37.375 24.5781C37.1927 24.5781 36.9974 24.6953 36.7891 24.9297C36.5807 25.151 36.4766 25.3724 36.4766 25.5938C36.4766 25.9453 36.7565 26.1797 37.3164 26.2969C37.8893 26.4141 38.612 26.4857 39.4844 26.5117C40.3698 26.5378 41.0013 26.6094 41.3789 26.7266C41.9779 26.8958 42.4271 27.1823 42.7266 27.5859C43.0391 28.0026 43.1953 28.4518 43.1953 28.9336C43.1953 29.2331 43.1302 29.5326 43 29.832C42.8698 30.1315 42.655 30.4245 42.3555 30.7109C42.069 30.9974 41.6393 31.2318 41.0664 31.4141C40.4935 31.5964 39.8164 31.6875 39.0352 31.6875C37.5899 31.6875 36.5742 31.4206 35.9883 30.8867C35.4154 30.3659 35.1289 29.793 35.1289 29.168C35.1289 29.0378 35.1419 28.9076 35.168 28.7773C35.194 28.6602 35.2266 28.5495 35.2656 28.4453C35.3047 28.3542 35.3438 28.263 35.3828 28.1719C35.4349 28.0938 35.487 28.0156 35.5391 27.9375C35.6042 27.8724 35.6628 27.8138 35.7149 27.7617C35.78 27.7096 35.8386 27.6641 35.8906 27.625C35.9427 27.5859 35.9883 27.5469 36.0274 27.5078C36.0664 27.4818 36.099 27.4622 36.125 27.4492L36.1641 27.4297C36.1901 27.4036 36.2031 27.3711 36.2031 27.332C36.2031 27.319 36.138 27.2734 36.0078 27.1953C35.8906 27.1172 35.7669 26.987 35.6367 26.8047C35.5195 26.6224 35.461 26.401 35.461 26.1406C35.461 25.5026 35.832 24.8841 36.5742 24.2852L36.5938 24.2656C36.6068 24.2526 36.6133 24.2331 36.6133 24.207C36.6133 24.1549 36.5547 24.0964 36.4375 24.0312C36.3203 23.9661 36.1576 23.8424 35.9492 23.6602C35.7539 23.4648 35.5716 23.2174 35.4024 22.918C35.155 22.4753 35.0313 21.987 35.0313 21.4531Z" fill="#E5D7C4"/>
<path d="M45.2461 24.5781C45.2461 23.901 45.2461 23.2695 45.2461 22.6836C45.2461 22.0977 45.2461 21.6419 45.2461 21.3164C45.2591 20.9779 45.2656 20.776 45.2656 20.7109C45.2656 20.5677 45.2136 20.4701 45.1094 20.418C45.0182 20.3529 44.6211 20.1771 43.918 19.8906C43.7487 19.8255 43.6641 19.7409 43.6641 19.6367C43.6641 19.5977 43.6706 19.5586 43.6836 19.5195C43.7097 19.4805 43.7422 19.4479 43.7813 19.4219C43.8333 19.3958 43.8789 19.3763 43.918 19.3633C43.957 19.3372 44.0091 19.3112 44.0742 19.2852C44.1393 19.2591 44.1849 19.2396 44.211 19.2266C45.6693 18.5234 46.405 18.1719 46.418 18.1719H46.4375C46.6198 18.1719 46.711 18.2826 46.711 18.5039L46.6914 19.1484C46.6654 19.5781 46.6393 20.1576 46.6133 20.8867C46.6003 21.6029 46.5938 22.319 46.5938 23.0352V23.6992C46.5938 24.9362 46.6133 25.6654 46.6524 25.8867C46.6914 26.1081 46.8216 26.2318 47.043 26.2578C47.4336 26.3099 47.681 26.3555 47.7852 26.3945C47.8893 26.4336 47.9414 26.5312 47.9414 26.6875C47.9414 26.974 47.8633 27.1172 47.707 27.1172C47.694 27.1172 47.655 27.1107 47.5899 27.0977C47.5248 27.0977 47.4336 27.0911 47.3164 27.0781C47.1992 27.0651 47.069 27.0521 46.9258 27.0391C46.7826 27.026 46.6133 27.013 46.418 27C46.2357 27 46.0534 27 45.8711 27C45.6888 27 45.5 27 45.3047 27C45.1094 27.013 44.9401 27.026 44.7969 27.0391C44.6667 27.0521 44.543 27.0651 44.4258 27.0781C44.3086 27.0911 44.2175 27.0977 44.1524 27.0977C44.0873 27.1107 44.0482 27.1172 44.0352 27.1172C43.8268 27.1172 43.7227 27.0065 43.7227 26.7852C43.7227 26.5638 43.7617 26.4336 43.8399 26.3945C43.931 26.3555 44.224 26.3034 44.7188 26.2383C44.9531 26.1992 45.0964 26.1276 45.1485 26.0234C45.2136 25.9062 45.2461 25.737 45.2461 25.5156V24.5781ZM45.4414 14.6367C45.4414 14.3763 45.5391 14.1549 45.7344 13.9727C45.9297 13.7904 46.1576 13.6992 46.418 13.6992C46.6784 13.6992 46.8998 13.7904 47.082 13.9727C47.2774 14.1549 47.375 14.3698 47.375 14.6172C47.375 14.8906 47.2774 15.1185 47.082 15.3008C46.8998 15.4831 46.6719 15.5742 46.3985 15.5742C46.125 15.5742 45.8972 15.4896 45.7149 15.3203C45.5326 15.138 45.4414 14.9102 45.4414 14.6367Z" fill="#E5D7C4"/>
<path d="M52.3945 27.3516C51.2487 27.3516 50.3177 26.9479 49.6016 26.1406C48.8985 25.3333 48.5469 24.3047 48.5469 23.0547C48.5469 21.6875 48.944 20.5807 49.7383 19.7344C50.5326 18.875 51.5677 18.4453 52.8438 18.4453C53.5469 18.4453 54.1458 18.5951 54.6406 18.8945C55.1354 19.194 55.3828 19.5391 55.3828 19.9297C55.3828 20.151 55.3047 20.3333 55.1485 20.4766C54.9922 20.6068 54.8034 20.6719 54.582 20.6719C54.2956 20.6719 53.918 20.4766 53.4492 20.0859C52.9935 19.6823 52.5638 19.4805 52.1602 19.4805C51.5482 19.4805 51.0143 19.7865 50.5586 20.3984C50.1029 21.0104 49.875 21.7331 49.875 22.5664C49.875 23.5169 50.1745 24.3438 50.7735 25.0469C51.3854 25.737 52.1406 26.082 53.0391 26.082C53.3906 26.082 53.7097 26.0299 53.9961 25.9258C54.2956 25.8086 54.5169 25.6849 54.6602 25.5547C54.8164 25.4115 54.9662 25.2878 55.1094 25.1836C55.2656 25.0664 55.3893 25.0078 55.4805 25.0078C55.5716 25.0078 55.6498 25.0404 55.7149 25.1055C55.78 25.1706 55.8125 25.2487 55.8125 25.3398C55.8125 25.444 55.7735 25.5482 55.6953 25.6523C55.3438 26.1341 54.8815 26.5378 54.3086 26.8633C53.7357 27.1888 53.0977 27.3516 52.3945 27.3516Z" fill="#E5D7C4"/>
<path d="M70.3438 17.0391C70.3438 16.1797 69.9401 15.4635 69.1328 14.8906C68.3386 14.3177 67.2578 14.0312 65.8906 14.0312C65.3698 14.0312 65.0378 14.0508 64.8945 14.0898C64.7513 14.1289 64.6797 14.2135 64.6797 14.3438V20.0469C64.6797 20.151 64.7123 20.2161 64.7774 20.2422C64.8555 20.2682 65.0638 20.2812 65.4024 20.2812C66.8737 20.2812 68.0651 19.9818 68.9766 19.3828C69.888 18.7839 70.3438 18.0026 70.3438 17.0391ZM62.2188 13.3477C62.8828 13.3477 63.7292 13.3151 64.7578 13.25C65.7865 13.1719 66.5222 13.1328 66.9649 13.1328C68.6706 13.1328 69.9727 13.5365 70.8711 14.3438C71.6393 15.0469 72.0235 15.9128 72.0235 16.9414V16.9609C72.0104 17.6771 71.8151 18.3151 71.4375 18.875C71.0599 19.4219 70.5781 19.8516 69.9922 20.1641C69.0287 20.7109 67.5313 20.9844 65.5 20.9844H64.8945C64.7253 20.9844 64.6406 21.0885 64.6406 21.2969V25.3594C64.6406 25.5938 64.6797 25.7695 64.7578 25.8867C64.849 25.9909 65.0182 26.0495 65.2656 26.0625C66.4505 26.1146 67.082 26.1536 67.1602 26.1797C67.3425 26.2318 67.4336 26.3815 67.4336 26.6289V26.6484C67.4336 26.9609 67.3034 27.1172 67.043 27.1172L66.6524 27.0781C66.3919 27.0651 66.0404 27.0456 65.5977 27.0195C65.155 27.0065 64.7188 27 64.2891 27C63.8464 27 63.4037 27.0065 62.961 27.0195C62.5182 27.0456 62.1667 27.0651 61.9063 27.0781L61.5156 27.1172C61.2422 27.1172 61.1055 26.9609 61.1055 26.6484C61.1055 26.5964 61.1055 26.5508 61.1055 26.5117C61.1185 26.4596 61.125 26.4206 61.125 26.3945C61.138 26.3555 61.1576 26.3229 61.1836 26.2969C61.2097 26.2708 61.2292 26.2513 61.2422 26.2383C61.2682 26.2122 61.3008 26.1927 61.3399 26.1797C61.3919 26.1667 61.431 26.1602 61.457 26.1602C61.4961 26.1471 61.5482 26.1406 61.6133 26.1406C61.6914 26.1276 61.7565 26.1211 61.8086 26.1211C61.8737 26.1081 61.9583 26.1016 62.0625 26.1016C62.1667 26.0885 62.2643 26.0755 62.3555 26.0625C62.5768 26.0365 62.7201 25.9844 62.7852 25.9062C62.8633 25.8151 62.9024 25.6849 62.9024 25.5156V14.8125C62.9024 14.7083 62.8958 14.6302 62.8828 14.5781C62.8828 14.513 62.8438 14.4544 62.7656 14.4023C62.7005 14.3372 62.6029 14.3047 62.4727 14.3047H61.75C61.6589 14.3047 61.5873 14.2982 61.5352 14.2852C61.4831 14.2721 61.4245 14.2266 61.3594 14.1484C61.3073 14.0573 61.2813 13.9336 61.2813 13.7773C61.2813 13.4909 61.4245 13.3477 61.711 13.3477H62.2188Z" fill="#E5D7C4"/>
<path d="M75.1485 19.4609C75.1615 19.4609 75.3047 19.3698 75.5781 19.1875C75.8516 18.9922 76.1576 18.7839 76.4961 18.5625C76.8346 18.3411 77.082 18.2044 77.2383 18.1523C77.3945 18.1003 77.5899 18.0742 77.8242 18.0742C78.1888 18.0742 78.5404 18.1589 78.8789 18.3281C79.2175 18.4844 79.3867 18.6927 79.3867 18.9531V18.9727C79.3867 19.0508 79.3607 19.1289 79.3086 19.207C79.2565 19.2852 79.211 19.3438 79.1719 19.3828C79.1328 19.4219 79.0677 19.4805 78.9766 19.5586L78.8399 19.6758C78.8268 19.6758 78.7552 19.7279 78.625 19.832C78.5078 19.9232 78.4037 19.9883 78.3125 20.0273C78.2214 20.0664 78.1237 20.0859 78.0195 20.0859C77.8633 20.0859 77.681 20.0013 77.4727 19.832C77.2774 19.6628 77.0625 19.5781 76.8281 19.5781C76.5417 19.5781 76.2357 19.6823 75.9102 19.8906C75.5846 20.099 75.3763 20.2682 75.2852 20.3984C75.2331 20.4766 75.207 20.6003 75.207 20.7695V25.6328C75.207 26.0104 75.3698 26.2122 75.6953 26.2383C75.8255 26.2513 76.0013 26.2643 76.2227 26.2773C76.6263 26.3034 76.8802 26.3424 76.9844 26.3945C77.1016 26.4336 77.1602 26.5443 77.1602 26.7266C77.1602 26.987 77.069 27.1172 76.8867 27.1172C76.8737 27.1172 76.8281 27.1107 76.75 27.0977C76.6849 27.0977 76.5873 27.0911 76.457 27.0781C76.3268 27.0651 76.1836 27.0521 76.0274 27.0391C75.8711 27.026 75.6823 27.013 75.461 27C75.2526 27 75.0508 27 74.8555 27C74.6471 27 74.4388 27 74.2305 27C74.0221 27.013 73.8334 27.026 73.6641 27.0391C73.5078 27.0521 73.3646 27.0651 73.2344 27.0781C73.1172 27.0911 73.0195 27.0977 72.9414 27.0977C72.8763 27.1107 72.8373 27.1172 72.8242 27.1172C72.6029 27.1172 72.4922 27.0065 72.4922 26.7852C72.4922 26.668 72.5182 26.5833 72.5703 26.5312C72.6224 26.4661 72.6745 26.4271 72.7266 26.4141C72.7787 26.388 72.8763 26.3685 73.0195 26.3555C73.1758 26.3294 73.2995 26.3034 73.3906 26.2773C73.638 26.2253 73.7617 26.069 73.7617 25.8086V20.4961C73.7617 20.418 73.7552 20.3594 73.7422 20.3203C73.7292 20.2682 73.6901 20.2161 73.625 20.1641C73.5729 20.099 73.5143 20.0469 73.4492 20.0078C73.3971 19.9688 73.2865 19.8906 73.1172 19.7734C72.9479 19.6562 72.7917 19.5456 72.6485 19.4414C72.6094 19.4023 72.5834 19.3568 72.5703 19.3047C72.5703 19.2526 72.8373 19.1029 73.3711 18.8555C73.8529 18.6211 74.2891 18.4062 74.6797 18.2109C74.6927 18.2109 74.7123 18.2044 74.7383 18.1914C74.7904 18.1654 74.8294 18.1523 74.8555 18.1523C75.0117 18.1523 75.0899 18.2891 75.0899 18.5625V19.3633C75.0899 19.4284 75.1094 19.4609 75.1485 19.4609Z" fill="#E5D7C4"/>
<path d="M79.836 22.918C79.836 21.5768 80.2591 20.4831 81.1055 19.6367C81.9649 18.7904 82.9805 18.3672 84.1524 18.3672C85.3503 18.3672 86.3464 18.7969 87.1406 19.6562C87.9349 20.5026 88.332 21.5898 88.332 22.918C88.332 24.2852 87.9154 25.3724 87.082 26.1797C86.2617 26.974 85.2591 27.3711 84.0742 27.3711C82.8242 27.3711 81.8021 26.9414 81.0078 26.082C80.2266 25.2227 79.836 24.168 79.836 22.918ZM82.1406 25.3984C82.6485 26.0625 83.3125 26.3945 84.1328 26.3945C84.9531 26.3945 85.6302 26.0625 86.1641 25.3984C86.6979 24.7214 86.9649 23.9206 86.9649 22.9961C86.9649 21.9544 86.6654 21.082 86.0664 20.3789C85.4805 19.6628 84.7969 19.3047 84.0156 19.3047C83.3646 19.3047 82.7591 19.5911 82.1992 20.1641C81.6524 20.737 81.3789 21.6224 81.3789 22.8203C81.3789 23.862 81.6328 24.7214 82.1406 25.3984Z" fill="#E5D7C4"/>
</g>
<defs>
<filter id="filter0_d_85_233" x="0" y="0" width="97.9922" height="50" filterUnits="userSpaceOnUse" color-interpolation-filters="sRGB">
<feFlood flood-opacity="0" result="BackgroundImageFix"/>
<feColorMatrix in="SourceAlpha" type="matrix" values="0 0 0 0 0 0 0 0 0 0 0 0 0 0 0 0 0 0 127 0" result="hardAlpha"/>
<feOffset dy="4"/>
<feGaussianBlur stdDeviation="2"/>
<feComposite in2="hardAlpha" operator="out"/>
<feColorMatrix type="matrix" values="0 0 0 0 0 0 0 0 0 0 0 0 0 0 0 0 0 0 0.25 0"/>
<feBlend mode="normal" in2="BackgroundImageFix" result="effect1_dropShadow_85_233"/>
<feBlend mode="normal" in="SourceGraphic" in2="effect1_dropShadow_85_233" result="shape"/>
</filter>
</defs>
</svg>
