<svg width="84" height="99" viewBox="0 0 84 99" fill="none" xmlns="http://www.w3.org/2000/svg">
<path d="M1.41895 47.125H79.4189M41.5332 42.375L3.64752 68.5L10.3332 47.191L3.64752 23.375L41.5332 42.375ZM41.5332 42.375L79.4189 68.5L72.7332 47.191L79.4189 23.375L41.5332 42.375ZM19.2475 42.375V92.0341C19.2475 97 21.6671 97 24.0867 97H56.7512C60.3806 97 61.5904 97 61.5904 92.0341V42.375M19.2475 63.75C19.2475 66.9167 61.5904 66.9167 61.5904 63.75M19.2475 56.625C19.2475 59.7917 61.5904 59.7917 61.5904 56.625M19.2475 70.875C19.2475 74.0417 61.5904 74.0417 61.5904 70.875M19.2475 78C19.2475 81.1667 61.5904 81.1667 61.5904 78M19.2475 85.125C19.2475 88.2917 61.5904 88.2917 61.5904 85.125M19.2475 16.5294C19.2475 22.3744 61.3281 22.6049 61.5904 16.5294C61.3281 10.4539 19.2475 10.6844 19.2475 16.5294ZM19.2475 12.0588C19.2475 17.9038 61.3281 18.1343 61.5904 12.0588C61.3281 5.98335 19.2475 6.21384 19.2475 12.0588ZM19.2475 6.47059C19.2475 12.3156 61.3281 12.5461 61.5904 6.47059C61.3281 0.395115 19.2475 0.625607 19.2475 6.47059ZM17.0189 19.8824C17.0189 21.3436 63.529 21.4012 63.8189 19.8824C63.529 18.3635 17.0189 18.4211 17.0189 19.8824ZM17.0189 18.7647C17.0189 20.226 63.529 20.2836 63.8189 18.7647C63.529 17.2458 17.0189 17.3035 17.0189 18.7647ZM17.0189 17.3676C17.0189 18.8289 63.529 18.8865 63.8189 17.3676C63.529 15.8488 17.0189 15.9064 17.0189 17.3676ZM17.0189 42.375H63.8189V27.5654C63.8189 23.4433 60.5538 21 60.5538 21H20.2841C20.2841 21 17.0189 22.1875 17.0189 26.9375V42.375Z" stroke="#312F29" stroke-width="4"/>
</svg>
