<svg width="105" height="43" viewBox="0 0 105 43" fill="none" xmlns="http://www.w3.org/2000/svg">
<path d="M99.3255 42.0625C99.8161 42.3163 100.419 42.1243 100.673 41.6337L104.808 33.6398C105.062 33.1492 104.87 32.5459 104.379 32.2921C103.889 32.0384 103.285 32.2304 103.032 32.7209L99.3562 39.8267L92.2504 36.1513C91.7599 35.8976 91.1565 36.0895 90.9028 36.5801C90.6491 37.0706 90.841 37.674 91.3316 37.9277L99.3255 42.0625ZM0.284973 3.67422L0.569929 4.63276C9.63629 1.9375 30.8377 0.307273 51.5083 4.83865C72.1819 9.37067 91.9926 19.9822 98.832 41.4775L99.785 41.1743L100.738 40.8711C93.5773 18.3663 72.8881 7.47799 51.9366 2.88505C30.9823 -1.70852 9.43366 -0.0887619 1.72257e-05 2.71568L0.284973 3.67422Z" fill="#312F29"/>
</svg>
