<svg width="76" height="41" viewBox="0 0 76 41" fill="none" xmlns="http://www.w3.org/2000/svg">
<path d="M5.59444 40.7181C5.10388 40.9718 4.50053 40.7798 4.2468 40.2893L0.111984 32.2953C-0.141754 31.8048 0.0502243 31.2014 0.540779 30.9477C1.03133 30.6939 1.63468 30.8859 1.88842 31.3765L5.5638 38.4822L12.6695 34.8068C13.1601 34.5531 13.7635 34.7451 14.0172 35.2356C14.2709 35.7262 14.0789 36.3295 13.5884 36.5832L5.59444 40.7181ZM75.635 4.00394L75.3501 4.96248C66.2061 2.24414 52.2961 0.245153 38.9897 4.31082C25.7533 8.35511 12.9922 18.4339 6.08794 40.133L5.13501 39.8298L4.18208 39.5266C11.2778 17.2257 24.5167 6.64168 38.4053 2.39811C52.2239 -1.82407 66.564 0.264032 75.92 3.0454L75.635 4.00394Z" fill="#312F29"/>
</svg>
