<svg width="124" height="50" viewBox="0 0 124 50" fill="none" xmlns="http://www.w3.org/2000/svg">
<g filter="url(#filter0_d_85_241)">
<path d="M4.00001 21C4.87211 49 119.118 49 119.99 21C119.118 -6.99999 4.87211 -7.00001 4.00001 21Z" fill="#A88C40"/>
<path d="M24.5067 17.0391C24.5067 16.1797 24.1031 15.4635 23.2958 14.8906C22.5015 14.3177 21.4208 14.0312 20.0536 14.0312C19.5328 14.0312 19.2007 14.0508 19.0575 14.0898C18.9143 14.1289 18.8427 14.2135 18.8427 14.3437V20.0469C18.8427 20.151 18.8752 20.2161 18.9403 20.2422C19.0184 20.2682 19.2268 20.2812 19.5653 20.2812C21.0367 20.2812 22.2281 19.9818 23.1395 19.3828C24.051 18.7838 24.5067 18.0026 24.5067 17.0391ZM16.3817 13.3476C17.0458 13.3476 17.8921 13.3151 18.9208 13.25C19.9494 13.1719 20.6851 13.1328 21.1278 13.1328C22.8335 13.1328 24.1356 13.5364 25.0341 14.3437C25.8023 15.0469 26.1864 15.9128 26.1864 16.9414V16.9609C26.1734 17.6771 25.9781 18.3151 25.6005 18.875C25.2229 19.4219 24.7411 19.8516 24.1552 20.1641C23.1916 20.7109 21.6942 20.9844 19.663 20.9844H19.0575C18.8882 20.9844 18.8036 21.0885 18.8036 21.2969V25.3594C18.8036 25.5937 18.8427 25.7695 18.9208 25.8867C19.0119 25.9909 19.1812 26.0495 19.4286 26.0625C20.6135 26.1146 21.245 26.1536 21.3231 26.1797C21.5054 26.2318 21.5966 26.3815 21.5966 26.6289V26.6484C21.5966 26.9609 21.4663 27.1172 21.2059 27.1172L20.8153 27.0781C20.5549 27.0651 20.2033 27.0456 19.7606 27.0195C19.3179 27.0065 18.8817 27 18.452 27C18.0093 27 17.5666 27.0065 17.1239 27.0195C16.6812 27.0456 16.3296 27.0651 16.0692 27.0781L15.6786 27.1172C15.4052 27.1172 15.2684 26.9609 15.2684 26.6484C15.2684 26.5963 15.2684 26.5508 15.2684 26.5117C15.2815 26.4596 15.288 26.4206 15.288 26.3945C15.301 26.3555 15.3205 26.3229 15.3466 26.2969C15.3726 26.2708 15.3921 26.2513 15.4052 26.2383C15.4312 26.2122 15.4637 26.1927 15.5028 26.1797C15.5549 26.1667 15.594 26.1601 15.62 26.1601C15.6591 26.1471 15.7111 26.1406 15.7762 26.1406C15.8544 26.1276 15.9195 26.1211 15.9716 26.1211C16.0367 26.1081 16.1213 26.1016 16.2255 26.1016C16.3296 26.0885 16.4273 26.0755 16.5184 26.0625C16.7398 26.0364 16.883 25.9844 16.9481 25.9062C17.0262 25.8151 17.0653 25.6849 17.0653 25.5156V14.8125C17.0653 14.7083 17.0588 14.6302 17.0458 14.5781C17.0458 14.513 17.0067 14.4544 16.9286 14.4023C16.8635 14.3372 16.7658 14.3047 16.6356 14.3047H15.913C15.8218 14.3047 15.7502 14.2982 15.6981 14.2851C15.646 14.2721 15.5874 14.2266 15.5223 14.1484C15.4703 14.0573 15.4442 13.9336 15.4442 13.7773C15.4442 13.4909 15.5874 13.3476 15.8739 13.3476H16.3817Z" fill="#E5D7C4"/>
<path d="M26.8505 22.918C26.8505 21.5768 27.2736 20.4831 28.12 19.6367C28.9794 18.7904 29.995 18.3672 31.1669 18.3672C32.3648 18.3672 33.3609 18.7969 34.1552 19.6562C34.9494 20.5026 35.3466 21.5898 35.3466 22.918C35.3466 24.2851 34.9299 25.3724 34.0966 26.1797C33.2762 26.9739 32.2736 27.3711 31.0887 27.3711C29.8387 27.3711 28.8166 26.9414 28.0223 26.082C27.2411 25.2226 26.8505 24.168 26.8505 22.918ZM29.1552 25.3984C29.663 26.0625 30.327 26.3945 31.1473 26.3945C31.9677 26.3945 32.6447 26.0625 33.1786 25.3984C33.7124 24.7213 33.9794 23.9206 33.9794 22.9961C33.9794 21.9544 33.6799 21.082 33.0809 20.3789C32.495 19.6628 31.8114 19.3047 31.0302 19.3047C30.3791 19.3047 29.7736 19.5911 29.2137 20.1641C28.6669 20.737 28.3934 21.6224 28.3934 22.8203C28.3934 23.862 28.6473 24.7213 29.1552 25.3984Z" fill="#E5D7C4"/>
<path d="M50.4637 18.6992C50.6591 18.6992 50.7567 18.8099 50.7567 19.0312C50.7567 19.1354 50.7372 19.22 50.6981 19.2851C50.6721 19.3503 50.633 19.3958 50.5809 19.4219C50.5289 19.4349 50.4768 19.4479 50.4247 19.4609C50.3856 19.4739 50.327 19.4805 50.2489 19.4805C50.1838 19.4805 50.1447 19.4805 50.1317 19.4805C49.8973 19.5325 49.7281 19.7344 49.6239 20.0859C49.5328 20.4245 49.2528 21.2448 48.7841 22.5469C48.3153 23.8359 47.6252 25.3203 46.7137 27C46.5315 27.3385 46.3427 27.5078 46.1473 27.5078C45.9911 27.5078 45.8414 27.4036 45.6981 27.1953C45.5679 26.987 45.3205 26.5508 44.9559 25.8867C44.8127 25.6263 44.702 25.418 44.6239 25.2617C43.7645 23.6341 43.3218 22.8138 43.2958 22.8008C43.2567 22.8008 42.9898 23.3281 42.495 24.3828C41.5575 26.2708 41.0562 27.2474 40.9911 27.3125C40.8869 27.4427 40.7697 27.5078 40.6395 27.5078C40.4312 27.5078 40.2359 27.332 40.0536 26.9805C39.4156 25.7825 38.8361 24.6042 38.3153 23.4453C37.7945 22.2864 37.4039 21.388 37.1434 20.75C36.896 20.0989 36.7658 19.7669 36.7528 19.7539C36.6877 19.6237 36.5966 19.5391 36.4794 19.5C36.3752 19.4479 36.2775 19.4284 36.1864 19.4414C36.1083 19.4414 36.0367 19.4154 35.9716 19.3633C35.9065 19.2982 35.8739 19.1875 35.8739 19.0312C35.8739 18.8099 35.9976 18.6992 36.245 18.6992C36.271 18.6992 36.3427 18.7057 36.4598 18.7187C36.59 18.7187 36.7658 18.7253 36.9872 18.7383C37.2085 18.7513 37.4494 18.7578 37.7098 18.7578H37.7684C38.0158 18.7578 38.2502 18.7513 38.4716 18.7383C38.6929 18.7253 38.8622 18.7187 38.9794 18.7187C39.1096 18.7057 39.1877 18.6992 39.2137 18.6992C39.37 18.6992 39.4481 18.8099 39.4481 19.0312C39.4481 19.2917 39.2398 19.4284 38.8231 19.4414C38.4195 19.4544 38.2177 19.5586 38.2177 19.7539C38.2177 19.8581 38.2567 19.9883 38.3348 20.1445C38.9729 21.8112 39.7216 23.4844 40.5809 25.1641C40.633 25.2682 40.6981 25.3203 40.7762 25.3203C40.8153 25.3203 40.8479 25.3073 40.8739 25.2812C40.913 25.2552 40.939 25.2357 40.952 25.2226C40.965 25.1966 40.9716 25.1771 40.9716 25.1641C41.3492 24.5911 41.7398 23.9075 42.1434 23.1133C42.5601 22.306 42.7749 21.8242 42.788 21.668V21.6484C42.788 21.5833 42.6773 21.3099 42.4559 20.8281C42.2346 20.3333 42.0979 20.0469 42.0458 19.9687C41.9286 19.7995 41.7789 19.6823 41.5966 19.6172C41.4143 19.5391 41.245 19.5065 41.0887 19.5195C40.9455 19.5195 40.8153 19.5 40.6981 19.4609C40.594 19.4088 40.5419 19.3112 40.5419 19.168C40.5419 18.8555 40.646 18.6992 40.8544 18.6992C40.8934 18.6992 40.9976 18.7057 41.1669 18.7187C41.3492 18.7187 41.5966 18.7253 41.9091 18.7383C42.2216 18.7513 42.5601 18.7578 42.9247 18.7578C43.2893 18.7578 43.6213 18.7513 43.9208 18.7383C44.2333 18.7253 44.4742 18.7187 44.6434 18.7187C44.8257 18.7057 44.9364 18.6992 44.9755 18.6992C45.1578 18.6992 45.2489 18.7969 45.2489 18.9922V19.1289C45.2489 19.2591 45.2164 19.3372 45.1512 19.3633C45.0992 19.3893 44.9039 19.4154 44.5653 19.4414C44.37 19.4544 44.2137 19.4674 44.0966 19.4805C43.7841 19.5065 43.6278 19.6432 43.6278 19.8906C43.6278 20.112 43.8947 20.7891 44.4286 21.9219C44.9624 23.0547 45.5289 24.0898 46.1278 25.0273C46.232 25.2096 46.3427 25.3008 46.4598 25.3008C46.577 25.3008 46.6552 25.2422 46.6942 25.125C47.1239 24.3698 47.495 23.569 47.8075 22.7226C48.133 21.8763 48.3479 21.2318 48.452 20.7891C48.5692 20.3333 48.6278 20.0469 48.6278 19.9297C48.6278 19.8776 48.6213 19.832 48.6083 19.793C48.6083 19.7409 48.5953 19.7018 48.5692 19.6758C48.5432 19.6497 48.5171 19.6237 48.4911 19.5976C48.4781 19.5716 48.4455 19.5521 48.3934 19.5391C48.3544 19.526 48.3153 19.5195 48.2762 19.5195C48.2372 19.5065 48.1786 19.5 48.1005 19.5C48.0354 19.487 47.9768 19.4805 47.9247 19.4805C47.8726 19.4674 47.7945 19.4609 47.6903 19.4609C47.5861 19.4479 47.495 19.4414 47.4169 19.4414C47.1825 19.4154 47.0653 19.2786 47.0653 19.0312C47.0653 18.8099 47.1434 18.6992 47.2997 18.6992C47.3257 18.6992 47.4039 18.7057 47.5341 18.7187C47.6643 18.7318 47.8466 18.7448 48.0809 18.7578C48.3283 18.7708 48.5887 18.7773 48.8622 18.7773C49.1486 18.7773 49.4091 18.7708 49.6434 18.7578C49.8908 18.7448 50.0796 18.7318 50.2098 18.7187C50.3531 18.7057 50.4377 18.6992 50.4637 18.6992Z" fill="#E5D7C4"/>
<path d="M51.245 22.8789C51.245 21.5247 51.6031 20.4375 52.3192 19.6172C53.0354 18.7969 53.9078 18.3867 54.9364 18.3867C55.6005 18.3867 56.2385 18.569 56.8505 18.9336C57.4624 19.2982 57.9703 19.7539 58.3739 20.3008C58.4781 20.431 58.5302 20.5742 58.5302 20.7305V20.7695C58.5302 20.8867 58.4976 20.9909 58.4325 21.082C58.3674 21.1732 58.2632 21.2578 58.12 21.3359C57.9768 21.401 57.8531 21.4531 57.7489 21.4922C57.6447 21.5312 57.4885 21.5833 57.2802 21.6484C57.0848 21.7135 56.9611 21.7526 56.9091 21.7656C54.1877 22.7031 52.7945 23.1914 52.7294 23.2305C52.6773 23.2565 52.6512 23.2956 52.6512 23.3476C52.6512 23.4258 52.6708 23.556 52.7098 23.7383C52.7489 23.9206 52.8335 24.1614 52.9637 24.4609C53.107 24.7604 53.2762 25.0404 53.4716 25.3008C53.6799 25.5482 53.9729 25.7695 54.3505 25.9648C54.7281 26.1471 55.1512 26.2383 55.62 26.2383C56.5315 26.2383 57.3257 25.9128 58.0028 25.2617C58.1851 25.0794 58.3348 24.9883 58.452 24.9883C58.6734 24.9883 58.7841 25.0859 58.7841 25.2812C58.7841 25.3594 58.732 25.4635 58.6278 25.5937C58.2111 26.1406 57.6903 26.5768 57.0653 26.9023C56.4403 27.2148 55.7828 27.3711 55.0927 27.3711C54.6499 27.3711 54.2137 27.293 53.7841 27.1367C53.3674 26.9805 52.9572 26.7396 52.5536 26.4141C52.163 26.0885 51.844 25.6198 51.5966 25.0078C51.3622 24.3958 51.245 23.6862 51.245 22.8789ZM56.5966 20.8086C56.5966 20.6393 56.3687 20.3789 55.913 20.0273C55.4572 19.6628 54.982 19.4805 54.4872 19.4805C53.9012 19.4805 53.4325 19.7344 53.0809 20.2422C52.7424 20.75 52.5731 21.4466 52.5731 22.332C52.5731 22.4362 52.6057 22.4883 52.6708 22.4883C52.6968 22.4883 53.3153 22.2539 54.5262 21.7851C55.7502 21.3034 56.3817 21.056 56.4208 21.043C56.538 20.9779 56.5966 20.8997 56.5966 20.8086Z" fill="#E5D7C4"/>
<path d="M61.8505 19.4609C61.8635 19.4609 62.0067 19.3698 62.2802 19.1875C62.5536 18.9922 62.8596 18.7838 63.1981 18.5625C63.5367 18.3411 63.7841 18.2044 63.9403 18.1523C64.0966 18.1003 64.2919 18.0742 64.5262 18.0742C64.8908 18.0742 65.2424 18.1588 65.5809 18.3281C65.9195 18.4844 66.0887 18.6927 66.0887 18.9531V18.9726C66.0887 19.0508 66.0627 19.1289 66.0106 19.207C65.9585 19.2851 65.913 19.3437 65.8739 19.3828C65.8348 19.4219 65.7697 19.4805 65.6786 19.5586L65.5419 19.6758C65.5289 19.6758 65.4572 19.7279 65.327 19.832C65.2098 19.9232 65.1057 19.9883 65.0145 20.0273C64.9234 20.0664 64.8257 20.0859 64.7216 20.0859C64.5653 20.0859 64.383 20.0013 64.1747 19.832C63.9794 19.6628 63.7645 19.5781 63.5302 19.5781C63.2437 19.5781 62.9377 19.6823 62.6122 19.8906C62.2867 20.0989 62.0783 20.2682 61.9872 20.3984C61.9351 20.4766 61.9091 20.6003 61.9091 20.7695V25.6328C61.9091 26.0104 62.0718 26.2122 62.3973 26.2383C62.5275 26.2513 62.7033 26.2643 62.9247 26.2773C63.3283 26.3034 63.5822 26.3424 63.6864 26.3945C63.8036 26.4336 63.8622 26.5443 63.8622 26.7266C63.8622 26.987 63.771 27.1172 63.5887 27.1172C63.5757 27.1172 63.5302 27.1107 63.452 27.0976C63.3869 27.0976 63.2893 27.0911 63.1591 27.0781C63.0289 27.0651 62.8856 27.0521 62.7294 27.0391C62.5731 27.026 62.3843 27.013 62.163 27C61.9546 27 61.7528 27 61.5575 27C61.3492 27 61.1408 27 60.9325 27C60.7242 27.013 60.5354 27.026 60.3661 27.0391C60.2098 27.0521 60.0666 27.0651 59.9364 27.0781C59.8192 27.0911 59.7216 27.0976 59.6434 27.0976C59.5783 27.1107 59.5393 27.1172 59.5262 27.1172C59.3049 27.1172 59.1942 27.0065 59.1942 26.7851C59.1942 26.668 59.2203 26.5833 59.2723 26.5312C59.3244 26.4661 59.3765 26.4271 59.4286 26.4141C59.4807 26.388 59.5783 26.3685 59.7216 26.3555C59.8778 26.3294 60.0015 26.3034 60.0927 26.2773C60.34 26.2253 60.4637 26.069 60.4637 25.8086V20.4961C60.4637 20.418 60.4572 20.3594 60.4442 20.3203C60.4312 20.2682 60.3921 20.2161 60.327 20.1641C60.2749 20.0989 60.2164 20.0469 60.1512 20.0078C60.0992 19.9687 59.9885 19.8906 59.8192 19.7734C59.6499 19.6562 59.4937 19.5456 59.3505 19.4414C59.3114 19.4023 59.2854 19.3568 59.2723 19.3047C59.2723 19.2526 59.5393 19.1029 60.0731 18.8555C60.5549 18.6211 60.9911 18.4062 61.3817 18.2109C61.3947 18.2109 61.4143 18.2044 61.4403 18.1914C61.4924 18.1654 61.5315 18.1523 61.5575 18.1523C61.7137 18.1523 61.7919 18.2891 61.7919 18.5625V19.3633C61.7919 19.4284 61.8114 19.4609 61.8505 19.4609Z" fill="#E5D7C4"/>
<path d="M76.1083 26.4531C76.9546 26.4531 77.6903 26.1341 78.3153 25.4961C78.9533 24.8581 79.2723 24.0573 79.2723 23.0937C79.2723 22.1432 78.9533 21.3164 78.3153 20.6133C77.6903 19.9101 76.9742 19.5586 76.1669 19.5586C75.6721 19.5586 75.2294 19.7018 74.8387 19.9883C74.4611 20.2487 74.2723 20.6588 74.2723 21.2187V25.5156C74.2723 25.776 74.4416 25.9844 74.7802 26.1406C75.1968 26.3489 75.6395 26.4531 76.1083 26.4531ZM76.8309 18.3867C77.9247 18.3867 78.8231 18.8099 79.5262 19.6562C80.2424 20.5026 80.6005 21.5182 80.6005 22.7031C80.6005 24.0182 80.1578 25.0859 79.2723 25.9062C78.3869 26.7266 77.2476 27.1367 75.8544 27.1367C75.7242 27.1367 75.594 27.1302 75.4637 27.1172C75.3335 27.1172 75.2163 27.1107 75.1122 27.0976C75.008 27.0846 74.9169 27.0716 74.8387 27.0586C74.7606 27.0456 74.6955 27.0391 74.6434 27.0391L74.5653 27.0195C74.4742 27.0195 74.4286 27.0911 74.4286 27.2344V30.0469C74.4286 30.3594 74.5783 30.5286 74.8778 30.5547C75.008 30.5677 75.1578 30.5807 75.327 30.5937C75.5093 30.6068 75.6395 30.6133 75.7177 30.6133C75.7958 30.6263 75.8869 30.6393 75.9911 30.6523C76.0953 30.6654 76.1669 30.6849 76.2059 30.7109C76.258 30.737 76.3036 30.7695 76.3427 30.8086C76.3947 30.8476 76.4273 30.8932 76.4403 30.9453C76.4533 31.0104 76.4598 31.0885 76.4598 31.1797C76.4598 31.375 76.3817 31.4726 76.2255 31.4726C76.1994 31.4726 76.1018 31.4661 75.9325 31.4531C75.7762 31.4401 75.5549 31.4271 75.2684 31.4141C74.982 31.401 74.676 31.3945 74.3505 31.3945C73.9208 31.3945 73.4911 31.4075 73.0614 31.4336C72.6447 31.4596 72.3127 31.4857 72.0653 31.5117L71.6942 31.5508C71.4729 31.5508 71.3622 31.4206 71.3622 31.1601C71.3622 31.1211 71.3622 31.082 71.3622 31.043C71.3752 31.0169 71.3882 30.9909 71.4012 30.9648C71.4273 30.9518 71.4468 30.9323 71.4598 30.9062C71.4729 30.8932 71.4989 30.8737 71.538 30.8476C71.59 30.8346 71.6291 30.8216 71.6552 30.8086C71.6942 30.8086 71.7463 30.7956 71.8114 30.7695C71.8895 30.7565 71.9546 30.7435 72.0067 30.7305C72.0718 30.7305 72.1565 30.7174 72.2606 30.6914C72.3648 30.6654 72.4559 30.6458 72.5341 30.6328C72.8205 30.5807 72.9637 30.3984 72.9637 30.0859V20.8086C72.9637 20.6003 72.8791 20.4635 72.7098 20.3984C72.5275 20.3203 72.3062 20.2226 72.0458 20.1055C71.7072 19.9622 71.5054 19.8711 71.4403 19.832C71.3882 19.793 71.3622 19.7474 71.3622 19.6953V19.6758C71.3622 19.6237 71.6552 19.4284 72.2411 19.0898C72.7098 18.8164 73.133 18.569 73.5106 18.3476C73.5497 18.3216 73.5887 18.3021 73.6278 18.2891C73.6669 18.263 73.6929 18.2435 73.7059 18.2305C73.732 18.2044 73.7515 18.1914 73.7645 18.1914C73.7906 18.1784 73.8166 18.1719 73.8427 18.1719C73.9468 18.1719 73.9989 18.25 73.9989 18.4062V19.5781C73.9989 19.6562 74.0249 19.6953 74.077 19.6953L74.3309 19.4219C74.5002 19.2396 74.7671 19.0443 75.1317 18.8359C75.4963 18.6146 75.9065 18.4713 76.3622 18.4062C76.4663 18.3932 76.6226 18.3867 76.8309 18.3867Z" fill="#E5D7C4"/>
<path d="M81.4012 22.918C81.4012 21.5768 81.8244 20.4831 82.6708 19.6367C83.5302 18.7904 84.5458 18.3672 85.7177 18.3672C86.9156 18.3672 87.9117 18.7969 88.7059 19.6562C89.5002 20.5026 89.8973 21.5898 89.8973 22.918C89.8973 24.2851 89.4807 25.3724 88.6473 26.1797C87.827 26.9739 86.8244 27.3711 85.6395 27.3711C84.3895 27.3711 83.3674 26.9414 82.5731 26.082C81.7919 25.2226 81.4012 24.168 81.4012 22.918ZM83.7059 25.3984C84.2137 26.0625 84.8778 26.3945 85.6981 26.3945C86.5184 26.3945 87.1955 26.0625 87.7294 25.3984C88.2632 24.7213 88.5302 23.9206 88.5302 22.9961C88.5302 21.9544 88.2307 21.082 87.6317 20.3789C87.0458 19.6628 86.3622 19.3047 85.5809 19.3047C84.9299 19.3047 84.3244 19.5911 83.7645 20.1641C83.2177 20.737 82.9442 21.6224 82.9442 22.8203C82.9442 23.862 83.1981 24.7213 83.7059 25.3984Z" fill="#E5D7C4"/>
<path d="M92.1825 24.5781C92.1825 23.901 92.1825 23.2695 92.1825 22.6836C92.1825 22.0976 92.1825 21.6419 92.1825 21.3164C92.1955 20.9779 92.202 20.776 92.202 20.7109C92.202 20.5677 92.1499 20.47 92.0458 20.418C91.9546 20.3529 91.5575 20.1771 90.8544 19.8906C90.6851 19.8255 90.6005 19.7409 90.6005 19.6367C90.6005 19.5976 90.607 19.5586 90.62 19.5195C90.646 19.4805 90.6786 19.4479 90.7177 19.4219C90.7697 19.3958 90.8153 19.3763 90.8544 19.3633C90.8934 19.3372 90.9455 19.3112 91.0106 19.2851C91.0757 19.2591 91.1213 19.2396 91.1473 19.2266C92.6057 18.5234 93.3413 18.1719 93.3544 18.1719H93.3739C93.5562 18.1719 93.6473 18.2825 93.6473 18.5039L93.6278 19.1484C93.6018 19.5781 93.5757 20.1575 93.5497 20.8867C93.5367 21.6029 93.5302 22.319 93.5302 23.0351V23.6992C93.5302 24.9362 93.5497 25.6654 93.5887 25.8867C93.6278 26.1081 93.758 26.2318 93.9794 26.2578C94.37 26.3099 94.6174 26.3555 94.7216 26.3945C94.8257 26.4336 94.8778 26.5312 94.8778 26.6875C94.8778 26.9739 94.7997 27.1172 94.6434 27.1172C94.6304 27.1172 94.5913 27.1107 94.5262 27.0976C94.4611 27.0976 94.37 27.0911 94.2528 27.0781C94.1356 27.0651 94.0054 27.0521 93.8622 27.0391C93.719 27.026 93.5497 27.013 93.3544 27C93.1721 27 92.9898 27 92.8075 27C92.6252 27 92.4364 27 92.2411 27C92.0458 27.013 91.8765 27.026 91.7333 27.0391C91.6031 27.0521 91.4794 27.0651 91.3622 27.0781C91.245 27.0911 91.1538 27.0976 91.0887 27.0976C91.0236 27.1107 90.9846 27.1172 90.9716 27.1172C90.7632 27.1172 90.6591 27.0065 90.6591 26.7851C90.6591 26.5638 90.6981 26.4336 90.7762 26.3945C90.8674 26.3555 91.1604 26.3034 91.6552 26.2383C91.8895 26.1992 92.0328 26.1276 92.0848 26.0234C92.1499 25.9062 92.1825 25.737 92.1825 25.5156V24.5781ZM92.3778 14.6367C92.3778 14.3763 92.4755 14.1549 92.6708 13.9726C92.8661 13.7904 93.094 13.6992 93.3544 13.6992C93.6148 13.6992 93.8361 13.7904 94.0184 13.9726C94.2137 14.1549 94.3114 14.3698 94.3114 14.6172C94.3114 14.8906 94.2137 15.1185 94.0184 15.3008C93.8361 15.4831 93.6083 15.5742 93.3348 15.5742C93.0614 15.5742 92.8335 15.4896 92.6512 15.3203C92.469 15.138 92.3778 14.9101 92.3778 14.6367Z" fill="#E5D7C4"/>
<path d="M97.9637 19.4609C97.9637 19.513 97.9833 19.5391 98.0223 19.5391H98.0419C98.0549 19.5391 98.1005 19.5 98.1786 19.4219C98.2697 19.3437 98.3934 19.2461 98.5497 19.1289C98.7059 19.0117 98.8882 18.8945 99.0966 18.7773C99.3049 18.6601 99.5588 18.5625 99.8583 18.4844C100.158 18.3932 100.47 18.3476 100.796 18.3476H100.835C101.108 18.3476 101.375 18.3867 101.636 18.4648C101.909 18.5299 102.196 18.6601 102.495 18.8555C102.807 19.0378 103.068 19.3307 103.276 19.7344C103.485 20.138 103.615 20.6328 103.667 21.2187C103.693 21.4401 103.706 21.7786 103.706 22.2344C103.706 22.2864 103.706 22.4167 103.706 22.625C103.706 22.8203 103.699 23.1784 103.686 23.6992C103.686 24.22 103.686 24.8841 103.686 25.6914V25.7305C103.686 25.7956 103.693 25.8607 103.706 25.9258C103.719 25.9779 103.725 26.0234 103.725 26.0625C103.738 26.0885 103.765 26.1211 103.804 26.1601C103.843 26.1862 103.869 26.2057 103.882 26.2187C103.908 26.2318 103.953 26.2513 104.018 26.2773C104.097 26.2904 104.149 26.2969 104.175 26.2969C104.214 26.2969 104.285 26.3034 104.39 26.3164C104.507 26.3294 104.591 26.3424 104.643 26.3555C104.839 26.3815 104.936 26.5052 104.936 26.7266C104.936 26.987 104.832 27.1172 104.624 27.1172C104.585 27.1172 104.494 27.1042 104.35 27.0781C104.207 27.0651 104.005 27.0456 103.745 27.0195C103.498 27.0065 103.231 27 102.944 27C102.775 27 102.606 27 102.436 27C102.267 27.013 102.117 27.026 101.987 27.0391C101.87 27.0521 101.759 27.0651 101.655 27.0781C101.551 27.0911 101.466 27.1042 101.401 27.1172H101.304C101.121 27.1172 101.03 26.987 101.03 26.7266C101.03 26.5833 101.069 26.4922 101.147 26.4531C101.225 26.4141 101.434 26.3685 101.772 26.3164C101.89 26.2904 101.987 26.2708 102.065 26.2578C102.196 26.2318 102.28 26.1927 102.319 26.1406C102.371 26.0755 102.397 25.9583 102.397 25.7891V22.6836C102.397 21.707 102.306 20.9844 102.124 20.5156C101.929 20.0729 101.636 19.7669 101.245 19.5976C100.854 19.4154 100.483 19.3242 100.132 19.3242C99.6239 19.3242 99.1682 19.4805 98.7645 19.793C98.3609 20.1055 98.133 20.3789 98.0809 20.6133C98.0549 20.7174 98.0419 20.8086 98.0419 20.8867V25.6719C98.0419 26.0104 98.1916 26.1992 98.4911 26.2383C99.077 26.3294 99.396 26.401 99.4481 26.4531C99.5262 26.5182 99.5653 26.6289 99.5653 26.7851C99.5653 27.0195 99.4807 27.1367 99.3114 27.1367C99.2984 27.1367 99.2528 27.1302 99.1747 27.1172C99.1096 27.1172 99.0184 27.1107 98.9012 27.0976C98.7841 27.0846 98.6538 27.0651 98.5106 27.0391C98.3674 27.026 98.1981 27.013 98.0028 27C97.8205 27 97.6382 27 97.4559 27C97.2736 27 97.0913 27 96.9091 27C96.7268 27.013 96.564 27.026 96.4208 27.0391C96.2906 27.0521 96.1734 27.0651 96.0692 27.0781C95.965 27.0911 95.8804 27.0976 95.8153 27.0976C95.7502 27.1107 95.7111 27.1172 95.6981 27.1172C95.4768 27.1172 95.3661 27 95.3661 26.7656C95.3661 26.5833 95.4052 26.4726 95.4833 26.4336C95.5744 26.3815 95.7958 26.3294 96.1473 26.2773C96.3817 26.2383 96.5249 26.1667 96.577 26.0625C96.6421 25.9583 96.6747 25.8021 96.6747 25.5937V20.8281C96.6747 20.5937 96.6421 20.4375 96.577 20.3594C96.5119 20.2682 96.245 20.0469 95.7762 19.6953C95.6981 19.6172 95.6591 19.5521 95.6591 19.5V19.4805C95.6591 19.4154 95.7046 19.3568 95.7958 19.3047C95.8869 19.2396 96.1669 19.0833 96.6356 18.8359C97.0002 18.6406 97.3062 18.4779 97.5536 18.3476C97.6317 18.2956 97.6968 18.2695 97.7489 18.2695C97.9052 18.2695 97.9833 18.3672 97.9833 18.5625V19.3437C97.9833 19.3568 97.9768 19.3828 97.9637 19.4219V19.4609Z" fill="#E5D7C4"/>
<path d="M105.913 19.6953C105.64 19.6953 105.503 19.6107 105.503 19.4414C105.503 19.3633 105.594 19.2461 105.776 19.0898C105.972 18.9206 106.245 18.6471 106.597 18.2695C106.948 17.8789 107.28 17.4232 107.593 16.9023C107.736 16.6549 107.866 16.5312 107.983 16.5312C108.166 16.5312 108.257 16.6419 108.257 16.8633C108.257 16.9544 108.25 17.1888 108.237 17.5664C108.237 17.944 108.237 18.1784 108.237 18.2695C108.237 18.5299 108.367 18.6601 108.628 18.6601H110.425C110.451 18.6601 110.483 18.6667 110.522 18.6797C110.561 18.6797 110.587 18.6797 110.6 18.6797C110.939 18.6797 111.108 18.8034 111.108 19.0508C111.108 19.2982 111.05 19.4935 110.932 19.6367C110.867 19.7018 110.75 19.7344 110.581 19.7344H108.237C108.107 19.7344 108.042 19.7995 108.042 19.9297C108.042 21.0104 108.035 21.9088 108.022 22.625C108.022 23.3411 108.016 23.8229 108.003 24.0703C108.003 24.3177 108.003 24.4935 108.003 24.5976C108.003 25.5872 108.348 26.082 109.038 26.082C109.311 26.082 109.598 25.9844 109.897 25.7891C110.197 25.5807 110.457 25.3789 110.679 25.1836C110.913 24.9753 111.089 24.8711 111.206 24.8711C111.31 24.8711 111.395 24.9101 111.46 24.9883C111.538 25.0664 111.577 25.151 111.577 25.2422C111.577 25.3203 111.531 25.431 111.44 25.5742C110.386 26.7721 109.455 27.3711 108.647 27.3711C108.166 27.3711 107.723 27.1823 107.319 26.8047C106.929 26.4141 106.701 25.7956 106.636 24.9492C106.623 24.806 106.616 24.5911 106.616 24.3047C106.616 23.9792 106.629 23.1914 106.655 21.9414C106.681 20.6784 106.694 19.9883 106.694 19.8711C106.694 19.7539 106.649 19.6953 106.557 19.6953H105.913Z" fill="#E5D7C4"/>
</g>
<defs>
<filter id="filter0_d_85_241" x="0" y="0" width="123.99" height="50" filterUnits="userSpaceOnUse" color-interpolation-filters="sRGB">
<feFlood flood-opacity="0" result="BackgroundImageFix"/>
<feColorMatrix in="SourceAlpha" type="matrix" values="0 0 0 0 0 0 0 0 0 0 0 0 0 0 0 0 0 0 127 0" result="hardAlpha"/>
<feOffset dy="4"/>
<feGaussianBlur stdDeviation="2"/>
<feComposite in2="hardAlpha" operator="out"/>
<feColorMatrix type="matrix" values="0 0 0 0 0 0 0 0 0 0 0 0 0 0 0 0 0 0 0.25 0"/>
<feBlend mode="normal" in2="BackgroundImageFix" result="effect1_dropShadow_85_241"/>
<feBlend mode="normal" in="SourceGraphic" in2="effect1_dropShadow_85_241" result="shape"/>
</filter>
</defs>
</svg>
