<svg width="129" height="50" viewBox="0 0 129 50" fill="none" xmlns="http://www.w3.org/2000/svg">
<g filter="url(#filter0_d_85_234)">
<path d="M4 21C4.90969 49 124.08 49 124.99 21C124.08 -6.99999 4.90969 -7.00001 4 21Z" fill="#A88C40"/>
<path d="M23.5065 17.0391C23.5065 16.1797 23.1028 15.4635 22.2955 14.8906C21.5013 14.3177 20.4205 14.0312 19.0534 14.0312C18.5325 14.0312 18.2005 14.0508 18.0573 14.0898C17.914 14.1289 17.8424 14.2135 17.8424 14.3437V20.0469C17.8424 20.151 17.875 20.2161 17.9401 20.2422C18.0182 20.2682 18.2265 20.2812 18.5651 20.2812C20.0364 20.2812 21.2278 19.9818 22.1393 19.3828C23.0508 18.7838 23.5065 18.0026 23.5065 17.0391ZM15.3815 13.3476C16.0455 13.3476 16.8919 13.3151 17.9205 13.25C18.9492 13.1719 19.6849 13.1328 20.1276 13.1328C21.8333 13.1328 23.1354 13.5364 24.0338 14.3437C24.8021 15.0469 25.1862 15.9128 25.1862 16.9414V16.9609C25.1732 17.6771 24.9778 18.3151 24.6002 18.875C24.2226 19.4219 23.7409 19.8516 23.1549 20.1641C22.1914 20.7109 20.694 20.9844 18.6627 20.9844H18.0573C17.888 20.9844 17.8034 21.0885 17.8034 21.2969V25.3594C17.8034 25.5937 17.8424 25.7695 17.9205 25.8867C18.0117 25.9909 18.181 26.0495 18.4284 26.0625C19.6133 26.1146 20.2448 26.1536 20.3229 26.1797C20.5052 26.2318 20.5963 26.3815 20.5963 26.6289V26.6484C20.5963 26.9609 20.4661 27.1172 20.2057 27.1172L19.8151 27.0781C19.5547 27.0651 19.2031 27.0456 18.7604 27.0195C18.3177 27.0065 17.8815 27 17.4518 27C17.0091 27 16.5664 27.0065 16.1237 27.0195C15.681 27.0456 15.3294 27.0651 15.069 27.0781L14.6784 27.1172C14.4049 27.1172 14.2682 26.9609 14.2682 26.6484C14.2682 26.5963 14.2682 26.5508 14.2682 26.5117C14.2812 26.4596 14.2877 26.4206 14.2877 26.3945C14.3008 26.3555 14.3203 26.3229 14.3463 26.2969C14.3724 26.2708 14.3919 26.2513 14.4049 26.2383C14.431 26.2122 14.4635 26.1927 14.5026 26.1797C14.5547 26.1667 14.5937 26.1601 14.6198 26.1601C14.6588 26.1471 14.7109 26.1406 14.776 26.1406C14.8541 26.1276 14.9192 26.1211 14.9713 26.1211C15.0364 26.1081 15.1211 26.1016 15.2252 26.1016C15.3294 26.0885 15.4271 26.0755 15.5182 26.0625C15.7396 26.0364 15.8828 25.9844 15.9479 25.9062C16.026 25.8151 16.0651 25.6849 16.0651 25.5156V14.8125C16.0651 14.7083 16.0586 14.6302 16.0455 14.5781C16.0455 14.513 16.0065 14.4544 15.9284 14.4023C15.8633 14.3372 15.7656 14.3047 15.6354 14.3047H14.9127C14.8216 14.3047 14.75 14.2982 14.6979 14.2851C14.6458 14.2721 14.5872 14.2266 14.5221 14.1484C14.47 14.0573 14.444 13.9336 14.444 13.7773C14.444 13.4909 14.5872 13.3476 14.8737 13.3476H15.3815Z" fill="#E5D7C4"/>
<path d="M28.3112 19.4609C28.3242 19.4609 28.4674 19.3698 28.7409 19.1875C29.0143 18.9922 29.3203 18.7838 29.6588 18.5625C29.9974 18.3411 30.2448 18.2044 30.401 18.1523C30.5573 18.1003 30.7526 18.0742 30.987 18.0742C31.3515 18.0742 31.7031 18.1588 32.0416 18.3281C32.3802 18.4844 32.5495 18.6927 32.5495 18.9531V18.9726C32.5495 19.0508 32.5234 19.1289 32.4713 19.207C32.4192 19.2851 32.3737 19.3437 32.3346 19.3828C32.2955 19.4219 32.2304 19.4805 32.1393 19.5586L32.0026 19.6758C31.9896 19.6758 31.9179 19.7279 31.7877 19.832C31.6705 19.9232 31.5664 19.9883 31.4752 20.0273C31.3841 20.0664 31.2864 20.0859 31.1823 20.0859C31.026 20.0859 30.8437 20.0013 30.6354 19.832C30.4401 19.6628 30.2252 19.5781 29.9909 19.5781C29.7044 19.5781 29.3984 19.6823 29.0729 19.8906C28.7474 20.0989 28.539 20.2682 28.4479 20.3984C28.3958 20.4766 28.3698 20.6003 28.3698 20.7695V25.6328C28.3698 26.0104 28.5325 26.2122 28.858 26.2383C28.9883 26.2513 29.164 26.2643 29.3854 26.2773C29.789 26.3034 30.0429 26.3424 30.1471 26.3945C30.2643 26.4336 30.3229 26.5443 30.3229 26.7266C30.3229 26.987 30.2317 27.1172 30.0495 27.1172C30.0364 27.1172 29.9909 27.1107 29.9127 27.0976C29.8476 27.0976 29.75 27.0911 29.6198 27.0781C29.4896 27.0651 29.3463 27.0521 29.1901 27.0391C29.0338 27.026 28.845 27.013 28.6237 27C28.4153 27 28.2135 27 28.0182 27C27.8099 27 27.6015 27 27.3932 27C27.1849 27.013 26.9961 27.026 26.8268 27.0391C26.6705 27.0521 26.5273 27.0651 26.3971 27.0781C26.2799 27.0911 26.1823 27.0976 26.1041 27.0976C26.039 27.1107 26 27.1172 25.987 27.1172C25.7656 27.1172 25.6549 27.0065 25.6549 26.7851C25.6549 26.668 25.681 26.5833 25.733 26.5312C25.7851 26.4661 25.8372 26.4271 25.8893 26.4141C25.9414 26.388 26.039 26.3685 26.1823 26.3555C26.3385 26.3294 26.4622 26.3034 26.5534 26.2773C26.8008 26.2253 26.9245 26.069 26.9245 25.8086V20.4961C26.9245 20.418 26.9179 20.3594 26.9049 20.3203C26.8919 20.2682 26.8528 20.2161 26.7877 20.1641C26.7357 20.0989 26.6771 20.0469 26.612 20.0078C26.5599 19.9687 26.4492 19.8906 26.2799 19.7734C26.1107 19.6562 25.9544 19.5456 25.8112 19.4414C25.7721 19.4023 25.7461 19.3568 25.733 19.3047C25.733 19.2526 26 19.1029 26.5338 18.8555C27.0156 18.6211 27.4518 18.4062 27.8424 18.2109C27.8554 18.2109 27.875 18.2044 27.901 18.1914C27.9531 18.1654 27.9922 18.1523 28.0182 18.1523C28.1745 18.1523 28.2526 18.2891 28.2526 18.5625V19.3633C28.2526 19.4284 28.2721 19.4609 28.3112 19.4609Z" fill="#E5D7C4"/>
<path d="M33.0182 22.8789C33.0182 21.5247 33.3763 20.4375 34.0924 19.6172C34.8086 18.7969 35.681 18.3867 36.7096 18.3867C37.3737 18.3867 38.0117 18.569 38.6237 18.9336C39.2357 19.2982 39.7435 19.7539 40.1471 20.3008C40.2513 20.431 40.3034 20.5742 40.3034 20.7305V20.7695C40.3034 20.8867 40.2708 20.9909 40.2057 21.082C40.1406 21.1732 40.0364 21.2578 39.8932 21.3359C39.75 21.401 39.6263 21.4531 39.5221 21.4922C39.4179 21.5312 39.2617 21.5833 39.0534 21.6484C38.858 21.7135 38.7343 21.7526 38.6823 21.7656C35.9609 22.7031 34.5677 23.1914 34.5026 23.2305C34.4505 23.2565 34.4245 23.2956 34.4245 23.3476C34.4245 23.4258 34.444 23.556 34.483 23.7383C34.5221 23.9206 34.6067 24.1614 34.737 24.4609C34.8802 24.7604 35.0495 25.0404 35.2448 25.3008C35.4531 25.5482 35.7461 25.7695 36.1237 25.9648C36.5013 26.1471 36.9245 26.2383 37.3932 26.2383C38.3047 26.2383 39.0989 25.9128 39.776 25.2617C39.9583 25.0794 40.108 24.9883 40.2252 24.9883C40.4466 24.9883 40.5573 25.0859 40.5573 25.2812C40.5573 25.3594 40.5052 25.4635 40.401 25.5937C39.9843 26.1406 39.4635 26.5768 38.8385 26.9023C38.2135 27.2148 37.556 27.3711 36.8659 27.3711C36.4232 27.3711 35.987 27.293 35.5573 27.1367C35.1406 26.9805 34.7304 26.7396 34.3268 26.4141C33.9362 26.0885 33.6172 25.6198 33.3698 25.0078C33.1354 24.3958 33.0182 23.6862 33.0182 22.8789ZM38.3698 20.8086C38.3698 20.6393 38.1419 20.3789 37.6862 20.0273C37.2304 19.6628 36.7552 19.4805 36.2604 19.4805C35.6745 19.4805 35.2057 19.7344 34.8541 20.2422C34.5156 20.75 34.3463 21.4466 34.3463 22.332C34.3463 22.4362 34.3789 22.4883 34.444 22.4883C34.47 22.4883 35.0885 22.2539 36.2995 21.7851C37.5234 21.3034 38.1549 21.056 38.194 21.043C38.3112 20.9779 38.3698 20.8997 38.3698 20.8086Z" fill="#E5D7C4"/>
<path d="M43.5651 19.4414C43.5781 19.4414 43.6823 19.3698 43.8776 19.2266C44.0729 19.0703 44.3398 18.9206 44.6784 18.7773C45.0299 18.6341 45.3815 18.5625 45.733 18.5625C45.9153 18.5625 46.0911 18.582 46.2604 18.6211C46.4297 18.6601 46.5859 18.7122 46.7291 18.7773C46.8724 18.8424 47.0026 18.9141 47.1198 18.9922C47.25 19.0703 47.3607 19.1484 47.4518 19.2266C47.5429 19.3047 47.6211 19.3763 47.6862 19.4414C47.7513 19.4935 47.8034 19.5391 47.8424 19.5781L47.901 19.6562C47.914 19.6693 47.9401 19.6758 47.9791 19.6758C48.0182 19.6758 48.0508 19.6693 48.0768 19.6562C48.1028 19.6432 48.1289 19.6237 48.1549 19.5976C48.194 19.5586 48.2721 19.5 48.3893 19.4219C48.5065 19.3437 48.6497 19.2526 48.819 19.1484C49.483 18.7578 50.1276 18.5625 50.7526 18.5625C51.3385 18.5625 51.8789 18.7383 52.3737 19.0898C52.8685 19.4284 53.2265 19.9753 53.4479 20.7305C53.6041 21.2904 53.6823 22.0716 53.6823 23.0742V25.6133C53.6823 25.7044 53.6823 25.7825 53.6823 25.8476C53.6953 25.9128 53.7148 25.9713 53.7409 26.0234C53.7799 26.0625 53.806 26.095 53.819 26.1211C53.832 26.1471 53.8711 26.1732 53.9362 26.1992C54.0143 26.2253 54.0664 26.2448 54.0924 26.2578C54.1315 26.2578 54.2161 26.2708 54.3463 26.2969C54.4765 26.3229 54.5742 26.3424 54.6393 26.3555C54.8216 26.3815 54.9127 26.5052 54.9127 26.7266C54.9127 26.987 54.8151 27.1172 54.6198 27.1172C54.5937 27.1172 54.5091 27.1042 54.3659 27.0781C54.2226 27.0651 54.0208 27.0456 53.7604 27.0195C53.5 27.0065 53.2265 27 52.9401 27C52.6406 27 52.3607 27.0065 52.1002 27.0195C51.8528 27.0456 51.651 27.0651 51.4948 27.0781C51.3515 27.1042 51.2669 27.1172 51.2409 27.1172C51.1627 27.1172 51.0846 27.0911 51.0065 27.0391C50.9414 26.987 50.9088 26.9023 50.9088 26.7851C50.9088 26.6029 50.9479 26.4922 51.026 26.4531C51.1172 26.4141 51.3906 26.3489 51.8463 26.2578C52.1198 26.2187 52.2565 26.0364 52.2565 25.7109V22.9375C52.2565 21.4792 51.983 20.5091 51.4362 20.0273C51.0586 19.7279 50.6419 19.5781 50.1862 19.5781C49.7825 19.5781 49.3789 19.6888 48.9752 19.9101C48.5716 20.1315 48.3698 20.3268 48.3698 20.4961L48.3893 20.5547C48.3893 20.5937 48.3958 20.6523 48.4088 20.7305C48.4218 20.8086 48.4349 20.8997 48.4479 21.0039C48.4609 21.1081 48.4674 21.2383 48.4674 21.3945C48.4804 21.5378 48.487 21.6875 48.487 21.8437V25.6914C48.487 25.7044 48.4804 25.7305 48.4674 25.7695C48.4674 25.8086 48.4674 25.8411 48.4674 25.8672V25.8867C48.4674 26.1081 48.6953 26.2383 49.151 26.2773C49.2682 26.2904 49.3659 26.3034 49.444 26.3164C49.7044 26.3555 49.8346 26.4857 49.8346 26.707C49.8346 26.9805 49.75 27.1172 49.5807 27.1172C49.5677 27.1172 49.5221 27.1107 49.444 27.0976C49.3789 27.0976 49.2877 27.0911 49.1705 27.0781C49.0534 27.0651 48.9232 27.0521 48.7799 27.0391C48.6367 27.026 48.4674 27.013 48.2721 27C48.0768 27 47.888 27 47.7057 27C47.5234 27 47.3346 27 47.1393 27C46.944 27.013 46.7747 27.026 46.6315 27.0391C46.4883 27.0521 46.358 27.0651 46.2409 27.0781C46.1237 27.0911 46.0325 27.1042 45.9674 27.1172H45.8502C45.6679 27.1172 45.5768 26.9739 45.5768 26.6875C45.5768 26.5052 45.8242 26.3815 46.319 26.3164C46.4622 26.2904 46.5729 26.2708 46.651 26.2578C46.8724 26.2187 47.0156 26.1471 47.0807 26.043C47.1458 25.9388 47.1784 25.7565 47.1784 25.4961V21.8047C47.1784 20.9713 46.9635 20.3919 46.5338 20.0664C46.1041 19.7409 45.6354 19.5781 45.1276 19.5781C44.75 19.5781 44.4245 19.6693 44.151 19.8516C43.8776 20.0208 43.6953 20.1901 43.6041 20.3594C43.5521 20.4896 43.526 20.6654 43.526 20.8867V25.6914C43.526 25.7565 43.526 25.8151 43.526 25.8672C43.539 25.9062 43.5455 25.9453 43.5455 25.9844C43.5586 26.0104 43.5716 26.043 43.5846 26.082C43.6107 26.1081 43.6302 26.1341 43.6432 26.1601C43.6562 26.1732 43.6823 26.1862 43.7213 26.1992C43.7734 26.2122 43.8125 26.2253 43.8385 26.2383C43.8646 26.2513 43.9101 26.2643 43.9752 26.2773C44.0534 26.2904 44.112 26.3034 44.151 26.3164C44.1901 26.3164 44.2552 26.3229 44.3463 26.3359C44.4505 26.3489 44.5351 26.362 44.6002 26.375C44.7825 26.401 44.8737 26.5443 44.8737 26.8047C44.8737 27.013 44.789 27.1172 44.6198 27.1172L44.3659 27.0781C44.2096 27.0651 43.9948 27.0456 43.7213 27.0195C43.4609 27.0065 43.194 27 42.9205 27C42.6601 27 42.4192 27.0065 42.1979 27.0195C41.9765 27.0325 41.8008 27.0456 41.6705 27.0586C41.5534 27.0716 41.4817 27.0781 41.4557 27.0781C41.2734 27.0781 41.1823 26.9479 41.1823 26.6875C41.1823 26.5443 41.2343 26.4466 41.3385 26.3945C41.4557 26.3424 41.5794 26.3164 41.7096 26.3164C41.8398 26.3164 41.9635 26.2773 42.0807 26.1992C42.2109 26.1211 42.2825 25.9909 42.2955 25.8086V20.8476C42.2955 20.6784 42.263 20.5547 42.1979 20.4766C42.1458 20.3984 41.983 20.2552 41.7096 20.0469C41.6185 19.9818 41.5468 19.9297 41.4948 19.8906C41.3776 19.8125 41.319 19.7344 41.319 19.6562C41.319 19.5911 41.3515 19.5325 41.4166 19.4805C41.4817 19.4154 41.6771 19.2851 42.0026 19.0898C42.3541 18.8685 42.6666 18.6732 42.9401 18.5039C43.1614 18.3867 43.2851 18.3281 43.3112 18.3281C43.4284 18.3281 43.487 18.4062 43.487 18.5625V19.3242C43.487 19.4023 43.513 19.4414 43.5651 19.4414Z" fill="#E5D7C4"/>
<path d="M57.0612 24.5781C57.0612 23.901 57.0612 23.2695 57.0612 22.6836C57.0612 22.0976 57.0612 21.6419 57.0612 21.3164C57.0742 20.9779 57.0807 20.776 57.0807 20.7109C57.0807 20.5677 57.0286 20.47 56.9245 20.418C56.8333 20.3529 56.4362 20.1771 55.733 19.8906C55.5638 19.8255 55.4791 19.7409 55.4791 19.6367C55.4791 19.5976 55.4857 19.5586 55.4987 19.5195C55.5247 19.4805 55.5573 19.4479 55.5963 19.4219C55.6484 19.3958 55.694 19.3763 55.733 19.3633C55.7721 19.3372 55.8242 19.3112 55.8893 19.2851C55.9544 19.2591 56 19.2396 56.026 19.2266C57.4843 18.5234 58.22 18.1719 58.233 18.1719H58.2526C58.4349 18.1719 58.526 18.2825 58.526 18.5039L58.5065 19.1484C58.4804 19.5781 58.4544 20.1575 58.4284 20.8867C58.4153 21.6029 58.4088 22.319 58.4088 23.0351V23.6992C58.4088 24.9362 58.4284 25.6654 58.4674 25.8867C58.5065 26.1081 58.6367 26.2318 58.858 26.2578C59.2487 26.3099 59.4961 26.3555 59.6002 26.3945C59.7044 26.4336 59.7565 26.5312 59.7565 26.6875C59.7565 26.9739 59.6784 27.1172 59.5221 27.1172C59.5091 27.1172 59.47 27.1107 59.4049 27.0976C59.3398 27.0976 59.2487 27.0911 59.1315 27.0781C59.0143 27.0651 58.8841 27.0521 58.7409 27.0391C58.5976 27.026 58.4284 27.013 58.233 27C58.0508 27 57.8685 27 57.6862 27C57.5039 27 57.3151 27 57.1198 27C56.9245 27.013 56.7552 27.026 56.612 27.0391C56.4817 27.0521 56.358 27.0651 56.2409 27.0781C56.1237 27.0911 56.0325 27.0976 55.9674 27.0976C55.9023 27.1107 55.8633 27.1172 55.8502 27.1172C55.6419 27.1172 55.5377 27.0065 55.5377 26.7851C55.5377 26.5638 55.5768 26.4336 55.6549 26.3945C55.7461 26.3555 56.039 26.3034 56.5338 26.2383C56.7682 26.1992 56.9114 26.1276 56.9635 26.0234C57.0286 25.9062 57.0612 25.737 57.0612 25.5156V24.5781ZM57.2565 14.6367C57.2565 14.3763 57.3541 14.1549 57.5495 13.9726C57.7448 13.7904 57.9726 13.6992 58.233 13.6992C58.4935 13.6992 58.7148 13.7904 58.8971 13.9726C59.0924 14.1549 59.1901 14.3698 59.1901 14.6172C59.1901 14.8906 59.0924 15.1185 58.8971 15.3008C58.7148 15.4831 58.487 15.5742 58.2135 15.5742C57.9401 15.5742 57.7122 15.4896 57.5299 15.3203C57.3476 15.138 57.2565 14.9101 57.2565 14.6367Z" fill="#E5D7C4"/>
<path d="M60.4791 22.8789C60.4791 21.5247 60.8372 20.4375 61.5534 19.6172C62.2695 18.7969 63.1419 18.3867 64.1705 18.3867C64.8346 18.3867 65.4726 18.569 66.0846 18.9336C66.6966 19.2982 67.2044 19.7539 67.608 20.3008C67.7122 20.431 67.7643 20.5742 67.7643 20.7305V20.7695C67.7643 20.8867 67.7317 20.9909 67.6666 21.082C67.6015 21.1732 67.4974 21.2578 67.3541 21.3359C67.2109 21.401 67.0872 21.4531 66.983 21.4922C66.8789 21.5312 66.7226 21.5833 66.5143 21.6484C66.319 21.7135 66.1953 21.7526 66.1432 21.7656C63.4218 22.7031 62.0286 23.1914 61.9635 23.2305C61.9114 23.2565 61.8854 23.2956 61.8854 23.3476C61.8854 23.4258 61.9049 23.556 61.944 23.7383C61.983 23.9206 62.0677 24.1614 62.1979 24.4609C62.3411 24.7604 62.5104 25.0404 62.7057 25.3008C62.914 25.5482 63.207 25.7695 63.5846 25.9648C63.9622 26.1471 64.3854 26.2383 64.8541 26.2383C65.7656 26.2383 66.5599 25.9128 67.237 25.2617C67.4192 25.0794 67.569 24.9883 67.6862 24.9883C67.9075 24.9883 68.0182 25.0859 68.0182 25.2812C68.0182 25.3594 67.9661 25.4635 67.862 25.5937C67.4453 26.1406 66.9245 26.5768 66.2995 26.9023C65.6745 27.2148 65.0169 27.3711 64.3268 27.3711C63.8841 27.3711 63.4479 27.293 63.0182 27.1367C62.6015 26.9805 62.1914 26.7396 61.7877 26.4141C61.3971 26.0885 61.0781 25.6198 60.8307 25.0078C60.5963 24.3958 60.4791 23.6862 60.4791 22.8789ZM65.8307 20.8086C65.8307 20.6393 65.6028 20.3789 65.1471 20.0273C64.6914 19.6628 64.2161 19.4805 63.7213 19.4805C63.1354 19.4805 62.6666 19.7344 62.3151 20.2422C61.9765 20.75 61.8073 21.4466 61.8073 22.332C61.8073 22.4362 61.8398 22.4883 61.9049 22.4883C61.931 22.4883 62.5495 22.2539 63.7604 21.7851C64.9843 21.3034 65.6159 21.056 65.6549 21.043C65.7721 20.9779 65.8307 20.8997 65.8307 20.8086Z" fill="#E5D7C4"/>
<path d="M71.0846 19.4609C71.0976 19.4609 71.2409 19.3698 71.5143 19.1875C71.7877 18.9922 72.0937 18.7838 72.4323 18.5625C72.7708 18.3411 73.0182 18.2044 73.1745 18.1523C73.3307 18.1003 73.526 18.0742 73.7604 18.0742C74.125 18.0742 74.4765 18.1588 74.8151 18.3281C75.1536 18.4844 75.3229 18.6927 75.3229 18.9531V18.9726C75.3229 19.0508 75.2969 19.1289 75.2448 19.207C75.1927 19.2851 75.1471 19.3437 75.108 19.3828C75.069 19.4219 75.0039 19.4805 74.9127 19.5586L74.776 19.6758C74.763 19.6758 74.6914 19.7279 74.5612 19.832C74.444 19.9232 74.3398 19.9883 74.2487 20.0273C74.1575 20.0664 74.0599 20.0859 73.9557 20.0859C73.7995 20.0859 73.6172 20.0013 73.4088 19.832C73.2135 19.6628 72.9987 19.5781 72.7643 19.5781C72.4778 19.5781 72.1719 19.6823 71.8463 19.8906C71.5208 20.0989 71.3125 20.2682 71.2213 20.3984C71.1692 20.4766 71.1432 20.6003 71.1432 20.7695V25.6328C71.1432 26.0104 71.306 26.2122 71.6315 26.2383C71.7617 26.2513 71.9375 26.2643 72.1588 26.2773C72.5625 26.3034 72.8164 26.3424 72.9205 26.3945C73.0377 26.4336 73.0963 26.5443 73.0963 26.7266C73.0963 26.987 73.0052 27.1172 72.8229 27.1172C72.8099 27.1172 72.7643 27.1107 72.6862 27.0976C72.6211 27.0976 72.5234 27.0911 72.3932 27.0781C72.263 27.0651 72.1198 27.0521 71.9635 27.0391C71.8073 27.026 71.6185 27.013 71.3971 27C71.1888 27 70.987 27 70.7916 27C70.5833 27 70.375 27 70.1666 27C69.9583 27.013 69.7695 27.026 69.6002 27.0391C69.444 27.0521 69.3008 27.0651 69.1705 27.0781C69.0534 27.0911 68.9557 27.0976 68.8776 27.0976C68.8125 27.1107 68.7734 27.1172 68.7604 27.1172C68.539 27.1172 68.4284 27.0065 68.4284 26.7851C68.4284 26.668 68.4544 26.5833 68.5065 26.5312C68.5586 26.4661 68.6106 26.4271 68.6627 26.4141C68.7148 26.388 68.8125 26.3685 68.9557 26.3555C69.112 26.3294 69.2356 26.3034 69.3268 26.2773C69.5742 26.2253 69.6979 26.069 69.6979 25.8086V20.4961C69.6979 20.418 69.6914 20.3594 69.6784 20.3203C69.6653 20.2682 69.6263 20.2161 69.5612 20.1641C69.5091 20.0989 69.4505 20.0469 69.3854 20.0078C69.3333 19.9687 69.2226 19.8906 69.0534 19.7734C68.8841 19.6562 68.7278 19.5456 68.5846 19.4414C68.5455 19.4023 68.5195 19.3568 68.5065 19.3047C68.5065 19.2526 68.7734 19.1029 69.3073 18.8555C69.789 18.6211 70.2252 18.4062 70.6159 18.2109C70.6289 18.2109 70.6484 18.2044 70.6745 18.1914C70.7265 18.1654 70.7656 18.1523 70.7916 18.1523C70.9479 18.1523 71.026 18.2891 71.026 18.5625V19.3633C71.026 19.4284 71.0455 19.4609 71.0846 19.4609Z" fill="#E5D7C4"/>
<path d="M75.7916 22.8789C75.7916 21.5247 76.1497 20.4375 76.8659 19.6172C77.582 18.7969 78.4544 18.3867 79.483 18.3867C80.1471 18.3867 80.7851 18.569 81.3971 18.9336C82.0091 19.2982 82.5169 19.7539 82.9205 20.3008C83.0247 20.431 83.0768 20.5742 83.0768 20.7305V20.7695C83.0768 20.8867 83.0442 20.9909 82.9791 21.082C82.914 21.1732 82.8099 21.2578 82.6666 21.3359C82.5234 21.401 82.3997 21.4531 82.2955 21.4922C82.1914 21.5312 82.0351 21.5833 81.8268 21.6484C81.6315 21.7135 81.5078 21.7526 81.4557 21.7656C78.7344 22.7031 77.3411 23.1914 77.276 23.2305C77.2239 23.2565 77.1979 23.2956 77.1979 23.3476C77.1979 23.4258 77.2174 23.556 77.2565 23.7383C77.2955 23.9206 77.3802 24.1614 77.5104 24.4609C77.6536 24.7604 77.8229 25.0404 78.0182 25.3008C78.2265 25.5482 78.5195 25.7695 78.8971 25.9648C79.2747 26.1471 79.6979 26.2383 80.1666 26.2383C81.0781 26.2383 81.8724 25.9128 82.5495 25.2617C82.7317 25.0794 82.8815 24.9883 82.9987 24.9883C83.22 24.9883 83.3307 25.0859 83.3307 25.2812C83.3307 25.3594 83.2786 25.4635 83.1745 25.5937C82.7578 26.1406 82.237 26.5768 81.612 26.9023C80.987 27.2148 80.3294 27.3711 79.6393 27.3711C79.1966 27.3711 78.7604 27.293 78.3307 27.1367C77.914 26.9805 77.5039 26.7396 77.1002 26.4141C76.7096 26.0885 76.3906 25.6198 76.1432 25.0078C75.9088 24.3958 75.7916 23.6862 75.7916 22.8789ZM81.1432 20.8086C81.1432 20.6393 80.9153 20.3789 80.4596 20.0273C80.0039 19.6628 79.5286 19.4805 79.0338 19.4805C78.4479 19.4805 77.9791 19.7344 77.6276 20.2422C77.289 20.75 77.1198 21.4466 77.1198 22.332C77.1198 22.4362 77.1523 22.4883 77.2174 22.4883C77.2435 22.4883 77.862 22.2539 79.0729 21.7851C80.2969 21.3034 80.9284 21.056 80.9674 21.043C81.0846 20.9779 81.1432 20.8997 81.1432 20.8086Z" fill="#E5D7C4"/>
<path d="M98.0182 17.0391C98.0182 16.1797 97.6146 15.4635 96.8073 14.8906C96.013 14.3177 94.9323 14.0312 93.5651 14.0312C93.0442 14.0312 92.7122 14.0508 92.569 14.0898C92.4258 14.1289 92.3541 14.2135 92.3541 14.3437V20.0469C92.3541 20.151 92.3867 20.2161 92.4518 20.2422C92.5299 20.2682 92.7383 20.2812 93.0768 20.2812C94.5481 20.2812 95.7396 19.9818 96.651 19.3828C97.5625 18.7838 98.0182 18.0026 98.0182 17.0391ZM89.8932 13.3476C90.5573 13.3476 91.4036 13.3151 92.4323 13.25C93.4609 13.1719 94.1966 13.1328 94.6393 13.1328C96.345 13.1328 97.6471 13.5364 98.5455 14.3437C99.3138 15.0469 99.6979 15.9128 99.6979 16.9414V16.9609C99.6849 17.6771 99.4896 18.3151 99.112 18.875C98.7344 19.4219 98.2526 19.8516 97.6666 20.1641C96.7031 20.7109 95.2057 20.9844 93.1745 20.9844H92.569C92.3997 20.9844 92.3151 21.0885 92.3151 21.2969V25.3594C92.3151 25.5937 92.3541 25.7695 92.4323 25.8867C92.5234 25.9909 92.6927 26.0495 92.9401 26.0625C94.125 26.1146 94.7565 26.1536 94.8346 26.1797C95.0169 26.2318 95.108 26.3815 95.108 26.6289V26.6484C95.108 26.9609 94.9778 27.1172 94.7174 27.1172L94.3268 27.0781C94.0664 27.0651 93.7148 27.0456 93.2721 27.0195C92.8294 27.0065 92.3932 27 91.9635 27C91.5208 27 91.0781 27.0065 90.6354 27.0195C90.1927 27.0456 89.8411 27.0651 89.5807 27.0781L89.1901 27.1172C88.9166 27.1172 88.7799 26.9609 88.7799 26.6484C88.7799 26.5963 88.7799 26.5508 88.7799 26.5117C88.7929 26.4596 88.7995 26.4206 88.7995 26.3945C88.8125 26.3555 88.832 26.3229 88.858 26.2969C88.8841 26.2708 88.9036 26.2513 88.9166 26.2383C88.9427 26.2122 88.9752 26.1927 89.0143 26.1797C89.0664 26.1667 89.1054 26.1601 89.1315 26.1601C89.1705 26.1471 89.2226 26.1406 89.2877 26.1406C89.3659 26.1276 89.431 26.1211 89.483 26.1211C89.5481 26.1081 89.6328 26.1016 89.737 26.1016C89.8411 26.0885 89.9388 26.0755 90.0299 26.0625C90.2513 26.0364 90.3945 25.9844 90.4596 25.9062C90.5377 25.8151 90.5768 25.6849 90.5768 25.5156V14.8125C90.5768 14.7083 90.5703 14.6302 90.5573 14.5781C90.5573 14.513 90.5182 14.4544 90.4401 14.4023C90.375 14.3372 90.2773 14.3047 90.1471 14.3047H89.4245C89.3333 14.3047 89.2617 14.2982 89.2096 14.2851C89.1575 14.2721 89.0989 14.2266 89.0338 14.1484C88.9817 14.0573 88.9557 13.9336 88.9557 13.7773C88.9557 13.4909 89.0989 13.3476 89.3854 13.3476H89.8932Z" fill="#E5D7C4"/>
<path d="M102.823 19.4609C102.836 19.4609 102.979 19.3698 103.253 19.1875C103.526 18.9922 103.832 18.7838 104.171 18.5625C104.509 18.3411 104.756 18.2044 104.913 18.1523C105.069 18.1003 105.264 18.0742 105.499 18.0742C105.863 18.0742 106.215 18.1588 106.553 18.3281C106.892 18.4844 107.061 18.6927 107.061 18.9531V18.9726C107.061 19.0508 107.035 19.1289 106.983 19.207C106.931 19.2851 106.885 19.3437 106.846 19.3828C106.807 19.4219 106.742 19.4805 106.651 19.5586L106.514 19.6758C106.501 19.6758 106.43 19.7279 106.299 19.832C106.182 19.9232 106.078 19.9883 105.987 20.0273C105.896 20.0664 105.798 20.0859 105.694 20.0859C105.538 20.0859 105.355 20.0013 105.147 19.832C104.952 19.6628 104.737 19.5781 104.503 19.5781C104.216 19.5781 103.91 19.6823 103.585 19.8906C103.259 20.0989 103.051 20.2682 102.96 20.3984C102.908 20.4766 102.881 20.6003 102.881 20.7695V25.6328C102.881 26.0104 103.044 26.2122 103.37 26.2383C103.5 26.2513 103.676 26.2643 103.897 26.2773C104.301 26.3034 104.555 26.3424 104.659 26.3945C104.776 26.4336 104.835 26.5443 104.835 26.7266C104.835 26.987 104.743 27.1172 104.561 27.1172C104.548 27.1172 104.503 27.1107 104.424 27.0976C104.359 27.0976 104.262 27.0911 104.131 27.0781C104.001 27.0651 103.858 27.0521 103.702 27.0391C103.546 27.026 103.357 27.013 103.135 27C102.927 27 102.725 27 102.53 27C102.322 27 102.113 27 101.905 27C101.697 27.013 101.508 27.026 101.339 27.0391C101.182 27.0521 101.039 27.0651 100.909 27.0781C100.792 27.0911 100.694 27.0976 100.616 27.0976C100.551 27.1107 100.512 27.1172 100.499 27.1172C100.277 27.1172 100.167 27.0065 100.167 26.7851C100.167 26.668 100.193 26.5833 100.245 26.5312C100.297 26.4661 100.349 26.4271 100.401 26.4141C100.453 26.388 100.551 26.3685 100.694 26.3555C100.85 26.3294 100.974 26.3034 101.065 26.2773C101.312 26.2253 101.436 26.069 101.436 25.8086V20.4961C101.436 20.418 101.43 20.3594 101.417 20.3203C101.404 20.2682 101.365 20.2161 101.299 20.1641C101.247 20.0989 101.189 20.0469 101.124 20.0078C101.072 19.9687 100.961 19.8906 100.792 19.7734C100.622 19.6562 100.466 19.5456 100.323 19.4414C100.284 19.4023 100.258 19.3568 100.245 19.3047C100.245 19.2526 100.512 19.1029 101.046 18.8555C101.527 18.6211 101.964 18.4062 102.354 18.2109C102.367 18.2109 102.387 18.2044 102.413 18.1914C102.465 18.1654 102.504 18.1523 102.53 18.1523C102.686 18.1523 102.764 18.2891 102.764 18.5625V19.3633C102.764 19.4284 102.784 19.4609 102.823 19.4609Z" fill="#E5D7C4"/>
<path d="M107.51 22.918C107.51 21.5768 107.934 20.4831 108.78 19.6367C109.639 18.7904 110.655 18.3672 111.827 18.3672C113.025 18.3672 114.021 18.7969 114.815 19.6562C115.609 20.5026 116.006 21.5898 116.006 22.918C116.006 24.2851 115.59 25.3724 114.756 26.1797C113.936 26.9739 112.934 27.3711 111.749 27.3711C110.499 27.3711 109.477 26.9414 108.682 26.082C107.901 25.2226 107.51 24.168 107.51 22.918ZM109.815 25.3984C110.323 26.0625 110.987 26.3945 111.807 26.3945C112.628 26.3945 113.305 26.0625 113.839 25.3984C114.372 24.7213 114.639 23.9206 114.639 22.9961C114.639 21.9544 114.34 21.082 113.741 20.3789C113.155 19.6628 112.471 19.3047 111.69 19.3047C111.039 19.3047 110.434 19.5911 109.874 20.1641C109.327 20.737 109.053 21.6224 109.053 22.8203C109.053 23.862 109.307 24.7213 109.815 25.3984Z" fill="#E5D7C4"/>
</g>
<defs>
<filter id="filter0_d_85_234" x="0" y="0" width="128.99" height="50" filterUnits="userSpaceOnUse" color-interpolation-filters="sRGB">
<feFlood flood-opacity="0" result="BackgroundImageFix"/>
<feColorMatrix in="SourceAlpha" type="matrix" values="0 0 0 0 0 0 0 0 0 0 0 0 0 0 0 0 0 0 127 0" result="hardAlpha"/>
<feOffset dy="4"/>
<feGaussianBlur stdDeviation="2"/>
<feComposite in2="hardAlpha" operator="out"/>
<feColorMatrix type="matrix" values="0 0 0 0 0 0 0 0 0 0 0 0 0 0 0 0 0 0 0.25 0"/>
<feBlend mode="normal" in2="BackgroundImageFix" result="effect1_dropShadow_85_234"/>
<feBlend mode="normal" in="SourceGraphic" in2="effect1_dropShadow_85_234" result="shape"/>
</filter>
</defs>
</svg>
