<svg width="95" height="50" viewBox="0 0 95 50" fill="none" xmlns="http://www.w3.org/2000/svg">
<g filter="url(#filter0_d_85_246)">
<path d="M4 21C4.65408 49 90.3384 49 90.9925 21C90.3384 -7 4.65408 -7 4 21Z" fill="#A88C40"/>
<path d="M22.508 17.0391C22.508 16.1797 22.1043 15.4635 21.297 14.8906C20.5027 14.3177 19.422 14.0312 18.0548 14.0312C17.534 14.0312 17.202 14.0508 17.0587 14.0898C16.9155 14.1289 16.8439 14.2135 16.8439 14.3438V20.0469C16.8439 20.151 16.8764 20.2161 16.9416 20.2422C17.0197 20.2682 17.228 20.2812 17.5666 20.2812C19.0379 20.2812 20.2293 19.9818 21.1408 19.3828C22.0522 18.7839 22.508 18.0026 22.508 17.0391ZM14.383 13.3477C15.047 13.3477 15.8934 13.3151 16.922 13.25C17.9507 13.1719 18.6863 13.1328 19.1291 13.1328C20.8348 13.1328 22.1369 13.5365 23.0353 14.3438C23.8035 15.0469 24.1876 15.9128 24.1876 16.9414V16.9609C24.1746 17.6771 23.9793 18.3151 23.6017 18.875C23.2241 19.4219 22.7423 19.8516 22.1564 20.1641C21.1929 20.7109 19.6955 20.9844 17.6642 20.9844H17.0587C16.8895 20.9844 16.8048 21.0885 16.8048 21.2969V25.3594C16.8048 25.5938 16.8439 25.7695 16.922 25.8867C17.0132 25.9909 17.1824 26.0495 17.4298 26.0625C18.6147 26.1146 19.2462 26.1536 19.3244 26.1797C19.5067 26.2318 19.5978 26.3815 19.5978 26.6289V26.6484C19.5978 26.9609 19.4676 27.1172 19.2072 27.1172L18.8166 27.0781C18.5561 27.0651 18.2046 27.0456 17.7619 27.0195C17.3192 27.0065 16.883 27 16.4533 27C16.0106 27 15.5679 27.0065 15.1251 27.0195C14.6824 27.0456 14.3309 27.0651 14.0705 27.0781L13.6798 27.1172C13.4064 27.1172 13.2697 26.9609 13.2697 26.6484C13.2697 26.5964 13.2697 26.5508 13.2697 26.5117C13.2827 26.4596 13.2892 26.4206 13.2892 26.3945C13.3022 26.3555 13.3218 26.3229 13.3478 26.2969C13.3738 26.2708 13.3934 26.2513 13.4064 26.2383C13.4324 26.2122 13.465 26.1927 13.5041 26.1797C13.5561 26.1667 13.5952 26.1602 13.6212 26.1602C13.6603 26.1471 13.7124 26.1406 13.7775 26.1406C13.8556 26.1276 13.9207 26.1211 13.9728 26.1211C14.0379 26.1081 14.1225 26.1016 14.2267 26.1016C14.3309 26.0885 14.4285 26.0755 14.5197 26.0625C14.741 26.0365 14.8843 25.9844 14.9494 25.9062C15.0275 25.8151 15.0666 25.6849 15.0666 25.5156V14.8125C15.0666 14.7083 15.06 14.6302 15.047 14.5781C15.047 14.513 15.008 14.4544 14.9298 14.4023C14.8647 14.3372 14.7671 14.3047 14.6369 14.3047H13.9142C13.8231 14.3047 13.7514 14.2982 13.6994 14.2852C13.6473 14.2721 13.5887 14.2266 13.5236 14.1484C13.4715 14.0573 13.4455 13.9336 13.4455 13.7773C13.4455 13.4909 13.5887 13.3477 13.8751 13.3477H14.383Z" fill="#E5D7C4"/>
<path d="M27.3126 19.4609C27.3257 19.4609 27.4689 19.3698 27.7423 19.1875C28.0158 18.9922 28.3218 18.7839 28.6603 18.5625C28.9988 18.3411 29.2462 18.2044 29.4025 18.1523C29.5587 18.1003 29.7541 18.0742 29.9884 18.0742C30.353 18.0742 30.7046 18.1589 31.0431 18.3281C31.3817 18.4844 31.5509 18.6927 31.5509 18.9531V18.9727C31.5509 19.0508 31.5249 19.1289 31.4728 19.207C31.4207 19.2852 31.3751 19.3438 31.3361 19.3828C31.297 19.4219 31.2319 19.4805 31.1408 19.5586L31.0041 19.6758C30.991 19.6758 30.9194 19.7279 30.7892 19.832C30.672 19.9232 30.5679 19.9883 30.4767 20.0273C30.3856 20.0664 30.2879 20.0859 30.1837 20.0859C30.0275 20.0859 29.8452 20.0013 29.6369 19.832C29.4416 19.6628 29.2267 19.5781 28.9923 19.5781C28.7059 19.5781 28.3999 19.6823 28.0744 19.8906C27.7488 20.099 27.5405 20.2682 27.4494 20.3984C27.3973 20.4766 27.3712 20.6003 27.3712 20.7695V25.6328C27.3712 26.0104 27.534 26.2122 27.8595 26.2383C27.9897 26.2513 28.1655 26.2643 28.3869 26.2773C28.7905 26.3034 29.0444 26.3424 29.1486 26.3945C29.2658 26.4336 29.3244 26.5443 29.3244 26.7266C29.3244 26.987 29.2332 27.1172 29.0509 27.1172C29.0379 27.1172 28.9923 27.1107 28.9142 27.0977C28.8491 27.0977 28.7514 27.0911 28.6212 27.0781C28.491 27.0651 28.3478 27.0521 28.1916 27.0391C28.0353 27.026 27.8465 27.013 27.6251 27C27.4168 27 27.215 27 27.0197 27C26.8113 27 26.603 27 26.3947 27C26.1863 27.013 25.9975 27.026 25.8283 27.0391C25.672 27.0521 25.5288 27.0651 25.3986 27.0781C25.2814 27.0911 25.1837 27.0977 25.1056 27.0977C25.0405 27.1107 25.0014 27.1172 24.9884 27.1172C24.7671 27.1172 24.6564 27.0065 24.6564 26.7852C24.6564 26.668 24.6824 26.5833 24.7345 26.5312C24.7866 26.4661 24.8387 26.4271 24.8908 26.4141C24.9429 26.388 25.0405 26.3685 25.1837 26.3555C25.34 26.3294 25.4637 26.3034 25.5548 26.2773C25.8022 26.2253 25.9259 26.069 25.9259 25.8086V20.4961C25.9259 20.418 25.9194 20.3594 25.9064 20.3203C25.8934 20.2682 25.8543 20.2161 25.7892 20.1641C25.7371 20.099 25.6785 20.0469 25.6134 20.0078C25.5613 19.9688 25.4507 19.8906 25.2814 19.7734C25.1121 19.6562 24.9559 19.5456 24.8126 19.4414C24.7736 19.4023 24.7475 19.3568 24.7345 19.3047C24.7345 19.2526 25.0014 19.1029 25.5353 18.8555C26.0171 18.6211 26.4533 18.4062 26.8439 18.2109C26.8569 18.2109 26.8764 18.2044 26.9025 18.1914C26.9546 18.1654 26.9936 18.1523 27.0197 18.1523C27.1759 18.1523 27.2541 18.2891 27.2541 18.5625V19.3633C27.2541 19.4284 27.2736 19.4609 27.3126 19.4609Z" fill="#E5D7C4"/>
<path d="M32.0001 22.918C32.0001 21.5768 32.4233 20.4831 33.2697 19.6367C34.1291 18.7904 35.1447 18.3672 36.3166 18.3672C37.5145 18.3672 38.5106 18.7969 39.3048 19.6562C40.0991 20.5026 40.4962 21.5898 40.4962 22.918C40.4962 24.2852 40.0796 25.3724 39.2462 26.1797C38.4259 26.974 37.4233 27.3711 36.2384 27.3711C34.9884 27.3711 33.9663 26.9414 33.172 26.082C32.3908 25.2227 32.0001 24.168 32.0001 22.918ZM34.3048 25.3984C34.8126 26.0625 35.4767 26.3945 36.297 26.3945C37.1173 26.3945 37.7944 26.0625 38.3283 25.3984C38.8621 24.7214 39.1291 23.9206 39.1291 22.9961C39.1291 21.9544 38.8296 21.082 38.2306 20.3789C37.6447 19.6628 36.9611 19.3047 36.1798 19.3047C35.5288 19.3047 34.9233 19.5911 34.3634 20.1641C33.8166 20.737 33.5431 21.6224 33.5431 22.8203C33.5431 23.862 33.797 24.7214 34.3048 25.3984Z" fill="#E5D7C4"/>
<path d="M46.7072 19.6953C46.4337 19.6953 46.297 19.6107 46.297 19.4414C46.297 19.3633 46.3882 19.2461 46.5705 19.0898C46.7658 18.9206 47.0392 18.6471 47.3908 18.2695C47.7423 17.8789 48.0744 17.4232 48.3869 16.9023C48.5301 16.6549 48.6603 16.5312 48.7775 16.5312C48.9598 16.5312 49.0509 16.6419 49.0509 16.8633C49.0509 16.9544 49.0444 17.1888 49.0314 17.5664C49.0314 17.944 49.0314 18.1784 49.0314 18.2695C49.0314 18.5299 49.1616 18.6602 49.422 18.6602H51.2189C51.2449 18.6602 51.2775 18.6667 51.3166 18.6797C51.3556 18.6797 51.3817 18.6797 51.3947 18.6797C51.7332 18.6797 51.9025 18.8034 51.9025 19.0508C51.9025 19.2982 51.8439 19.4935 51.7267 19.6367C51.6616 19.7018 51.5444 19.7344 51.3751 19.7344H49.0314C48.9012 19.7344 48.8361 19.7995 48.8361 19.9297C48.8361 21.0104 48.8296 21.9089 48.8166 22.625C48.8166 23.3411 48.81 23.8229 48.797 24.0703C48.797 24.3177 48.797 24.4935 48.797 24.5977C48.797 25.5872 49.1421 26.082 49.8322 26.082C50.1056 26.082 50.3921 25.9844 50.6916 25.7891C50.991 25.5807 51.2514 25.3789 51.4728 25.1836C51.7072 24.9753 51.883 24.8711 52.0001 24.8711C52.1043 24.8711 52.1889 24.9102 52.2541 24.9883C52.3322 25.0664 52.3712 25.151 52.3712 25.2422C52.3712 25.3203 52.3257 25.431 52.2345 25.5742C51.1798 26.7721 50.2488 27.3711 49.4416 27.3711C48.9598 27.3711 48.5171 27.1823 48.1134 26.8047C47.7228 26.4141 47.4949 25.7956 47.4298 24.9492C47.4168 24.806 47.4103 24.5911 47.4103 24.3047C47.4103 23.9792 47.4233 23.1914 47.4494 21.9414C47.4754 20.6784 47.4884 19.9883 47.4884 19.8711C47.4884 19.7539 47.4429 19.6953 47.3517 19.6953H46.7072Z" fill="#E5D7C4"/>
<path d="M52.9767 22.918C52.9767 21.5768 53.3999 20.4831 54.2462 19.6367C55.1056 18.7904 56.1212 18.3672 57.2931 18.3672C58.491 18.3672 59.4871 18.7969 60.2814 19.6562C61.0757 20.5026 61.4728 21.5898 61.4728 22.918C61.4728 24.2852 61.0561 25.3724 60.2228 26.1797C59.4025 26.974 58.3999 27.3711 57.215 27.3711C55.965 27.3711 54.9429 26.9414 54.1486 26.082C53.3673 25.2227 52.9767 24.168 52.9767 22.918ZM55.2814 25.3984C55.7892 26.0625 56.4533 26.3945 57.2736 26.3945C58.0939 26.3945 58.771 26.0625 59.3048 25.3984C59.8387 24.7214 60.1056 23.9206 60.1056 22.9961C60.1056 21.9544 59.8061 21.082 59.2072 20.3789C58.6212 19.6628 57.9376 19.3047 57.1564 19.3047C56.5054 19.3047 55.8999 19.5911 55.34 20.1641C54.7931 20.737 54.5197 21.6224 54.5197 22.8203C54.5197 23.862 54.7736 24.7214 55.2814 25.3984Z" fill="#E5D7C4"/>
<path d="M62.3126 22.918C62.3126 21.5768 62.7358 20.4831 63.5822 19.6367C64.4416 18.7904 65.4572 18.3672 66.6291 18.3672C67.827 18.3672 68.8231 18.7969 69.6173 19.6562C70.4116 20.5026 70.8087 21.5898 70.8087 22.918C70.8087 24.2852 70.3921 25.3724 69.5587 26.1797C68.7384 26.974 67.7358 27.3711 66.5509 27.3711C65.3009 27.3711 64.2788 26.9414 63.4845 26.082C62.7033 25.2227 62.3126 24.168 62.3126 22.918ZM64.6173 25.3984C65.1251 26.0625 65.7892 26.3945 66.6095 26.3945C67.4298 26.3945 68.1069 26.0625 68.6408 25.3984C69.1746 24.7214 69.4416 23.9206 69.4416 22.9961C69.4416 21.9544 69.1421 21.082 68.5431 20.3789C67.9572 19.6628 67.2736 19.3047 66.4923 19.3047C65.8413 19.3047 65.2358 19.5911 64.6759 20.1641C64.1291 20.737 63.8556 21.6224 63.8556 22.8203C63.8556 23.862 64.1095 24.7214 64.6173 25.3984Z" fill="#E5D7C4"/>
<path d="M75.7697 26.7266C75.7697 26.987 75.6916 27.1172 75.5353 27.1172C75.5223 27.1172 75.4767 27.1107 75.3986 27.0977C75.3335 27.0977 75.2423 27.0911 75.1251 27.0781C75.008 27.0651 74.8777 27.0521 74.7345 27.0391C74.5913 27.026 74.422 27.013 74.2267 27C74.0314 27 73.8426 27 73.6603 27C73.478 27 73.2957 27 73.1134 27C72.9311 27.013 72.7684 27.0195 72.6251 27.0195C72.4819 27.0326 72.3517 27.0456 72.2345 27.0586C72.1304 27.0716 72.0457 27.0781 71.9806 27.0781C71.9155 27.0911 71.8764 27.0977 71.8634 27.0977C71.6681 27.0977 71.5705 26.9805 71.5705 26.7461V26.6875C71.5705 26.5182 71.6095 26.4141 71.6876 26.375C71.7788 26.3229 72.0132 26.2773 72.3908 26.2383C72.6251 26.2122 72.7749 26.1406 72.84 26.0234C72.9181 25.8932 72.9572 25.7109 72.9572 25.4766V15.3008C72.9572 15.2617 72.9507 15.2292 72.9376 15.2031C72.9376 15.1641 72.9311 15.1315 72.9181 15.1055C72.9051 15.0794 72.8921 15.0599 72.8791 15.0469C72.8791 15.0208 72.8595 15.0013 72.8205 14.9883C72.7944 14.9622 72.7684 14.9427 72.7423 14.9297C72.7293 14.9167 72.6902 14.8971 72.6251 14.8711C72.5731 14.832 72.534 14.806 72.508 14.793C72.3777 14.7148 72.2345 14.6367 72.0783 14.5586C71.935 14.4674 71.8309 14.4023 71.7658 14.3633C71.7137 14.3242 71.6551 14.2852 71.59 14.2461C71.5249 14.194 71.4793 14.1549 71.4533 14.1289C71.4402 14.0898 71.4337 14.0508 71.4337 14.0117V13.9922C71.4337 13.9271 71.6811 13.7643 72.1759 13.5039C72.7879 13.2044 73.3608 12.9115 73.8947 12.625C73.9728 12.5729 74.0574 12.5469 74.1486 12.5469C74.3309 12.5469 74.422 12.6706 74.422 12.918V25.5742C74.422 25.6523 74.422 25.7174 74.422 25.7695C74.435 25.8216 74.4481 25.8737 74.4611 25.9258C74.4741 25.9648 74.4871 25.9974 74.5001 26.0234C74.5132 26.0495 74.5392 26.0755 74.5783 26.1016C74.6304 26.1276 74.6629 26.1471 74.6759 26.1602C74.702 26.1732 74.7475 26.1927 74.8126 26.2188C74.8908 26.2318 74.9429 26.2448 74.9689 26.2578C75.008 26.2578 75.0796 26.2643 75.1837 26.2773C75.3009 26.2904 75.3856 26.3034 75.4376 26.3164C75.659 26.3555 75.7697 26.4922 75.7697 26.7266Z" fill="#E5D7C4"/>
<path d="M76.6095 20.8281C76.6095 20.2031 76.8699 19.6562 77.3908 19.1875C77.9246 18.7057 78.6212 18.4648 79.4806 18.4648C79.6629 18.4648 79.8257 18.4779 79.9689 18.5039C80.1251 18.5169 80.2423 18.5299 80.3205 18.543C80.4116 18.556 80.4637 18.5625 80.4767 18.5625C80.5288 18.5625 80.6069 18.5299 80.7111 18.4648C80.8152 18.3997 80.9064 18.3672 80.9845 18.3672C81.1408 18.3672 81.2449 18.4909 81.297 18.7383C81.3361 18.9336 81.3882 19.207 81.4533 19.5586C81.5184 19.9102 81.5705 20.2096 81.6095 20.457C81.6616 20.6914 81.6876 20.8216 81.6876 20.8477C81.6876 21.056 81.5314 21.1602 81.2189 21.1602C81.0887 21.1602 80.991 21.1146 80.9259 21.0234C80.8738 20.9193 80.8218 20.776 80.7697 20.5938C80.7176 20.4115 80.659 20.2747 80.5939 20.1836C80.4507 19.9883 80.2163 19.8125 79.8908 19.6562C79.5783 19.487 79.2658 19.4023 78.9533 19.4023C78.6017 19.4023 78.3022 19.5 78.0548 19.6953C77.8074 19.8906 77.6837 20.1445 77.6837 20.457C77.6837 21.1211 78.2111 21.6029 79.2658 21.9023C79.396 21.9414 79.5913 21.9935 79.8517 22.0586C80.1121 22.1107 80.3139 22.1562 80.4572 22.1953C80.6004 22.2344 80.7697 22.293 80.965 22.3711C81.1733 22.4492 81.3556 22.5469 81.5119 22.6641C81.6681 22.7812 81.8179 22.9245 81.9611 23.0938C82.3647 23.5625 82.5666 24.0898 82.5666 24.6758C82.5666 25.3789 82.2866 26.0039 81.7267 26.5508C81.1798 27.0977 80.4442 27.3711 79.5197 27.3711C79.0119 27.3711 78.491 27.2865 77.9572 27.1172C77.4363 26.9479 77.0392 26.7005 76.7658 26.375C76.6095 26.2057 76.5314 25.9779 76.5314 25.6914C76.5314 25.4831 76.5249 25.2487 76.5119 24.9883C76.5119 24.7279 76.5119 24.5651 76.5119 24.5C76.5119 24.2396 76.5314 24.0703 76.5705 23.9922C76.6225 23.9141 76.7202 23.875 76.8634 23.875C77.0067 23.875 77.0978 23.9336 77.1369 24.0508C77.1759 24.168 77.202 24.3438 77.215 24.5781C77.228 24.7995 77.2671 24.9818 77.3322 25.125C77.4494 25.3854 77.7228 25.6458 78.1525 25.9062C78.5952 26.1667 79.077 26.2969 79.5978 26.2969C80.0535 26.2969 80.4376 26.1732 80.7501 25.9258C81.0626 25.6784 81.2189 25.3594 81.2189 24.9688C81.2189 24.7214 81.1603 24.5065 81.0431 24.3242C80.9389 24.1289 80.7697 23.9727 80.5353 23.8555C80.3009 23.7253 80.1121 23.6341 79.9689 23.582C79.8257 23.5169 79.5978 23.4453 79.2853 23.3672L78.8166 23.2695C77.3452 22.8398 76.6095 22.026 76.6095 20.8281Z" fill="#E5D7C4"/>
</g>
<defs>
<filter id="filter0_d_85_246" x="0" y="0" width="94.9925" height="50" filterUnits="userSpaceOnUse" color-interpolation-filters="sRGB">
<feFlood flood-opacity="0" result="BackgroundImageFix"/>
<feColorMatrix in="SourceAlpha" type="matrix" values="0 0 0 0 0 0 0 0 0 0 0 0 0 0 0 0 0 0 127 0" result="hardAlpha"/>
<feOffset dy="4"/>
<feGaussianBlur stdDeviation="2"/>
<feComposite in2="hardAlpha" operator="out"/>
<feColorMatrix type="matrix" values="0 0 0 0 0 0 0 0 0 0 0 0 0 0 0 0 0 0 0.25 0"/>
<feBlend mode="normal" in2="BackgroundImageFix" result="effect1_dropShadow_85_246"/>
<feBlend mode="normal" in="SourceGraphic" in2="effect1_dropShadow_85_246" result="shape"/>
</filter>
</defs>
</svg>
