<svg width="764" height="1311" viewBox="0 0 764 1311" fill="none" xmlns="http://www.w3.org/2000/svg" preserveAspectRatio="none"><g filter="url(#filter0_d_25_104)"><path d="M372.664 1.00006C458.164 124.5 171.615 40.4575 54.6636 138C-62.288 235.543 91.4817 765.225 22.6354 732.5C-46.2109 699.775 88.6355 588 390.135 632.5C691.635 677 761.135 875 758.635 935.5C756.135 996 670.135 985 657.135 1020C644.135 1055 723.135 1097 723.135 1142.5C723.135 1188 695.462 1198.49 683.635 1238.5C675.717 1265.29 695.664 1261.5 695.664 1302" stroke="url(#paint0_linear_25_104)" stroke-width="2" stroke-linecap="round" shape-rendering="crispEdges"/></g><defs><filter id="filter0_d_25_104" x="0" y="0" width="763.7" height="1311" filterUnits="userSpaceOnUse" color-interpolation-filters="sRGB"><feFlood flood-opacity="0" result="BackgroundImageFix"/><feColorMatrix in="SourceAlpha" type="matrix" values="0 0 0 0 0 0 0 0 0 0 0 0 0 0 0 0 0 0 127 0" result="hardAlpha"/><feOffset dy="4"/><feGaussianBlur stdDeviation="2"/><feComposite in2="hardAlpha" operator="out"/><feColorMatrix type="matrix" values="0 0 0 0 0 0 0 0 0 0 0 0 0 0 0 0 0 0 0.25 0"/><feBlend mode="normal" in2="BackgroundImageFix" result="effect1_dropShadow_25_104"/><feBlend mode="normal" in="SourceGraphic" in2="effect1_dropShadow_25_104" result="shape"/></filter><linearGradient id="paint0_linear_25_104" x1="386.162" y1="-11.9999" x2="386.162" y2="3199" gradientUnits="userSpaceOnUse"><stop stop-color="#E5D7C4"/><stop offset="0.0801356" stop-color="#4A4946"/><stop offset="0.471154" stop-color="#373737"/><stop offset="0.961538" stop-color="#312F29"/></linearGradient></defs></svg>